<?xml version="1.0" encoding="UTF-8"?>
<svg version="1.1" xmlns="http://www.w3.org/2000/svg" width="500" height="500">
<path d="M0 0 C33.99 0 67.98 0 103 0 C102.33037956 4.68734311 101.76390916 8.20812601 100.31800842 12.54375267 C99.79343756 14.13126164 99.79343756 14.13126164 99.25826931 15.7508415 C98.87276944 16.89705398 98.48726957 18.04326646 98.09008789 19.22421265 C97.6815838 20.45455376 97.2730797 21.68489488 96.85219669 22.95251906 C95.72161547 26.35705749 94.58358645 29.75906554 93.44429445 33.16069722 C92.21568371 36.83335062 90.99400629 40.50830988 89.77145386 44.1829834 C87.3772514 51.37566452 84.97665467 58.5661958 82.57387614 65.75601594 C79.77746638 74.12446927 76.98733514 82.49501147 74.19744933 90.86564155 C69.22152974 105.79440112 64.23981823 120.72122146 59.25488281 135.64697266 C54.41393495 150.14161489 49.57720806 164.63765656 44.74511719 179.13525391 C44.29831004 180.47579521 44.29831004 180.47579521 43.84247649 181.84341817 C43.5451274 182.73554614 43.24777831 183.62767411 42.94141865 184.54683626 C37.4434729 201.04205152 31.94158513 217.53594956 26.43785053 234.02923416 C24.48924649 239.86900411 22.54181987 245.70916594 20.59475708 251.54944992 C18.22463181 258.65846445 15.85225016 265.76672143 13.47700906 272.87402837 C12.26427112 276.50298113 11.05249658 280.13224807 9.84328842 283.76237869 C8.53541626 287.68857442 7.22292643 291.61321016 5.90991211 295.53768921 C5.52441224 296.69728602 5.13891237 297.85688283 4.74173069 299.05161893 C4.39201678 300.09431176 4.04230288 301.13700459 3.68199158 302.21129417 C3.37913711 303.11844874 3.07628263 304.0256033 2.76425076 304.9602474 C2 307 2 307 1 308 C-2.13559886 308.09534958 -5.24913613 308.12550879 -8.38500977 308.11352539 C-9.86289474 308.11374443 -9.86289474 308.11374443 -11.37063599 308.1139679 C-14.64424807 308.11326832 -17.91780404 308.10547385 -21.19140625 308.09765625 C-23.45442168 308.09579223 -25.71743751 308.09436825 -27.98045349 308.09336853 C-33.94978948 308.0895421 -39.91910132 308.07971075 -45.88842773 308.06866455 C-51.97444329 308.05845312 -58.06046273 308.05387149 -64.14648438 308.04882812 C-76.09766689 308.03808859 -88.04883144 308.02101068 -100 308 C-91.34691534 334.9444296 -91.34691534 334.9444296 -82.27963257 361.75106812 C-77.57162021 375.28447494 -73.01573004 388.86729867 -68.56881714 402.48861694 C-67.98464638 404.27754001 -67.3989904 406.0659788 -66.8117981 407.85391235 C-65.99872862 410.33209258 -65.19172079 412.81215796 -64.38671875 415.29296875 C-64.02213058 416.40108414 -64.02213058 416.40108414 -63.650177 417.53158569 C-62.7024712 420.47423206 -62 422.88713406 -62 426 C-95.99 426 -129.98 426 -165 426 C-181.11791132 378.79754541 -181.11791132 378.79754541 -188.66748047 356.15869141 C-189.53626939 353.55647235 -190.40546963 350.95439071 -191.27462769 348.35229492 C-193.58107806 341.44617366 -195.885453 334.53936119 -198.18927526 327.63236284 C-199.63264143 323.30507202 -201.07643802 318.97792487 -202.520298 314.6507988 C-206.53830062 302.60890587 -210.55576894 290.566835 -214.57116508 278.52407265 C-214.82482319 277.76331791 -215.07848129 277.00256318 -215.339826 276.21875527 C-215.59394802 275.45660748 -215.84807004 274.6944597 -216.10989273 273.90921652 C-216.62453041 272.3657469 -217.13916903 270.82227759 -217.65380859 269.27880859 C-217.90906567 268.51325879 -218.16432275 267.74770898 -218.42731489 266.9589607 C-222.60052767 254.44330501 -226.77782169 241.92901543 -230.95677303 229.41527481 C-235.27271233 216.49113321 -239.58529691 203.56587624 -243.89448464 190.6394819 C-246.3043409 183.41082862 -248.71563826 176.18266328 -251.13067245 168.95573807 C-253.17586884 162.83549477 -255.21802026 156.71424643 -257.25612639 150.59163816 C-258.29493231 147.47130294 -259.33569066 144.35164291 -260.37937927 141.23293686 C-261.50819044 137.85909766 -262.63150281 134.48347789 -263.75338745 131.10733032 C-264.25266811 129.62157295 -264.25266811 129.62157295 -264.76203525 128.10580027 C-265.05994028 127.20549535 -265.3578453 126.30519042 -265.66477776 125.37760353 C-265.92451185 124.59899833 -266.18424595 123.82039314 -266.45185077 123.01819384 C-267 121 -267 121 -267 118 C-233.01 118 -199.02 118 -164 118 C-161.63211692 123.91970771 -159.36653162 129.65053758 -157.36177063 135.66744995 C-157.0085587 136.72346411 -157.0085587 136.72346411 -156.64821118 137.80081189 C-155.87242031 140.12262025 -155.1008676 142.44581292 -154.3293457 144.76904297 C-153.76906184 146.44881991 -153.20851797 148.12851015 -152.6477356 149.80812073 C-151.13488046 154.34186602 -149.62575144 158.87684341 -148.11739755 163.41208792 C-146.53566609 168.16610242 -144.95074934 172.91905489 -143.36625671 177.67214966 C-140.70883949 185.64533574 -138.05374008 193.6192906 -135.40014648 201.59375 C-132.33197403 210.81402445 -129.26064762 220.03324341 -126.18752795 229.25187004 C-122.91258926 239.07601108 -119.63993404 248.90091167 -116.36795402 258.72603846 C-115.42549705 261.55554073 -114.48261369 264.38490061 -113.53963661 267.21422958 C-112.05994721 271.65430136 -110.58178715 276.0948794 -109.10481644 280.53585625 C-108.56232098 282.16626557 -108.01931686 283.79650575 -107.47577095 285.42656517 C-106.73488437 287.6487348 -105.99584258 289.8715095 -105.25727844 292.0944519 C-104.84305791 293.33878935 -104.42883738 294.58312679 -104.0020647 295.86517143 C-103.24238298 298.24173649 -102.58683329 300.57942268 -102 303 C-98.96552983 295.68381262 -96.3340214 288.2802434 -93.84321594 280.76342773 C-93.24499087 278.97025745 -93.24499087 278.97025745 -92.63468045 277.14086151 C-91.53700563 273.85034953 -90.44304659 270.55861291 -89.34972656 267.26665187 C-88.16655253 263.70637824 -86.97986799 260.14727482 -85.79360962 256.58802795 C-83.74169549 250.42993017 -81.69194041 244.27111725 -79.64364052 238.11181641 C-76.68139764 229.2043594 -73.71552937 220.29811279 -70.74873271 211.39217162 C-65.93369246 196.93780836 -61.1211128 182.48262717 -56.31030273 168.02685547 C-56.02273742 167.16276621 -55.7351721 166.29867694 -55.43889268 165.40840316 C-55.00698602 164.11058988 -55.00698602 164.11058988 -54.56635398 162.78655815 C-50.47772916 150.50088698 -46.38851136 138.21541339 -42.29858398 125.93017578 C-42.01046171 125.06471811 -41.72233944 124.19926044 -41.42548618 123.30757678 C-36.627206 108.89473468 -31.82771578 94.48229571 -27.02760381 80.07006359 C-24.06711745 71.181005 -21.10787983 62.29153242 -18.15024474 53.40152472 C-16.12675817 47.31952541 -14.10226848 41.23786066 -12.07697884 35.15646154 C-10.90746904 31.6445908 -9.73847497 28.13255042 -8.57078743 24.62007332 C-7.30740223 20.81974938 -6.04173281 17.02019022 -4.77583313 13.22070312 C-4.21816213 11.54127451 -4.21816213 11.54127451 -3.64922506 9.82791805 C-3.31181143 8.81643483 -2.97439781 7.80495161 -2.62675953 6.76281738 C-2.33464456 5.88500862 -2.0425296 5.00719986 -1.74156266 4.10279083 C-1 2 -1 2 0 0 Z " fill="#3B81F5" transform="translate(332,37)"/>
<path d="M0 0 C33.99 0 67.98 0 103 0 C102.67 2.31 102.34 4.62 102 7 C100 4 100 4 100 2 C87.53491097 2.10742464 75.06988081 2.2200424 62.60489941 2.33933926 C56.81726691 2.39456589 51.02962936 2.44798556 45.24194336 2.49731445 C39.65928494 2.54496172 34.07668871 2.59730478 28.49410439 2.65294075 C26.36141821 2.67336264 24.22871498 2.69207599 22.09599876 2.70907402 C19.11496171 2.73312159 16.13404244 2.76317585 13.15307617 2.79467773 C12.2661911 2.8004332 11.37930603 2.80618866 10.46554565 2.81211853 C9.65366287 2.82190735 8.84178009 2.83169617 8.0052948 2.84178162 C6.94753735 2.85146044 6.94753735 2.85146044 5.86841106 2.8613348 C3.77063342 2.94026303 3.77063342 2.94026303 1 4 C-0.22969878 7.51190809 -0.22969878 7.51190809 -1 11 C-1.66 11 -2.32 11 -3 11 C-2.69078116 9.54096742 -2.37751201 8.08279278 -2.0625 6.625 C-1.88847656 5.81289063 -1.71445312 5.00078125 -1.53515625 4.1640625 C-1 2 -1 2 0 0 Z " fill="#4E81D6" transform="translate(332,37)"/>
<path d="M0 0 C1.74269013 2.6140352 2.62351903 4.48672152 3.60400391 7.40795898 C4.05424423 8.7396537 4.05424423 8.7396537 4.51358032 10.09825134 C4.83136444 11.05453934 5.14914856 12.01082733 5.4765625 12.99609375 C5.80667328 13.98118423 6.13678406 14.96627472 6.47689819 15.98121643 C7.17339201 18.06427541 7.86755755 20.1481141 8.55957031 22.23266602 C9.62052198 25.42403002 10.69260163 28.61150571 11.765625 31.79882812 C12.44078308 33.82269031 13.11528435 35.84677175 13.7890625 37.87109375 C14.11089508 38.82535751 14.43272766 39.77962128 14.76431274 40.76280212 C15.05816864 41.65375076 15.35202454 42.5446994 15.65478516 43.46264648 C15.91522614 44.24413559 16.17566711 45.02562469 16.44400024 45.83079529 C17 48 17 48 17 52 C16.34 52 15.68 52 15 52 C14.81824219 51.21496094 14.63648438 50.42992187 14.44921875 49.62109375 C12.85894836 42.97457903 11.15792946 36.956204 7.875 30.9375 C6.70782399 28.35303884 6.38131542 25.79631308 6 23 C5.67 23 5.34 23 5 23 C4.87625 21.329375 4.87625 21.329375 4.75 19.625 C4.37875 17.830625 4.37875 17.830625 4 16 C2.68 15.34 1.36 14.68 0 14 C0 9.38 0 4.76 0 0 Z " fill="#487ED9" transform="translate(212,288)"/>
<path d="M0 0 C1.31030334 4.26154731 0.36370213 6.9915203 -0.9375 11.25 C-1.31777344 12.51328125 -1.69804687 13.7765625 -2.08984375 15.078125 C-2.39019531 16.04234375 -2.69054687 17.0065625 -3 18 C-2.01 18.33 -1.02 18.66 0 19 C-0.33 19.99 -0.66 20.98 -1 22 C-1.66 21.67 -2.32 21.34 -3 21 C-4.32 24.3 -5.64 27.6 -7 31 C-7.66 31 -8.32 31 -9 31 C-9 33.31 -9 35.62 -9 38 C-9.99 38 -10.98 38 -12 38 C-9.80345089 29.47459602 -7.13081612 21.15058039 -4.3125 12.8125 C-3.68891602 10.9552832 -3.68891602 10.9552832 -3.05273438 9.06054688 C-2.03791686 6.03942347 -1.02029029 3.0192786 0 0 Z " fill="#4880DA" transform="translate(280,192)"/>
<path d="M0 0 C1.31030334 4.26154731 0.36370213 6.9915203 -0.9375 11.25 C-1.31777344 12.51328125 -1.69804687 13.7765625 -2.08984375 15.078125 C-2.54037109 16.52445312 -2.54037109 16.52445312 -3 18 C-2.01 18.33 -1.02 18.66 0 19 C-0.33 20.65 -0.66 22.3 -1 24 C-1.33 23.01 -1.66 22.02 -2 21 C-2.66 21 -3.32 21 -4 21 C-4.4021875 22.299375 -4.4021875 22.299375 -4.8125 23.625 C-5.97111987 26.91791964 -7.38209839 29.91127875 -9 33 C-10.34215465 28.97353605 -9.27560797 27.13974185 -7.91015625 23.14453125 C-7.68678085 22.48289474 -7.46340546 21.82125824 -7.23326111 21.13957214 C-6.51807218 19.02758317 -5.79047887 16.92011043 -5.0625 14.8125 C-4.57534874 13.38113926 -4.08901052 11.94950153 -3.60351562 10.51757812 C-2.41176032 7.00845598 -1.20884399 3.50327728 0 0 Z " fill="#4780DA" transform="translate(264,240)"/>
<path d="M0 0 C2.54661734 3.81992601 3.74731218 7.72838183 5.1875 12.0625 C5.47302734 12.89072266 5.75855469 13.71894531 6.05273438 14.57226562 C6.31763672 15.36439453 6.58253906 16.15652344 6.85546875 16.97265625 C7.09934326 17.69718994 7.34321777 18.42172363 7.59448242 19.16821289 C8 21 8 21 7 23 C5.35 22.01 3.7 21.02 2 20 C2.33 16.7 2.66 13.4 3 10 C1.68 9.67 0.36 9.34 -1 9 C-1.33 7.68 -1.66 6.36 -2 5 C-1.01 5.33 -0.02 5.66 1 6 C0.67 4.02 0.34 2.04 0 0 Z " fill="#437EDE" transform="translate(194,234)"/>
<path d="M0 0 C3.07044164 4.60566246 4.44207055 9.77285001 6.1875 15 C6.56841797 16.10601562 6.94933594 17.21203125 7.34179688 18.3515625 C7.87450195 19.94097656 7.87450195 19.94097656 8.41796875 21.5625 C8.74563232 22.53316406 9.0732959 23.50382812 9.41088867 24.50390625 C10 27 10 27 9 30 C6.99006295 26.98509443 6.27376659 24.7850073 5.375 21.3125 C5.11460937 20.31863281 4.85421875 19.32476562 4.5859375 18.30078125 C4.39257812 17.54152344 4.19921875 16.78226562 4 16 C3.34 16.33 2.68 16.66 2 17 C0.93461732 11.36869154 0.47705312 5.70433734 0 0 Z " fill="#477ED6" transform="translate(202,258)"/>
<path d="M0 0 C1 4 2 8 3 12 C2.39671875 12.23460938 1.7934375 12.46921875 1.171875 12.7109375 C-1.53132927 14.3153573 -2.32315896 15.85058687 -3.75 18.625 C-4.17796875 19.44226563 -4.6059375 20.25953125 -5.046875 21.1015625 C-5.36140625 21.72804688 -5.6759375 22.35453125 -6 23 C-7 21 -7 21 -6.47094727 18.84521484 C-6.02319946 17.54124756 -6.02319946 17.54124756 -5.56640625 16.2109375 C-5.24736328 15.26992187 -4.92832031 14.32890625 -4.59960938 13.359375 C-4.25736328 12.37453125 -3.91511719 11.3896875 -3.5625 10.375 C-3.05493164 8.88613281 -3.05493164 8.88613281 -2.53710938 7.3671875 C-1.69804913 4.90909552 -0.85209309 2.45359843 0 0 Z " fill="#4881DE" transform="translate(309,105)"/>
<path d="M0 0 C0.97591583 3.38317487 0.85856655 5.5657338 0 9 C0.66 9.33 1.32 9.66 2 10 C1.34 10 0.68 10 0 10 C-0.268125 11.051875 -0.53625 12.10375 -0.8125 13.1875 C-1.88801104 16.64045649 -3.10617781 18.9698845 -5 22 C-6.06550858 24.31021633 -7.03097111 26.64664412 -8 29 C-9 27 -9 27 -8.28735352 24.29443359 C-7.90506592 23.17375488 -7.52277832 22.05307617 -7.12890625 20.8984375 C-6.71962891 19.68671875 -6.31035156 18.475 -5.88867188 17.2265625 C-5.44677503 15.9426531 -5.00471562 14.65879964 -4.5625 13.375 C-4.12366466 12.08356566 -3.68550491 10.79190154 -3.24804688 9.5 C-2.17200727 6.33100424 -1.08905457 3.16454188 0 0 Z " fill="#4B80D8" transform="translate(293,153)"/>
<path d="M0 0 C1.60717771 2.41076656 2.61542515 4.28099245 3.625 6.9375 C3.88539063 7.60652344 4.14578125 8.27554687 4.4140625 8.96484375 C5 11 5 11 5 15 C3.68 15 2.36 15 1 15 C0.25073929 11.33694766 -0.2380014 8.57644848 1 5 C0.34 5 -0.32 5 -1 5 C-1.33 5.66 -1.66 6.32 -2 7 C-2.33 5.35 -2.66 3.7 -3 2 C-2.01 1.34 -1.02 0.68 0 0 Z " fill="#3E7BEB" transform="translate(244,385)"/>
<path d="M0 0 C0.66 1.32 1.32 2.64 2 4 C1.34 4 0.68 4 0 4 C0.33 6.64 0.66 9.28 1 12 C0.34 12 -0.32 12 -1 12 C-1.12246094 12.57234375 -1.24492187 13.1446875 -1.37109375 13.734375 C-2.02762868 16.09953191 -2.93723512 18.07206797 -4.0625 20.25 C-4.42472656 20.95640625 -4.78695313 21.6628125 -5.16015625 22.390625 C-5.43730469 22.92171875 -5.71445312 23.4528125 -6 24 C-7.17791932 20.46624203 -6.75415072 19.55148893 -5.56640625 16.11328125 C-5.0878418 14.7065918 -5.0878418 14.7065918 -4.59960938 13.27148438 C-4.25736328 12.29501953 -3.91511719 11.31855469 -3.5625 10.3125 C-3.22412109 9.32443359 -2.88574219 8.33636719 -2.53710938 7.31835938 C-1.69940026 4.87602435 -0.85342917 2.43687729 0 0 Z " fill="#4A80DD" transform="translate(317,81)"/>
<path d="M0 0 C1.62276158 2.43414237 2.61744792 4.31319446 3.625 7 C3.88539063 7.680625 4.14578125 8.36125 4.4140625 9.0625 C5 11 5 11 5 14 C0.25 12.125 0.25 12.125 -2 11 C-1.34 9.35 -0.68 7.7 0 6 C-0.66 5.67 -1.32 5.34 -2 5 C-1.34 3.35 -0.68 1.7 0 0 Z " fill="#407BE7" transform="translate(252,409)"/>
<path d="M0 0 C1.09436179 4.13509713 1.07127804 7.72331787 1 12 C0.34 12 -0.32 12 -1 12 C-1.12246094 12.57234375 -1.24492187 13.1446875 -1.37109375 13.734375 C-2.02762868 16.09953191 -2.93723512 18.07206797 -4.0625 20.25 C-4.42472656 20.95640625 -4.78695313 21.6628125 -5.16015625 22.390625 C-5.43730469 22.92171875 -5.71445312 23.4528125 -6 24 C-7.17791932 20.46624203 -6.75415072 19.55148893 -5.56640625 16.11328125 C-5.0878418 14.7065918 -5.0878418 14.7065918 -4.59960938 13.27148438 C-4.25736328 12.29501953 -3.91511719 11.31855469 -3.5625 10.3125 C-3.22412109 9.32443359 -2.88574219 8.33636719 -2.53710938 7.31835938 C-1.69940026 4.87602435 -0.85342917 2.43687729 0 0 Z " fill="#4A80DC" transform="translate(301,129)"/>
<path d="M0 0 C1.17791932 3.53375797 0.75415072 4.44851107 -0.43359375 7.88671875 C-0.9121582 9.2934082 -0.9121582 9.2934082 -1.40039062 10.72851562 C-1.74263672 11.70498047 -2.08488281 12.68144531 -2.4375 13.6875 C-2.77587891 14.67556641 -3.11425781 15.66363281 -3.46289062 16.68164062 C-4.30059974 19.12397565 -5.14657083 21.56312271 -6 24 C-6.84223992 20.91138184 -7.00403951 18.68344536 -6.5625 15.5 C-6.1671111 12.57712509 -6 9.9806637 -6 7 C-5.34 7.33 -4.68 7.66 -4 8 C-2.68 5.36 -1.36 2.72 0 0 Z " fill="#477CCE" transform="translate(432,44)"/>
<path d="M0 0 C1.10844919 3.32534757 0.84454356 5.62182575 0 9 C0.99 9.33 1.98 9.66 3 10 C2.67 11.32 2.34 12.64 2 14 C1.67 13.01 1.34 12.02 1 11 C0.34 11 -0.32 11 -1 11 C-1.33 12.65 -1.66 14.3 -2 16 C-2.99 16.33 -3.98 16.66 -5 17 C-1.92482916 5.47835991 -1.92482916 5.47835991 0 0 Z " fill="#4581DC" transform="translate(245,297)"/>
<path d="M0 0 C0.96619216 3.38787177 0.90644759 5.00307342 -0.375 8.3125 C-1.78969341 12.21090854 -2.44573585 15.88260916 -3 20 C-4.0625 22.9375 -4.0625 22.9375 -5 25 C-5.66 25 -6.32 25 -7 25 C-7.33 25.66 -7.66 26.32 -8 27 C-6.68764148 20.63569826 -4.98780585 14.57878972 -2.875 8.4375 C-2.59785156 7.61958984 -2.32070313 6.80167969 -2.03515625 5.95898438 C-1.36094863 3.97123432 -0.68107796 1.98540651 0 0 Z " fill="#4B80D5" transform="translate(326,54)"/>
<path d="M0 0 C0.33 0.66 0.66 1.32 1 2 C1.66 2 2.32 2 3 2 C3.12117187 2.63808594 3.24234375 3.27617187 3.3671875 3.93359375 C3.53476563 4.75988281 3.70234375 5.58617187 3.875 6.4375 C4.03742188 7.26121094 4.19984375 8.08492188 4.3671875 8.93359375 C4.68042969 9.95646484 4.68042969 9.95646484 5 11 C5.66 11.33 6.32 11.66 7 12 C7.4140625 14.72265625 7.4140625 14.72265625 7.625 18.0625 C7.69976562 19.16722656 7.77453125 20.27195312 7.8515625 21.41015625 C7.90054688 22.26480469 7.94953125 23.11945313 8 24 C6.30940011 21.46410016 5.43702476 19.69623983 4.4921875 16.875 C4.22792969 16.08609375 3.96367187 15.2971875 3.69140625 14.484375 C3.42199219 13.66453125 3.15257812 12.8446875 2.875 12 C2.59785156 11.18015625 2.32070312 10.3603125 2.03515625 9.515625 C1.77347656 8.72671875 1.51179687 7.9378125 1.2421875 7.125 C1.0035498 6.40570313 0.76491211 5.68640625 0.51904297 4.9453125 C0 3 0 3 0 0 Z " fill="#4B82D6" transform="translate(152,416)"/>
<path d="M0 0 C2.54661734 3.81992601 3.74731218 7.72838183 5.1875 12.0625 C5.47302734 12.89072266 5.75855469 13.71894531 6.05273438 14.57226562 C6.31763672 15.36439453 6.58253906 16.15652344 6.85546875 16.97265625 C7.22128052 18.05945679 7.22128052 18.05945679 7.59448242 19.16821289 C8 21 8 21 7 23 C5.66666667 20.33333333 4.33333333 17.66666667 3 15 C2.6390625 14.3709375 2.278125 13.741875 1.90625 13.09375 C0.76261692 10.45156323 0.57967004 8.1153806 0.375 5.25 C0.30023438 4.26515625 0.22546875 3.2803125 0.1484375 2.265625 C0.09945312 1.51796875 0.05046875 0.7703125 0 0 Z " fill="#487CD3" transform="translate(186,210)"/>
<path d="M0 0 C1.17791932 3.53375797 0.75415072 4.44851107 -0.43359375 7.88671875 C-0.9121582 9.2934082 -0.9121582 9.2934082 -1.40039062 10.72851562 C-1.74263672 11.70498047 -2.08488281 12.68144531 -2.4375 13.6875 C-2.77587891 14.67556641 -3.11425781 15.66363281 -3.46289062 16.68164062 C-4.30059974 19.12397565 -5.14657083 21.56312271 -6 24 C-7.1700097 20.08263419 -6.69584017 17.02040985 -6 13 C-5.34 13 -4.68 13 -4 13 C-3.87882812 12.31292969 -3.75765625 11.62585938 -3.6328125 10.91796875 C-3.46523438 10.01691406 -3.29765625 9.11585938 -3.125 8.1875 C-2.96257812 7.29417969 -2.80015625 6.40085938 -2.6328125 5.48046875 C-2 3 -2 3 0 0 Z " fill="#477DD2" transform="translate(403,131)"/>
<path d="M0 0 C2.23127725 3.34691588 3.38532762 6.71611628 4.625 10.5 C4.85445312 11.17675781 5.08390625 11.85351562 5.3203125 12.55078125 C6.29296917 15.48612014 7 17.88708081 7 21 C6.34 21 5.68 21 5 21 C4.67 18.36 4.34 15.72 4 13 C3.34 13 2.68 13 2 13 C2 12.34 2 11.68 2 11 C1.34 11 0.68 11 0 11 C0 7.37 0 3.74 0 0 Z " fill="#497BD6" transform="translate(168,156)"/>
<path d="M0 0 C1.485 0.99 1.485 0.99 3 2 C3 2.99 3 3.98 3 5 C3.99 5 4.98 5 6 5 C6 9.29 6 13.58 6 18 C3.98996365 14.98494548 3.00828459 12.42503788 1.875 9 C1.52179688 7.948125 1.16859375 6.89625 0.8046875 5.8125 C0 3 0 3 0 0 Z " fill="#4A80DE" transform="translate(144,392)"/>
<path d="M0 0 C1.485 0.99 1.485 0.99 3 2 C3 2.99 3 3.98 3 5 C3.99 5 4.98 5 6 5 C6 9.29 6 13.58 6 18 C3.98996365 14.98494548 3.00828459 12.42503788 1.875 9 C1.52179688 7.948125 1.16859375 6.89625 0.8046875 5.8125 C0 3 0 3 0 0 Z " fill="#4980DE" transform="translate(128,344)"/>
<path d="M0 0 C0.99 0 1.98 0 3 0 C1.55613874 7.21930632 -0.57788174 14.05110733 -3 21 C-3.33 21 -3.66 21 -4 21 C-4.32382475 15.6029209 -3.42131037 12.74576832 -1 8 C-0.47543126 5.32372801 -0.23482396 2.72395794 0 0 Z " fill="#457DD4" transform="translate(363,245)"/>
<path d="M0 0 C0.66 0 1.32 0 2 0 C0.75971762 6.17222879 -0.89603589 12.06682122 -3 18 C-3.33 18 -3.66 18 -4 18 C-4.04254356 16.00045254 -4.04080783 13.99958364 -4 12 C-3.67 11.67 -3.34 11.34 -3 11 C-2.63128912 9.34080104 -2.30404678 7.67225729 -2 6 C-1.11111111 1.11111111 -1.11111111 1.11111111 0 0 Z " fill="#467ED7" transform="translate(341,314)"/>
<path d="M0 0 C0.33 0.66 0.66 1.32 1 2 C1.66 2 2.32 2 3 2 C3.20496094 2.78246094 3.40992187 3.56492188 3.62109375 4.37109375 C3.89050781 5.38300781 4.15992187 6.39492187 4.4375 7.4375 C4.83775391 8.95150391 4.83775391 8.95150391 5.24609375 10.49609375 C5.75978077 12.91752001 5.75978077 12.91752001 7 14 C7.04092937 16.33297433 7.04241723 18.66705225 7 21 C4.76872275 17.65308412 3.61467238 14.28388372 2.375 10.5 C2.03082031 9.48486328 2.03082031 9.48486328 1.6796875 8.44921875 C0.70703083 5.51387986 0 3.11291919 0 0 Z " fill="#4A80D6" transform="translate(88,224)"/>
<path d="M0 0 C0.66 0 1.32 0 2 0 C3.53283356 3.63462281 4.69800679 7.24450425 5.6875 11.0625 C5.95949219 12.08472656 6.23148437 13.10695313 6.51171875 14.16015625 C6.99593536 16.97636008 6.7778395 18.32785464 6 21 C4.99263372 18.06497405 3.99539496 15.12660539 3 12.1875 C2.71382813 11.35412109 2.42765625 10.52074219 2.1328125 9.66210938 C1.72675781 8.45844727 1.72675781 8.45844727 1.3125 7.23046875 C1.06113281 6.49207764 0.80976562 5.75368652 0.55078125 4.99291992 C0 3 0 3 0 0 Z " fill="#4E7FD4" transform="translate(95,245)"/>
<path d="M0 0 C0.66 0 1.32 0 2 0 C3.53283356 3.63462281 4.69800679 7.24450425 5.6875 11.0625 C5.95949219 12.08472656 6.23148437 13.10695312 6.51171875 14.16015625 C6.99593536 16.97636008 6.7778395 18.32785464 6 21 C4.99263372 18.06497405 3.99539496 15.12660539 3 12.1875 C2.71382813 11.35412109 2.42765625 10.52074219 2.1328125 9.66210938 C1.72675781 8.45844727 1.72675781 8.45844727 1.3125 7.23046875 C1.06113281 6.49207764 0.80976562 5.75368652 0.55078125 4.99291992 C0 3 0 3 0 0 Z " fill="#4F7FD5" transform="translate(79,197)"/>
<path d="M0 0 C1.12018319 3.36054957 0.90181274 4.01723271 -0.21484375 7.23046875 C-0.48876953 8.03291016 -0.76269531 8.83535156 -1.04492188 9.66210938 C-1.48674805 10.91217773 -1.48674805 10.91217773 -1.9375 12.1875 C-2.22818359 13.03248047 -2.51886719 13.87746094 -2.81835938 14.74804688 C-3.53757537 16.83495229 -4.2650343 18.91859994 -5 21 C-7.08968736 13.37398513 -3.62873929 6.65268869 0 0 Z " fill="#487DCD" transform="translate(395,155)"/>
<path d="M0 0 C1.20220203 3.53094302 0.79532349 6.12898982 0.0625 9.75 C-0.13214844 10.73484375 -0.32679688 11.7196875 -0.52734375 12.734375 C-0.68332031 13.48203125 -0.83929688 14.2296875 -1 15 C-1.99 15 -2.98 15 -4 15 C-2.9318153 9.88634986 -1.76892524 4.92772031 0 0 Z " fill="#477ED9" transform="translate(235,327)"/>
<path d="M0 0 C1.63800475 4.5500132 0.83757562 9.07850298 -1.0625 13.4375 C-1.5265625 14.2109375 -1.5265625 14.2109375 -2 15 C-2.66 15 -3.32 15 -4 15 C-2.9318153 9.88634986 -1.76892524 4.92772031 0 0 Z " fill="#4B7FD8" transform="translate(253,273)"/>
<path d="M0 0 C2.31 0 4.62 0 7 0 C7 1.32 7 2.64 7 4 C6.34 4 5.68 4 5 4 C5 3.34 5 2.68 5 2 C4.01 2 3.02 2 2 2 C2.33 4.31 2.66 6.62 3 9 C0.87491756 5.81237635 0.4979837 3.73487777 0 0 Z " fill="#4680DD" transform="translate(65,155)"/>
<path d="M0 0 C0.66 0 1.32 0 2 0 C0.9318153 5.11365014 -0.23107476 10.07227969 -2 15 C-3.54363098 10.88365073 -2.73840234 7.22903156 -2 3 C-1.34 2.01 -0.68 1.02 0 0 Z " fill="#477DD3" transform="translate(373,218)"/>
<path d="M0 0 C2.57146057 2.57146057 2.80117997 4.6050417 3.625 8.125 C3.88539063 9.22070312 4.14578125 10.31640625 4.4140625 11.4453125 C4.70410156 12.70988281 4.70410156 12.70988281 5 14 C2.53303195 11.88827535 1.14881742 10.62961216 0.390625 7.421875 C0.34421875 6.54015625 0.2978125 5.6584375 0.25 4.75 C0.19328125 3.85796875 0.1365625 2.9659375 0.078125 2.046875 C0.05234375 1.37140625 0.0265625 0.6959375 0 0 Z " fill="#4074E2" transform="translate(261,436)"/>
<path d="M0 0 C1.28497537 3.85492611 0.4052209 5.40346836 -0.9375 9.1875 C-1.31777344 10.27417969 -1.69804687 11.36085938 -2.08984375 12.48046875 C-2.39019531 13.31191406 -2.69054687 14.14335937 -3 15 C-3.33 15 -3.66 15 -4 15 C-4.50610724 8.92671312 -3.04157942 5.22771463 0 0 Z " fill="#487CD0" transform="translate(347,299)"/>
<path d="M0 0 C1.28497537 3.85492611 0.4052209 5.40346836 -0.9375 9.1875 C-1.31777344 10.27417969 -1.69804687 11.36085937 -2.08984375 12.48046875 C-2.39019531 13.31191406 -2.69054687 14.14335937 -3 15 C-3.33 15 -3.66 15 -4 15 C-4.50610724 8.92671312 -3.04157942 5.22771463 0 0 Z " fill="#477CD0" transform="translate(379,203)"/>
<path d="M0 0 C1.28497537 3.85492611 0.4052209 5.40346836 -0.9375 9.1875 C-1.31777344 10.27417969 -1.69804687 11.36085938 -2.08984375 12.48046875 C-2.39019531 13.31191406 -2.69054687 14.14335938 -3 15 C-3.33 15 -3.66 15 -4 15 C-4.50610724 8.92671312 -3.04157942 5.22771463 0 0 Z " fill="#467BCE" transform="translate(411,107)"/>
<path d="M0 0 C0.66 0.33 1.32 0.66 2 1 C3.10408478 4.31225434 2.88103713 5.6470723 2.1875 9 C2.01605469 9.86625 1.84460938 10.7325 1.66796875 11.625 C1 14 1 14 -1 17 C-0.9278125 16.10796875 -0.855625 15.2159375 -0.78125 14.296875 C-0.6884375 13.12640625 -0.595625 11.9559375 -0.5 10.75 C-0.4071875 9.58984375 -0.314375 8.4296875 -0.21875 7.234375 C-0.05595356 4.82731342 0 2.41256049 0 0 Z " fill="#417FDC" transform="translate(426,51)"/>
<path d="M0 0 C2.12508244 3.18762365 2.5020163 5.26512223 3 9 C2.34 9 1.68 9 1 9 C-0.61949011 6.42786866 -1.04408751 5.32330841 -0.625 2.25 C-0.41875 1.5075 -0.2125 0.765 0 0 Z " fill="#4179E2" transform="translate(236,361)"/>
<path d="M0 0 C0.89694794 3.58779175 1.08304117 6.34618837 1 10 C-0.32 10.33 -1.64 10.66 -3 11 C-2.01 7.37 -1.02 3.74 0 0 Z " fill="#4A7DD4" transform="translate(239,315)"/>
<path d="M0 0 C1.15957207 3.47871621 0.77456651 4.34219645 -0.4375 7.6875 C-0.72496094 8.49574219 -1.01242187 9.30398437 -1.30859375 10.13671875 C-1.65083984 11.05904297 -1.65083984 11.05904297 -2 12 C-2.33 12 -2.66 12 -3 12 C-3.2954439 6.97745369 -2.98514628 4.10457614 0 0 Z " fill="#477BCE" transform="translate(424,68)"/>
</svg>
