<?xml version="1.0" encoding="UTF-8"?>
<svg version="1.1" xmlns="http://www.w3.org/2000/svg" width="500" height="500">
<path d="M0 0 C1.69702309 -0.02409439 1.69702309 -0.02409439 3.42832947 -0.04867554 C8.59461709 -0.09298423 13.76081576 -0.13461378 18.92724609 -0.15722656 C22.33518453 -0.17389627 25.74215991 -0.21869583 29.14973354 -0.26959801 C32.39862169 -0.31130595 35.64761602 -0.31840198 38.89672852 -0.33056641 C40.12177597 -0.35323578 41.34682343 -0.37590515 42.60899353 -0.39926147 C43.74349442 -0.39641144 44.8779953 -0.3935614 46.046875 -0.390625 C47.54673195 -0.40275528 47.54673195 -0.40275528 49.07688904 -0.41513062 C51.58813477 0.19287109 51.58813477 0.19287109 53.34320068 2.50291443 C54.95311815 5.98149877 56.31768834 9.52049298 57.60766602 13.12646484 C57.89831436 13.92622238 58.18896271 14.72597992 58.48841858 15.54997253 C59.46459382 18.24150533 60.43273295 20.93585298 61.40063477 23.63037109 C62.10172537 25.5704007 62.80306719 27.51033955 63.50463867 29.45019531 C70.2707414 48.19219866 76.91826543 66.97686925 83.5669632 85.76077652 C90.65681074 105.79065437 97.81694529 125.79404816 105.04272461 145.77539062 C105.39666794 146.75522415 105.75061127 147.73505768 106.11528015 148.74458313 C106.76432959 150.54100512 107.41431204 152.33709047 108.06550598 154.13273621 C109.99005888 159.45956581 111.82266735 164.81122584 113.58813477 170.19287109 C116.96016321 162.29383024 120.06142112 154.34421079 122.92407227 146.24755859 C123.32076614 145.13390427 123.71746002 144.02024994 124.12617493 142.87284851 C124.97172742 140.4977828 125.81581639 138.12219562 126.65853882 135.74612427 C127.97819791 132.02540118 129.30182492 128.3061107 130.62646484 124.5871582 C133.68957168 115.98560634 136.74552992 107.3815195 139.80108643 98.77728271 C141.96504192 92.68400094 144.13074076 86.59134736 146.29962158 80.49981689 C147.26258855 77.79205568 148.22208771 75.08308244 149.18139648 72.37402344 C149.75822308 70.75238481 150.33519913 69.13079934 150.91235352 67.50927734 C151.17180252 66.77351974 151.43125153 66.03776215 151.69856262 65.27970886 C153.47429606 60.3067098 153.47429606 60.3067098 154.58813477 59.19287109 C168.94690373 57.44961837 183.63793888 58.02836504 198.07038069 58.02561402 C200.19396308 58.02489561 202.31753931 58.02274671 204.44112015 58.02011681 C211.88596242 58.01091303 219.33078699 58.0067759 226.77563477 58.00756836 C233.65798233 58.00816879 240.54025144 57.99761085 247.42257917 57.9818247 C253.38237313 57.96865348 259.34214173 57.96338839 265.3019501 57.96402377 C268.83911904 57.96427582 272.37621793 57.96158927 275.91337204 57.95084572 C293.64772502 57.90067079 311.34393679 57.87589463 328.71313477 61.94287109 C329.44628906 62.11206055 330.17944336 62.28125 330.93481445 62.45556641 C355.45112567 68.39220435 376.89660048 81.30637856 390.77563477 102.88037109 C403.90047795 125.92017734 405.92731529 155.74501971 399.58813477 181.19287109 C393.78047825 201.93652016 380.20688542 219.29659892 361.68334961 230.32714844 C336.43521566 244.45880157 310.23651741 246.83836971 281.86889648 246.4675293 C278.32814402 246.42581994 274.78726775 246.4081768 271.24633789 246.38818359 C264.35997944 246.34591681 257.47409258 246.27810782 250.58813477 246.19287109 C250.59090014 247.14869992 250.59090014 247.14869992 250.59372139 248.12383842 C250.63784826 263.61322509 250.67096587 279.10258996 250.69175911 294.59202385 C250.70208127 302.08253102 250.71615947 309.57299628 250.73901367 317.06347656 C250.75891888 323.59052054 250.77184436 330.11753418 250.77631176 336.64460766 C250.77892402 340.10214881 250.78508332 343.55960316 250.79959488 347.01711655 C250.8156455 350.87243046 250.8161163 354.72765866 250.81518555 358.58300781 C250.8223761 359.73530884 250.82956665 360.88760986 250.8369751 362.0748291 C250.83422577 363.12093353 250.83147644 364.16703796 250.8286438 365.24484253 C250.83140918 366.61370511 250.83140918 366.61370511 250.83423042 368.01022148 C250.58813477 370.19287109 250.58813477 370.19287109 248.58813477 372.19287109 C246.23510742 372.44683838 246.23510742 372.44683838 243.25219727 372.45166016 C242.1376416 372.45796448 241.02308594 372.4642688 239.87475586 372.47076416 C238.6664209 372.4667157 237.45808594 372.46266724 236.21313477 372.45849609 C234.97772949 372.46040955 233.74232422 372.462323 232.46948242 372.46429443 C229.1822207 372.4660072 225.89514689 372.45793808 222.60791016 372.44677734 C220.59018947 372.44287507 218.57264276 372.4467628 216.55493164 372.45361328 C212.69091648 372.46593113 208.82716049 372.46448087 204.96313477 372.45849609 C203.7547998 372.46254456 202.54646484 372.46659302 201.30151367 372.47076416 C200.18695801 372.46445984 199.07240234 372.45815552 197.92407227 372.45166016 C196.44753174 372.44927338 196.44753174 372.44927338 194.94116211 372.44683838 C192.58813477 372.19287109 192.58813477 372.19287109 190.58813477 370.19287109 C190.39519412 367.7715 190.32753484 365.46503568 190.34762573 363.04293823 C190.34591688 362.29802285 190.34420803 361.55310747 190.3424474 360.7856189 C190.33913953 358.27657935 190.35017734 355.76780419 190.36108398 353.25878906 C190.36164782 351.46541348 190.36133208 349.67203743 190.36019897 347.87866211 C190.35962338 342.99873075 190.3714111 338.118897 190.38534689 333.2389884 C190.39781984 328.14339024 190.39902203 323.04779003 190.40139771 317.95217896 C190.4076226 308.29783121 190.42404704 298.64352857 190.44409668 288.98920071 C190.46642432 278.00025243 190.47744121 267.01130203 190.48748755 256.02233672 C190.50841242 233.4124898 190.54360796 210.80268297 190.58813477 188.19287109 C193.93586307 187.44246049 197.02599489 187.06812549 200.45431519 187.06829834 C201.40713882 187.06573532 202.35996246 187.0631723 203.34165955 187.06053162 C204.37545242 187.06263138 205.4092453 187.06473114 206.47436523 187.06689453 C207.57266159 187.0650264 208.67095795 187.06315826 209.80253601 187.06123352 C212.18696737 187.05723236 214.57140256 187.05515494 216.95583725 187.05477142 C222.04116236 187.05134639 227.12636072 187.02996598 232.21164131 187.00954056 C241.67374372 186.97160024 251.13571327 186.93969415 260.59790039 186.94238281 C267.1850129 186.94415385 273.77172196 186.91964082 280.35873795 186.88050079 C282.85829709 186.8700941 285.35791007 186.86847705 287.8574791 186.87615204 C311.90455954 187.09404567 311.90455954 187.09404567 332.78344727 176.15771484 C340.13373953 168.15512391 341.0607591 159.66656203 340.86157227 149.24755859 C340.4880734 141.25616197 337.23454289 134.77508345 331.74829102 129.00927734 C316.70623867 116.36089698 296.5358616 117.77549272 278.15844727 117.89990234 C275.71223207 117.90550726 273.26601348 117.90977312 270.8197937 117.9127655 C264.42476883 117.92414368 258.02995288 117.9535496 251.63500977 117.98687744 C245.09206975 118.01773076 238.54909552 118.03130328 232.00610352 118.04638672 C219.20002552 118.07842666 206.39409133 118.12894876 193.58813477 118.19287109 C193.38358642 118.72756327 193.17903807 119.26225544 192.96829128 119.81315041 C174.31039417 168.58264371 174.31039417 168.58264371 166.15063477 189.56787109 C165.36666601 191.58670681 164.58281617 193.6055887 163.79907227 195.62451172 C162.19290862 199.76172876 160.58626712 203.89875969 158.97924805 208.03564453 C155.40525909 217.23725768 151.83772692 226.44137426 148.26968384 235.64529419 C147.09765362 238.66831905 145.92534119 241.69123432 144.75292969 244.71411133 C141.0207436 254.33725076 137.29012732 263.96099246 133.56378174 273.58639526 C131.79138323 278.16439461 130.01827914 282.74212053 128.24511719 287.31982422 C127.39499038 289.51516217 126.54521442 291.71063601 125.69580078 293.90625 C124.52276192 296.93832625 123.34854697 299.96994454 122.17407227 303.00146484 C121.82400116 303.90726791 121.47393005 304.81307098 121.11325073 305.74632263 C120.63361374 306.98334679 120.63361374 306.98334679 120.14428711 308.24536133 C119.86628265 308.9636058 119.5882782 309.68185028 119.30184937 310.42185974 C118.58813477 312.19287109 118.58813477 312.19287109 117.58813477 314.19287109 C115.27813477 314.19287109 112.96813477 314.19287109 110.58813477 314.19287109 C107.54818565 308.35083791 105.04760937 302.46795194 102.74438477 296.30224609 C102.38304947 295.34603363 102.02171417 294.38982117 101.64942932 293.40463257 C100.86833463 291.33653616 100.08910502 289.26773455 99.31155396 287.19830322 C97.19273173 281.56026682 95.05923317 275.92777937 92.92797852 270.29443359 C92.26577553 268.54240128 92.26577553 268.54240128 91.5901947 266.75497437 C86.98992704 254.59144312 82.3256827 242.45281764 77.65063477 230.31787109 C76.81467886 228.14697974 75.97874145 225.97608127 75.14282227 223.80517578 C73.46369782 219.44499543 71.78409296 215.08500048 70.10424805 210.72509766 C66.34412468 200.964855 62.5906021 191.20207356 58.83657837 181.43948364 C56.7565751 176.03037689 54.67628103 170.62138199 52.59594727 165.21240234 C52.18385513 164.14092453 51.771763 163.06944672 51.34718323 161.96549988 C48.82772776 155.41495256 46.30754711 148.86468471 43.78683472 142.31462097 C29.63892139 105.55124284 29.63892139 105.55124284 22.96313477 88.13037109 C22.58813339 87.15186691 22.21313202 86.17336273 21.82676697 85.16520691 C19.97415312 80.32961022 18.1239208 75.49312102 16.27783203 70.6550293 C12.795108 61.53262184 9.29362082 52.41859865 5.73443604 43.32569885 C4.0272001 38.96128039 2.32919811 34.59329615 0.63189697 30.2250061 C-0.18269864 28.13626472 -1.00184526 26.04929195 -1.82574463 23.96420288 C-2.96356949 21.08381198 -4.08578303 18.19778469 -5.20483398 15.31005859 C-5.54652115 14.45715744 -5.88820831 13.60425629 -6.24024963 12.72550964 C-9.09913547 5.26607419 -9.09913547 5.26607419 -7.41186523 1.19287109 C-4.82158117 -0.10227094 -2.90071438 0.03733765 0 0 Z " fill="#8832EE" transform="translate(52.411865234375,58.80712890625)"/>
<path d="M0 0 C0.88171875 0.18626953 1.7634375 0.37253906 2.671875 0.56445312 C4.78342171 1.01200922 6.89208204 1.47315332 9 1.9375 C9 2.2675 9 2.5975 9 2.9375 C6.69 2.9375 4.38 2.9375 2 2.9375 C1.34 4.2575 0.68 5.5775 0 6.9375 C-0.33 4.9575 -0.66 2.9775 -1 0.9375 C-2.05960938 0.94910156 -3.11921875 0.96070312 -4.2109375 0.97265625 C-5.59895658 0.98203476 -6.98697755 0.99113489 -8.375 1 C-9.07367188 1.00837891 -9.77234375 1.01675781 -10.4921875 1.02539062 C-15.7734375 1.05078125 -15.7734375 1.05078125 -18 -0.0625 C-19.7862259 -0.16770009 -21.57634772 -0.20909966 -23.3656311 -0.22071838 C-25.07362129 -0.23540161 -25.07362129 -0.23540161 -26.81611633 -0.25038147 C-28.07127548 -0.25613693 -29.32643463 -0.2618924 -30.61962891 -0.26782227 C-31.93665298 -0.27772186 -33.25367706 -0.28762146 -34.61061096 -0.29782104 C-38.22812623 -0.3249008 -41.84565458 -0.3458937 -45.46321535 -0.36582303 C-49.24156369 -0.38766368 -53.01987155 -0.41506175 -56.79818726 -0.44187927 C-63.95566551 -0.49183219 -71.11316621 -0.53676136 -78.27068841 -0.57990164 C-86.41812762 -0.62925182 -94.56552621 -0.68417816 -102.71292615 -0.73958123 C-119.47524668 -0.85344117 -136.23760441 -0.96027145 -153 -1.0625 C-153 -1.3925 -153 -1.7225 -153 -2.0625 C-136.84803008 -2.21713026 -120.69601471 -2.3651362 -104.54391479 -2.5054636 C-97.04259097 -2.57078512 -89.54129725 -2.63819573 -82.04003906 -2.71069336 C-75.49458283 -2.77394794 -68.94910392 -2.83311071 -62.40356827 -2.88755554 C-58.94446574 -2.91646558 -55.48540643 -2.9472914 -52.02636719 -2.98303413 C-15.10647361 -3.36095286 -15.10647361 -3.36095286 0 0 Z " fill="#7F36DE" transform="translate(377,120.0625)"/>
<path d="M0 0 C0.99272919 -0.00571014 1.98545837 -0.01142029 3.00827026 -0.01730347 C4.10132477 -0.01842133 5.19437927 -0.01953918 6.32055664 -0.02069092 C7.46855743 -0.02565582 8.61655823 -0.03062073 9.79934692 -0.03573608 C13.60980826 -0.05038254 17.420228 -0.05716296 21.23071289 -0.06268311 C23.86865236 -0.06843138 26.50659182 -0.07418914 29.14453125 -0.07995605 C33.97135345 -0.08952896 38.79816661 -0.0954252 43.62499714 -0.09845281 C50.73722433 -0.10293814 57.84925978 -0.1205085 64.96142864 -0.1494534 C71.11558341 -0.17363339 77.26965868 -0.18139503 83.42385864 -0.18312836 C86.04583786 -0.18616572 88.66781607 -0.19423034 91.2897644 -0.20731354 C94.94861604 -0.22427112 98.60699472 -0.22251918 102.26586914 -0.21600342 C103.35892365 -0.2252182 104.45197815 -0.23443298 105.57815552 -0.243927 C106.5708847 -0.23835785 107.56361389 -0.2327887 108.58642578 -0.22705078 C109.45215714 -0.22851734 110.31788849 -0.2299839 111.20985413 -0.2314949 C112.24111671 -0.04738619 112.24111671 -0.04738619 113.29321289 0.14044189 C114.28321289 1.62544189 114.28321289 1.62544189 115.29321289 3.14044189 C114.0375502 2.97778336 112.78188751 2.81512482 111.48817444 2.64753723 C106.04052731 2.04589088 100.64967825 2.00715469 95.17382812 2.0269165 C93.56251762 2.02669746 93.56251762 2.02669746 91.9186554 2.026474 C88.39635136 2.02716621 84.87410135 2.03492603 81.35180664 2.04278564 C78.89844288 2.04465228 76.44507875 2.04607503 73.99171448 2.04707336 C67.55560261 2.05087917 61.11951355 2.06069284 54.68341064 2.07177734 C48.10738432 2.08203319 41.53135429 2.08657991 34.95532227 2.09161377 C22.06794249 2.10231692 9.18057959 2.11936997 -3.70678711 2.14044189 C-6.01678711 8.08044189 -8.32678711 14.02044189 -10.70678711 20.14044189 C-12.00500325 16.24579346 -11.09485688 14.50804865 -9.83178711 10.64044189 C-9.46311523 9.49575439 -9.09444336 8.35106689 -8.71459961 7.17169189 C-8.04610232 5.16101788 -7.37683924 3.1505983 -6.70678711 1.14044189 C-4.27545139 -0.07522597 -2.71774754 0.00933821 0 0 Z " fill="#884ED2" transform="translate(249.706787109375,174.85955810546875)"/>
<path d="M0 0 C0.598125 0.825 1.19625 1.65 1.8125 2.5 C2.8953125 3.7375 2.8953125 3.7375 4 5 C4.99 5 5.98 5 7 5 C6.67 7.64 6.34 10.28 6 13 C6.99 13 7.98 13 9 13 C8.938125 14.03125 8.87625 15.0625 8.8125 16.125 C9.01301595 20.26899633 10.0421648 22.41063546 12 26 C12 26.99 12 27.98 12 29 C13.65 28.34 15.3 27.68 17 27 C17.6875 28.6875 17.6875 28.6875 18 31 C17.46246094 31.73605469 16.92492187 32.47210938 16.37109375 33.23046875 C14.62435817 35.99925209 14.62435817 35.99925209 15.8359375 39.2265625 C16.34382813 40.34804687 16.85171875 41.46953125 17.375 42.625 C20.09393346 48.71819961 20.09393346 48.71819961 19 52 C16.28703397 45.0793311 13.58192868 38.15562813 10.88232422 31.22973633 C9.96259347 28.87290598 9.04105065 26.51678197 8.11767578 24.16137695 C6.79245107 20.77998994 5.47371655 17.39613477 4.15625 14.01171875 C3.74064819 12.95538742 3.32504639 11.89905609 2.89685059 10.81071472 C2.5164563 9.82992447 2.13606201 8.84913422 1.74414062 7.83862305 C1.40660767 6.97480515 1.06907471 6.11098724 0.72131348 5.22099304 C0 3 0 3 0 0 Z " fill="#803FD3" transform="translate(93,190)"/>
<path d="M0 0 C1.18625854 3.55877562 0.76762264 4.28423504 -0.56713867 7.67993164 C-0.93469772 8.62844498 -1.30225677 9.57695831 -1.68095398 10.55421448 C-2.08916885 11.57917526 -2.49738373 12.60413605 -2.91796875 13.66015625 C-3.33162186 14.71980087 -3.74527496 15.7794455 -4.17146301 16.87120056 C-5.50138353 20.27180921 -6.8442916 23.66712094 -8.1875 27.0625 C-9.07441774 29.32453669 -9.96049555 31.5869029 -10.84570312 33.84960938 C-14.52753819 43.24762077 -18.2427749 52.63187193 -22 62 C-22.33 62 -22.66 62 -23 62 C-23.40538885 56.34627343 -22.23345625 52.65145634 -19.5 47.8125 C-16.69660508 42.75494488 -16.69660508 42.75494488 -16 37 C-15.01 36.505 -15.01 36.505 -14 36 C-14.226875 35.236875 -14.45375 34.47375 -14.6875 33.6875 C-14.8421875 32.3571875 -14.8421875 32.3571875 -15 31 C-14.02855436 29.97223867 -13.02391297 28.97550101 -12 28 C-9.51740926 23.9080056 -7.59830987 19.78647894 -7 15 C-6.34 15 -5.68 15 -5 15 C-4.83564453 14.00419922 -4.83564453 14.00419922 -4.66796875 12.98828125 C-3.78863977 8.09120522 -3.00548286 4.09838572 0 0 Z " fill="#7943C7" transform="translate(232,208)"/>
<path d="M0 0 C1.77670967 2.66506451 2.73817107 4.73792425 3.8034668 7.71508789 C4.14689621 8.66940201 4.49032562 9.62371613 4.84416199 10.60694885 C5.20883072 11.63513229 5.57349945 12.66331573 5.94921875 13.72265625 C6.32609329 14.77907822 6.70296783 15.83550018 7.09126282 16.92393494 C7.88601568 19.15660585 8.67853654 21.39007235 9.46899414 23.62426758 C10.68496941 27.05535949 11.91340764 30.48181971 13.14257812 33.90820312 C13.91222409 36.07524902 14.68112978 38.242558 15.44921875 40.41015625 C15.81996017 41.44036392 16.1907016 42.47057159 16.57267761 43.53199768 C17.07363701 44.95874062 17.07363701 44.95874062 17.5847168 46.41430664 C17.88290817 47.25353165 18.18109955 48.09275665 18.48832703 48.95741272 C19 51 19 51 18 53 C17.20688633 51.27149655 16.4155741 49.54216646 15.625 47.8125 C15.18414062 46.84957031 14.74328125 45.88664062 14.2890625 44.89453125 C11 37.50909091 11 37.50909091 11 34 C9.68 33.34 8.36 32.68 7 32 C7.66 30.35 8.32 28.7 9 27 C7.68 27 6.36 27 5 27 C5 26.34 5 25.68 5 25 C5.66 25 6.32 25 7 25 C7 23.68 7 22.36 7 21 C6.34 21 5.68 21 5 21 C1.72676526 13.98157575 0.29409507 7.73470033 0 0 Z " fill="#7C40D0" transform="translate(116,91)"/>
<path d="M0 0 C8.88093553 13.3214033 5.94284333 37.95171627 3.06738281 52.86938477 C2.72303323 54.58193092 2.36335114 56.2913845 2 58 C0.875 56.5 0.875 56.5 0 54 C0.47509705 52.20924958 0.95736564 50.42016126 1.47119141 48.64013672 C2.5512344 43.24789992 2.25442551 37.68765082 2.20581055 32.20678711 C2.18733638 30.04333947 2.18530277 27.88031586 2.18554688 25.71679688 C2.80545484 19.37355859 2.80545484 19.37355859 1 14 C0.76472227 11.65012738 0.58613583 9.29443961 0.4375 6.9375 C0.35371094 5.64714844 0.26992188 4.35679687 0.18359375 3.02734375 C0.12300781 2.02832031 0.06242187 1.02929688 0 0 Z " fill="#7944C3" transform="translate(450,181)"/>
<path d="M0 0 C2.5 1.0625 2.5 1.0625 5 3 C5.04574284 5.33288492 5.03824623 7.66698014 5 10 C5.85803299 12.14909197 6.88493914 14.09500042 8.02734375 16.10546875 C9 18 9 18 9.44140625 20.11328125 C9.89772692 22.39429068 9.89772692 22.39429068 13 24 C13.1875 26.625 13.1875 26.625 13 29 C14.65 29.33 16.3 29.66 18 30 C18 29.01 18 28.02 18 27 C18.66 27 19.32 27 20 27 C19.67 28.65 19.34 30.3 19 32 C16.69 32 14.38 32 12 32 C8.80225539 25.87098951 6.19261295 19.6513776 3.75 13.1875 C3.38648438 12.24712891 3.02296875 11.30675781 2.6484375 10.33789062 C2.30554688 9.43619141 1.96265625 8.53449219 1.609375 7.60546875 C1.29967773 6.79231201 0.98998047 5.97915527 0.67089844 5.14135742 C0 3 0 3 0 0 Z " fill="#7D3FCD" transform="translate(151,341)"/>
<path d="M0 0 C2.995389 4.49308351 4.42211915 9.48202352 6.1875 14.5625 C6.56841797 15.62919922 6.94933594 16.69589844 7.34179688 17.79492188 C7.69693359 18.81263672 8.05207031 19.83035156 8.41796875 20.87890625 C8.74563232 21.8129126 9.0732959 22.74691895 9.41088867 23.70922852 C10 26 10 26 9 28 C8.7525 27.38125 8.505 26.7625 8.25 26.125 C7.19262728 23.84168213 7.19262728 23.84168213 4.96484375 23.1484375 C3 22 3 22 2.42578125 19.90625 C2.38839844 19.1121875 2.35101563 18.318125 2.3125 17.5 C2.16136685 14.1213829 2.16136685 14.1213829 1 11 C0.7724985 9.12943209 0.59037189 7.25314042 0.4375 5.375 C0.35371094 4.37210938 0.26992187 3.36921875 0.18359375 2.3359375 C0.12300781 1.56507813 0.06242188 0.79421875 0 0 Z " fill="#7E40D4" transform="translate(135,144)"/>
<path d="M0 0 C11.42125964 -0.75030173 21.91540752 1.50243789 33 4 C33 4.33 33 4.66 33 5 C30.69 5 28.38 5 26 5 C25.34 6.32 24.68 7.64 24 9 C23.67 7.02 23.34 5.04 23 3 C22.01 3.02320312 21.02 3.04640625 20 3.0703125 C13.06140739 3.18269259 6.66829915 3.1774038 0 1 C0 0.67 0 0.34 0 0 Z " fill="#8342D6" transform="translate(353,118)"/>
<path d="M0 0 C3.96561928 3.62375555 6.33672454 6.99505804 8.75 11.875 C9.34296875 13.04804688 9.9359375 14.22109375 10.546875 15.4296875 C12.05772025 19.14181805 12.61579577 22.04674072 13 26 C12.34 25.67 11.68 25.34 11 25 C10.59270772 22.67843403 10.25561323 20.3431213 10 18 C9.34 18 8.68 18 8 18 C8 16.68 8 15.36 8 14 C7.34 14 6.68 14 6 14 C5.67 13.01 5.34 12.02 5 11 C4.34 10.67 3.68 10.34 3 10 C3 8.68 3 7.36 3 6 C2.34 6 1.68 6 1 6 C0.67 4.02 0.34 2.04 0 0 Z " fill="#7F3ED2" transform="translate(437,155)"/>
<path d="M0 0 C4.45500285 2.22750142 6.06057671 8.93963499 7.5625 13.4375 C7.79582031 14.18257812 8.02914062 14.92765625 8.26953125 15.6953125 C8.77339002 17.28502733 9.31499022 18.86310096 9.88671875 20.4296875 C10.17160156 21.21601563 10.45648438 22.00234375 10.75 22.8125 C11.01296875 23.52019531 11.2759375 24.22789062 11.546875 24.95703125 C12.07228317 27.32589738 11.6501946 28.69577523 11 31 C9.42920342 26.90818124 7.86273669 22.81473984 6.30029297 18.71972656 C5.7679579 17.32636632 5.23443423 15.9334596 4.69970703 14.54101562 C3.93210244 12.54154094 3.16876212 10.54048383 2.40625 8.5390625 C1.94541016 7.33459473 1.48457031 6.13012695 1.00976562 4.88916016 C0 2 0 2 0 0 Z " fill="#7E43CC" transform="translate(79,154)"/>
<path d="M0 0 C0.97591583 3.38317487 0.85856655 5.5657338 0 9 C-0.66 9 -1.32 9 -2 9 C-1.87625 10.5159375 -1.87625 10.5159375 -1.75 12.0625 C-1.99863996 15.97857929 -2.82755742 17.95423603 -4.91015625 21.22265625 C-6.62000583 24.01112062 -7.76558196 26.9756758 -9 30 C-10.30744627 26.07766119 -9.36717438 24.6321993 -7.91015625 20.80078125 C-7.45576172 19.59228516 -7.00136719 18.38378906 -6.53320312 17.13867188 C-6.04316812 15.86320463 -5.55293113 14.58781498 -5.0625 13.3125 C-4.5753229 12.02571173 -4.08898441 10.73860562 -3.60351562 9.45117188 C-2.41057302 6.29755134 -1.20910009 3.1474535 0 0 Z " fill="#7D45C9" transform="translate(183,184)"/>
<path d="M0 0 C0.66 0 1.32 0 2 0 C5.42857143 8.42857143 5.42857143 8.42857143 5 13 C5.66 13 6.32 13 7 13 C7.12117188 13.63808594 7.24234375 14.27617188 7.3671875 14.93359375 C7.53476562 15.75988281 7.70234375 16.58617188 7.875 17.4375 C8.11863281 18.67306641 8.11863281 18.67306641 8.3671875 19.93359375 C8.57601562 20.61550781 8.78484375 21.29742187 9 22 C9.66 22.33 10.32 22.66 11 23 C11 24.98 11 26.96 11 29 C8.00172523 24.50258785 6.33227139 19.5216244 4.375 14.5 C3.95476563 13.44167969 3.53453125 12.38335937 3.1015625 11.29296875 C2.70453125 10.27847656 2.3075 9.26398438 1.8984375 8.21875 C1.53411621 7.28998047 1.16979492 6.36121094 0.79443359 5.40429688 C0 3 0 3 0 0 Z " fill="#7F43CD" transform="translate(52,83)"/>
<path d="M0 0 C2.62304778 3.93457167 4.00774819 8.0755672 5.625 12.5 C5.94984375 13.36753906 6.2746875 14.23507813 6.609375 15.12890625 C7.06957031 16.37994141 7.06957031 16.37994141 7.5390625 17.65625 C7.81959473 18.41744141 8.10012695 19.17863281 8.38916016 19.96289062 C9 22 9 22 9 25 C8.34 25 7.68 25 7 25 C6.67 24.01 6.34 23.02 6 22 C5.34 21.34 4.68 20.68 4 20 C4 18.68 4 17.36 4 16 C3.34 15.67 2.68 15.34 2 15 C2.04125 14.0925 2.0825 13.185 2.125 12.25 C2.00006524 9.00169619 1.43843537 7.78696853 0 5 C-0.125 2.25 -0.125 2.25 0 0 Z " fill="#7B3DCF" transform="translate(152,192)"/>
<path d="M0 0 C2.97 0 5.94 0 9 0 C9.33 0.66 9.66 1.32 10 2 C11.65 2 13.3 2 15 2 C15.2475 2.556875 15.495 3.11375 15.75 3.6875 C17.21606015 6.39971127 19.02989471 8.63587365 21 11 C20.67 11.66 20.34 12.32 20 13 C19.56171875 12.55269531 19.1234375 12.10539063 18.671875 11.64453125 C13.07400712 6.30835231 7.22823589 3.61421198 0 1 C0 0.67 0 0.34 0 0 Z " fill="#7C3ED0" transform="translate(367,178)"/>
<path d="M0 0 C0.33 0 0.66 0 1 0 C2.0480427 5.24021352 2.0480427 5.24021352 2 8 C0.1875 10.0625 0.1875 10.0625 -2 12 C-3.27765265 15.63543901 -3.27765265 15.63543901 -4 19 C-6.475 18.01 -6.475 18.01 -9 17 C-8.67 15.35 -8.34 13.7 -8 12 C-7.01 13.485 -7.01 13.485 -6 15 C-5.18618205 13.06305322 -4.37399084 11.12542289 -3.5625 9.1875 C-3.11003906 8.10855469 -2.65757812 7.02960938 -2.19140625 5.91796875 C-1.39624987 3.9704874 -0.66520352 1.99561057 0 0 Z " fill="#7B3DD3" transform="translate(172,214)"/>
<path d="M0 0 C1.24452234 3.73356702 0.57603411 4.7361346 -0.87109375 8.32421875 C-1.28037109 9.35224609 -1.68964844 10.38027344 -2.11132812 11.43945312 C-2.54896484 12.51130859 -2.98660156 13.58316406 -3.4375 14.6875 C-4.0881543 16.31268555 -4.0881543 16.31268555 -4.75195312 17.97070312 C-5.82628416 20.65062779 -6.90924853 23.32672595 -8 26 C-8.94314127 22.58389775 -9.08065117 19.54865136 -9 16 C-7.68 15.67 -6.36 15.34 -5 15 C-4.67 12.36 -4.34 9.72 -4 7 C-3.34 7 -2.68 7 -2 7 C-1.855625 6.030625 -1.71125 5.06125 -1.5625 4.0625 C-1 1 -1 1 0 0 Z " fill="#7B43C5" transform="translate(181,340)"/>
<path d="M0 0 C0.33 0 0.66 0 1 0 C1.05872928 3.8124338 1.09383916 7.62474906 1.125 11.4375 C1.14175781 12.50677734 1.15851563 13.57605469 1.17578125 14.67773438 C1.21520778 21.12397159 0.66458433 26.76763898 -1 33 C-2.89216337 29.80395607 -3.06765587 29.28832782 -2.1640625 25.4375 C-1.96329102 24.74269531 -1.76251953 24.04789063 -1.55566406 23.33203125 C-0.5130458 18.95633279 -0.52330406 14.48001859 -0.375 10 C-0.33632813 9.03449219 -0.29765625 8.06898438 -0.2578125 7.07421875 C-0.16443059 4.7163256 -0.07865671 2.35842244 0 0 Z " fill="#823ED2" transform="translate(453,206)"/>
<path d="M0 0 C0.99 0 1.98 0 3 0 C3.18175781 0.85464844 3.36351562 1.70929688 3.55078125 2.58984375 C3.80214844 3.69457031 4.05351562 4.79929687 4.3125 5.9375 C4.55613281 7.03964844 4.79976562 8.14179688 5.05078125 9.27734375 C5.36402344 10.17582031 5.67726562 11.07429688 6 12 C6.99 12.33 7.98 12.66 9 13 C9.6875 15.0625 9.6875 15.0625 10 17 C9.34 17 8.68 17 8 17 C7.67 17.99 7.34 18.98 7 20 C5.8278551 17.04380781 4.66322524 14.08471211 3.5 11.125 C3.16613281 10.28324219 2.83226562 9.44148438 2.48828125 8.57421875 C2.01455078 7.36572266 2.01455078 7.36572266 1.53125 6.1328125 C1.23798828 5.38918457 0.94472656 4.64555664 0.64257812 3.87939453 C0 2 0 2 0 0 Z " fill="#7D3ED2" transform="translate(132,292)"/>
<path d="M0 0 C0.33 0 0.66 0 1 0 C1 4.33333333 1 8.66666667 1 13 C0.01 13.495 0.01 13.495 -1 14 C-1.33 14.66 -1.66 15.32 -2 16 C-2.99 16 -3.98 16 -5 16 C-3.41078475 10.63904723 -1.81027062 5.29156027 0 0 Z " fill="#8239DB" transform="translate(197,144)"/>
<path d="M0 0 C0.99 0 1.98 0 3 0 C3.33 0.99 3.66 1.98 4 3 C4.66 3.33 5.32 3.66 6 4 C6 7.63 6 11.26 6 15 C3.61874536 12.61874536 2.99813759 10.66142433 1.875 7.5 C1.52179688 6.5203125 1.16859375 5.540625 0.8046875 4.53125 C0 2 0 2 0 0 Z " fill="#7F3ED6" transform="translate(145,326)"/>
<path d="M0 0 C1 2 1 2 0.47094727 3.87939453 C0.17244873 4.62302246 -0.1260498 5.36665039 -0.43359375 6.1328125 C-0.75263672 6.93847656 -1.07167969 7.74414062 -1.40039062 8.57421875 C-1.91375977 9.83685547 -1.91375977 9.83685547 -2.4375 11.125 C-2.77587891 11.97449219 -3.11425781 12.82398438 -3.46289062 13.69921875 C-4.30176957 15.80232371 -5.14771125 17.90230155 -6 20 C-6.33 20 -6.66 20 -7 20 C-6.67 16.7 -6.34 13.4 -6 10 C-5.01 9.67 -4.02 9.34 -3 9 C-2.87625 8.071875 -2.7525 7.14375 -2.625 6.1875 C-2 3 -2 3 0 0 Z " fill="#7A3FCC" transform="translate(194,307)"/>
<path d="M0 0 C0.66 0 1.32 0 2 0 C1.39124245 4.60416626 0.15277044 8.56483324 -1.5625 12.875 C-2.01753906 14.02742187 -2.47257813 15.17984375 -2.94140625 16.3671875 C-3.29074219 17.23601562 -3.64007813 18.10484375 -4 19 C-5.29821615 15.10535156 -4.38806977 13.36760676 -3.125 9.5 C-2.75632813 8.3553125 -2.38765625 7.210625 -2.0078125 6.03125 C-1.33931521 4.02057598 -0.67005213 2.0101564 0 0 Z " fill="#7D40CD" transform="translate(243,176)"/>
<path d="M0 0 C0.33 0 0.66 0 1 0 C1.0270043 1.45823212 1.04639787 2.91660675 1.0625 4.375 C1.07410156 5.18710938 1.08570313 5.99921875 1.09765625 6.8359375 C1 9 1 9 0 11 C-0.66 11 -1.32 11 -2 11 C-2.33 12.65 -2.66 14.3 -3 16 C-3.66 16 -4.32 16 -5 16 C-4.54548816 14.26982492 -4.08621143 12.54090123 -3.625 10.8125 C-3.36976563 9.84957031 -3.11453125 8.88664063 -2.8515625 7.89453125 C-2.05233704 5.17789793 -1.0968638 2.60862825 0 0 Z " fill="#7F40D4" transform="translate(189,167)"/>
<path d="M0 0 C0.66 0.33 1.32 0.66 2 1 C1.67 1.845625 1.34 2.69125 1 3.5625 C-0.06105954 7.20989216 -0.15109013 10.22274664 0 14 C-4.15189873 7.7721519 -4.15189873 7.7721519 -3.8125 3.8125 C-3 2 -3 2 0 0 Z " fill="#803FD9" transform="translate(69,114)"/>
<path d="M0 0 C0.66 0 1.32 0 2 0 C2 1.32 2 2.64 2 4 C3.32 4.66 4.64 5.32 6 6 C6 8.97 6 11.94 6 15 C3.61874536 12.61874536 2.99813759 10.66142433 1.875 7.5 C1.52179688 6.5203125 1.16859375 5.540625 0.8046875 4.53125 C0 2 0 2 0 0 Z " fill="#7F41D2" transform="translate(69,128)"/>
<path d="M0 0 C3.7602985 0.58107632 6.53035032 1.65199496 9.8125 3.5625 C10.60269531 4.01753906 11.39289063 4.47257813 12.20703125 4.94140625 C12.79871094 5.29074219 13.39039063 5.64007813 14 6 C12.02 6.99 12.02 6.99 10 8 C9.67 7.01 9.34 6.02 9 5 C7.35 5 5.7 5 4 5 C4 4.34 4 3.68 4 3 C2.68 2.34 1.36 1.68 0 1 C0 0.67 0 0.34 0 0 Z " fill="#7E40D0" transform="translate(401,128)"/>
<path d="M0 0 C1.29023718 3.87071154 0.39933574 4.94112355 -1.3125 8.5625 C-1.98732422 10.01849609 -1.98732422 10.01849609 -2.67578125 11.50390625 C-4 14 -4 14 -6 16 C-6.25 12.75 -6.25 12.75 -6 9 C-4.125 6.875 -4.125 6.875 -2 5 C-0.74563813 2.36777038 -0.74563813 2.36777038 0 0 Z " fill="#7D42D0" transform="translate(449,243)"/>
<path d="M0 0 C1.91385532 2.87078299 2.96432952 5.33411656 4.125 8.5625 C4.47820312 9.53316406 4.83140625 10.50382813 5.1953125 11.50390625 C6 14 6 14 6 16 C5.34 16 4.68 16 4 16 C3.67 15.01 3.34 14.02 3 13 C2.34 12.67 1.68 12.34 1 12 C0.5859375 9.27734375 0.5859375 9.27734375 0.375 5.9375 C0.30023438 4.83277344 0.22546875 3.72804687 0.1484375 2.58984375 C0.09945312 1.73519531 0.05046875 0.88054687 0 0 Z " fill="#793FD3" transform="translate(146,175)"/>
<path d="M0 0 C3.16532451 1.58266225 3.58369064 4.76444118 4.6875 7.9375 C4.92533203 8.58396484 5.16316406 9.23042969 5.40820312 9.89648438 C6.00302158 11.5762796 6.50797995 13.28727198 7 15 C6.67 15.66 6.34 16.32 6 17 C3.38038881 15.06376564 3.00560604 14.03239046 2.4375 10.75 C2.293125 9.5125 2.14875 8.275 2 7 C1.41239656 4.63581426 0.71349839 2.3307614 0 0 Z " fill="#7A41CA" transform="translate(104,60)"/>
<path d="M0 0 C1.27597072 3.82791215 0.86635876 6.06806407 0 10 C-1.17480594 12.18724032 -2.49473152 14.00916104 -4 16 C-5 14 -5 14 -4.00390625 10.7421875 C-3.53110016 9.4502948 -3.05028031 8.16131362 -2.5625 6.875 C-2.31951172 6.21628906 -2.07652344 5.55757812 -1.82617188 4.87890625 C-1.22421679 3.25008662 -0.61297588 1.62470425 0 0 Z " fill="#7F45C9" transform="translate(203,128)"/>
<path d="M0 0 C0.598125 0.825 1.19625 1.65 1.8125 2.5 C2.8953125 3.7375 2.8953125 3.7375 4 5 C4.99 5 5.98 5 7 5 C7 6.65 7 8.3 7 10 C6.01 10.495 6.01 10.495 5 11 C2.27042661 8.64264116 1.11106604 6.41866474 0 3 C0 2.01 0 1.02 0 0 Z " fill="#823BDB" transform="translate(93,190)"/>
<path d="M0 0 C2.97 0.495 2.97 0.495 6 1 C5.34 1.66 4.68 2.32 4 3 C3.54188325 4.97235333 3.54188325 4.97235333 3.375 7.125 C3.25125 8.40375 3.1275 9.6825 3 11 C0.60236815 8.60236815 0.65719414 7.66726502 0.375 4.375 C0.30023438 3.55773437 0.22546875 2.74046875 0.1484375 1.8984375 C0.09945312 1.27195313 0.05046875 0.64546875 0 0 Z " fill="#843CDF" transform="translate(90,179)"/>
<path d="M0 0 C2.31 0 4.62 0 7 0 C7 0.33 7 0.66 7 1 C5.35 1 3.7 1 2 1 C2 1.99 2 2.98 2 4 C1.34 4 0.68 4 0 4 C-0.12375 4.639375 -0.2475 5.27875 -0.375 5.9375 C-0.58125 6.618125 -0.7875 7.29875 -1 8 C-1.99 8.495 -1.99 8.495 -3 9 C-2.01 6.03 -1.02 3.06 0 0 Z " fill="#7D40D0" transform="translate(207,118)"/>
<path d="M0 0 C1.32 0.33 2.64 0.66 4 1 C0.7 3.31 -2.6 5.62 -6 8 C-6.33 7.34 -6.66 6.68 -7 6 C-4.82575883 3.49962266 -3.26954202 2.56371414 0 2 C0 1.34 0 0.68 0 0 Z " fill="#7D3ED0" transform="translate(423,279)"/>
<path d="M0 0 C0.33 0.99 0.66 1.98 1 3 C0.67 3.66 0.34 4.32 0 5 C-2.31 5 -4.62 5 -7 5 C-7 4.34 -7 3.68 -7 3 C-4.69 2.01 -2.38 1.02 0 0 Z " fill="#7E3DD6" transform="translate(378,240)"/>
<path d="M0 0 C0.33 0 0.66 0 1 0 C1 2.97 1 5.94 1 9 C-0.65 9.33 -2.3 9.66 -4 10 C-2.68 6.7 -1.36 3.4 0 0 Z " fill="#7D3FCE" transform="translate(393,221)"/>
<path d="M0 0 C0.99 0 1.98 0 3 0 C2.44894091 3.9492568 1.61064629 7.34920174 0 11 C-1.04028969 7.61905851 -1.15672777 4.52637472 -1 1 C-0.67 0.67 -0.34 0.34 0 0 Z " fill="#7D3DD3" transform="translate(173,355)"/>
<path d="M0 0 C0.25 5.625 0.25 5.625 -2 9 C-2.99 8.67 -3.98 8.34 -5 8 C-4.34 8 -3.68 8 -3 8 C-3.226875 7.236875 -3.45375 6.47375 -3.6875 5.6875 C-4 3 -4 3 -2.625 1.1875 C-1 0 -1 0 0 0 Z " fill="#8039DC" transform="translate(221,236)"/>
<path d="M0 0 C1.32 0.33 2.64 0.66 4 1 C3.67 2.32 3.34 3.64 3 5 C3.66 5.33 4.32 5.66 5 6 C4.01 7.485 4.01 7.485 3 9 C0 2.25 0 2.25 0 0 Z " fill="#7C35E2" transform="translate(387,187)"/>
<path d="M0 0 C0.33 0 0.66 0 1 0 C0.67 3.3 0.34 6.6 0 10 C-0.99 10.33 -1.98 10.66 -3 11 C-2.01 7.37 -1.02 3.74 0 0 Z " fill="#7D42D0" transform="translate(197,144)"/>
<path d="M0 0 C0.99 0.33 1.98 0.66 3 1 C0.69 3.31 -1.62 5.62 -4 8 C-4.33 7.34 -4.66 6.68 -5 6 C-4.67 5.01 -4.34 4.02 -4 3 C-3.01 2.67 -2.02 2.34 -1 2 C-0.67 1.34 -0.34 0.68 0 0 Z " fill="#7E42CA" transform="translate(432,271)"/>
<path d="M0 0 C0.66 0.99 1.32 1.98 2 3 C0.625 6.6875 0.625 6.6875 -1 10 C-1.33 10 -1.66 10 -2 10 C-2.25 3.375 -2.25 3.375 0 0 Z " fill="#7738D5" transform="translate(211,260)"/>
<path d="M0 0 C0.66 0 1.32 0 2 0 C1.67 3.3 1.34 6.6 1 10 C0.67 10 0.34 10 0 10 C-0.19412181 8.52168779 -0.38012131 7.04230684 -0.5625 5.5625 C-0.66691406 4.73878906 -0.77132812 3.91507812 -0.87890625 3.06640625 C-0.91886719 2.38449219 -0.95882812 1.70257813 -1 1 C-0.67 0.67 -0.34 0.34 0 0 Z " fill="#8436E3" transform="translate(201,281)"/>
<path d="M0 0 C0.66 0 1.32 0 2 0 C3.46726798 3.81489674 2.43336419 6.29011622 1 10 C-0.1577506 6.52674819 -0.06866652 3.63932552 0 0 Z " fill="#8337DE" transform="translate(441,252)"/>
</svg>
