<svg width="596" height="579" viewBox="0 0 596 579" fill="none" xmlns="http://www.w3.org/2000/svg">
<line x1="88" y1="11" x2="588" y2="11" stroke="#F0A8D0" stroke-width="20"/>
<line x1="91" y1="491" x2="591" y2="491" stroke="#F0A8D0" stroke-width="20"/>
<line x1="578" y1="0.921877" x2="581.906" y2="500.907" stroke="#F0A8D0" stroke-width="20"/>
<path d="M98 4.99998L100.814 284.986" stroke="#F0A8D0" stroke-width="20"/>
<line x1="99.9995" y1="403.9" x2="100.803" y2="483.895" stroke="#F0A8D0" stroke-width="20"/>
<path d="M22.6364 383H2.18182L25.2273 313.182H51.1364L74.1818 383H53.7273L38.4545 332.409H37.9091L22.6364 383ZM18.8182 355.455H57.2727V369.636H18.8182V355.455ZM117.37 383H90.5062V313.182H117.097C124.279 313.182 130.484 314.58 135.711 317.375C140.961 320.148 145.006 324.148 147.847 329.375C150.711 334.58 152.143 340.818 152.143 348.091C152.143 355.364 150.722 361.614 147.881 366.841C145.04 372.045 141.018 376.045 135.813 378.841C130.609 381.614 124.461 383 117.37 383ZM109.461 366.909H116.688C120.143 366.909 123.086 366.352 125.518 365.239C127.972 364.125 129.836 362.205 131.109 359.477C132.404 356.75 133.052 352.955 133.052 348.091C133.052 343.227 132.393 339.432 131.074 336.705C129.779 333.977 127.87 332.057 125.347 330.943C122.847 329.83 119.779 329.273 116.143 329.273H109.461V366.909ZM189.467 313.182V383H170.512V313.182H189.467ZM245.686 335C245.505 332.727 244.652 330.955 243.13 329.682C241.63 328.409 239.345 327.773 236.277 327.773C234.323 327.773 232.72 328.011 231.47 328.489C230.243 328.943 229.334 329.568 228.743 330.364C228.152 331.159 227.845 332.068 227.823 333.091C227.777 333.932 227.925 334.693 228.266 335.375C228.63 336.034 229.198 336.636 229.97 337.182C230.743 337.705 231.732 338.182 232.936 338.614C234.141 339.045 235.573 339.432 237.232 339.773L242.959 341C246.823 341.818 250.13 342.898 252.88 344.239C255.63 345.58 257.88 347.159 259.63 348.977C261.38 350.773 262.664 352.795 263.482 355.045C264.323 357.295 264.755 359.75 264.777 362.409C264.755 367 263.607 370.886 261.334 374.068C259.061 377.25 255.811 379.67 251.584 381.33C247.38 382.989 242.323 383.818 236.414 383.818C230.345 383.818 225.05 382.92 220.527 381.125C216.027 379.33 212.527 376.568 210.027 372.841C207.55 369.091 206.3 364.295 206.277 358.455H224.277C224.391 360.591 224.925 362.386 225.88 363.841C226.834 365.295 228.175 366.398 229.902 367.148C231.652 367.898 233.732 368.273 236.141 368.273C238.164 368.273 239.857 368.023 241.22 367.523C242.584 367.023 243.618 366.33 244.323 365.443C245.027 364.557 245.391 363.545 245.414 362.409C245.391 361.341 245.039 360.409 244.357 359.614C243.698 358.795 242.607 358.068 241.084 357.432C239.561 356.773 237.505 356.159 234.914 355.591L227.959 354.091C221.777 352.75 216.902 350.511 213.334 347.375C209.789 344.216 208.027 339.909 208.05 334.455C208.027 330.023 209.209 326.148 211.595 322.83C214.005 319.489 217.334 316.886 221.584 315.023C225.857 313.159 230.755 312.227 236.277 312.227C241.914 312.227 246.789 313.17 250.902 315.057C255.016 316.943 258.186 319.602 260.414 323.034C262.664 326.443 263.8 330.432 263.823 335H245.686Z" fill="#F0A8D0"/>
<path d="M98.5455 532H91.7273L99.4091 508.727H108.045L115.727 532H108.909L103.818 515.136H103.636L98.5455 532ZM97.2727 522.818H110.091V527.545H97.2727V522.818ZM134.603 532H125.649V508.727H134.512C136.906 508.727 138.975 509.193 140.717 510.125C142.467 511.049 143.815 512.383 144.762 514.125C145.717 515.86 146.194 517.939 146.194 520.364C146.194 522.788 145.721 524.871 144.774 526.614C143.827 528.348 142.486 529.682 140.751 530.614C139.016 531.538 136.967 532 134.603 532ZM131.967 526.636H134.376C135.528 526.636 136.509 526.451 137.319 526.08C138.137 525.708 138.759 525.068 139.183 524.159C139.615 523.25 139.831 521.985 139.831 520.364C139.831 518.742 139.611 517.477 139.171 516.568C138.74 515.659 138.103 515.019 137.262 514.648C136.429 514.277 135.406 514.091 134.194 514.091H131.967V526.636ZM163.116 508.727V532H156.798V508.727H163.116ZM186.335 516C186.275 515.242 185.991 514.652 185.483 514.227C184.983 513.803 184.222 513.591 183.199 513.591C182.548 513.591 182.013 513.67 181.597 513.83C181.188 513.981 180.885 514.189 180.688 514.455C180.491 514.72 180.388 515.023 180.381 515.364C180.366 515.644 180.415 515.898 180.529 516.125C180.65 516.345 180.839 516.545 181.097 516.727C181.354 516.902 181.684 517.061 182.085 517.205C182.487 517.348 182.964 517.477 183.517 517.591L185.426 518C186.714 518.273 187.817 518.633 188.733 519.08C189.65 519.527 190.4 520.053 190.983 520.659C191.567 521.258 191.995 521.932 192.267 522.682C192.548 523.432 192.692 524.25 192.699 525.136C192.692 526.667 192.309 527.962 191.551 529.023C190.794 530.083 189.71 530.89 188.301 531.443C186.9 531.996 185.214 532.273 183.245 532.273C181.222 532.273 179.457 531.973 177.949 531.375C176.449 530.777 175.282 529.856 174.449 528.614C173.623 527.364 173.207 525.765 173.199 523.818H179.199C179.237 524.53 179.415 525.129 179.733 525.614C180.051 526.098 180.498 526.466 181.074 526.716C181.657 526.966 182.351 527.091 183.154 527.091C183.828 527.091 184.392 527.008 184.847 526.841C185.301 526.674 185.646 526.443 185.881 526.148C186.116 525.852 186.237 525.515 186.245 525.136C186.237 524.78 186.12 524.47 185.892 524.205C185.673 523.932 185.309 523.689 184.801 523.477C184.294 523.258 183.608 523.053 182.745 522.864L180.426 522.364C178.366 521.917 176.741 521.17 175.551 520.125C174.37 519.072 173.782 517.636 173.79 515.818C173.782 514.341 174.176 513.049 174.972 511.943C175.775 510.83 176.885 509.962 178.301 509.341C179.726 508.72 181.358 508.409 183.199 508.409C185.078 508.409 186.703 508.723 188.074 509.352C189.445 509.981 190.502 510.867 191.245 512.011C191.995 513.148 192.373 514.477 192.381 516H186.335ZM225.792 532H216.838V508.727H225.701C228.095 508.727 230.163 509.193 231.906 510.125C233.656 511.049 235.004 512.383 235.951 514.125C236.906 515.86 237.383 517.939 237.383 520.364C237.383 522.788 236.909 524.871 235.963 526.614C235.016 528.348 233.675 529.682 231.94 530.614C230.205 531.538 228.156 532 225.792 532ZM223.156 526.636H225.565C226.716 526.636 227.697 526.451 228.508 526.08C229.326 525.708 229.947 525.068 230.372 524.159C230.803 523.25 231.019 521.985 231.019 520.364C231.019 518.742 230.8 517.477 230.36 516.568C229.928 515.659 229.292 515.019 228.451 514.648C227.618 514.277 226.595 514.091 225.383 514.091H223.156V526.636ZM247.986 532V508.727H264.759V513.818H254.304V517.818H263.895V522.909H254.304V526.909H264.714V532H247.986ZM281.936 508.727L286.709 525.136H286.891L291.663 508.727H298.8L291.118 532H282.482L274.8 508.727H281.936ZM308.721 532V508.727H325.494V513.818H315.039V517.818H324.63V522.909H315.039V526.909H325.449V532H308.721ZM336.307 532V508.727H342.626V526.909H352.035V532H336.307ZM383.908 520.364C383.908 522.955 383.404 525.14 382.397 526.92C381.389 528.693 380.029 530.038 378.317 530.955C376.605 531.864 374.696 532.318 372.59 532.318C370.469 532.318 368.552 531.86 366.84 530.943C365.135 530.019 363.779 528.67 362.772 526.898C361.772 525.117 361.272 522.939 361.272 520.364C361.272 517.773 361.772 515.591 362.772 513.818C363.779 512.038 365.135 510.693 366.84 509.784C368.552 508.867 370.469 508.409 372.59 508.409C374.696 508.409 376.605 508.867 378.317 509.784C380.029 510.693 381.389 512.038 382.397 513.818C383.404 515.591 383.908 517.773 383.908 520.364ZM377.408 520.364C377.408 518.97 377.222 517.795 376.851 516.841C376.487 515.879 375.946 515.152 375.226 514.659C374.514 514.159 373.635 513.909 372.59 513.909C371.544 513.909 370.662 514.159 369.942 514.659C369.23 515.152 368.688 515.879 368.317 516.841C367.953 517.795 367.772 518.97 367.772 520.364C367.772 521.758 367.953 522.936 368.317 523.898C368.688 524.852 369.23 525.58 369.942 526.08C370.662 526.572 371.544 526.818 372.59 526.818C373.635 526.818 374.514 526.572 375.226 526.08C375.946 525.58 376.487 524.852 376.851 523.898C377.222 522.936 377.408 521.758 377.408 520.364ZM394.511 532V508.727H404.557C406.284 508.727 407.795 509.068 409.091 509.75C410.386 510.432 411.394 511.39 412.114 512.625C412.833 513.86 413.193 515.303 413.193 516.955C413.193 518.621 412.822 520.064 412.079 521.284C411.345 522.504 410.311 523.443 408.977 524.102C407.651 524.761 406.102 525.091 404.329 525.091H398.329V520.182H403.057C403.799 520.182 404.432 520.053 404.954 519.795C405.485 519.53 405.89 519.155 406.17 518.67C406.458 518.186 406.602 517.614 406.602 516.955C406.602 516.288 406.458 515.72 406.17 515.25C405.89 514.773 405.485 514.409 404.954 514.159C404.432 513.902 403.799 513.773 403.057 513.773H400.829V532H394.511ZM423.191 508.727H431.055L436.464 521.909H436.737L442.146 508.727H450.009V532H443.828V518.545H443.646L438.464 531.818H434.737L429.555 518.455H429.373V532H423.191V508.727ZM460.684 532V508.727H477.456V513.818H467.002V517.818H476.593V522.909H467.002V526.909H477.411V532H460.684ZM508.406 508.727V532H503.134L494.725 519.773H494.588V532H488.27V508.727H493.634L501.906 520.909H502.088V508.727H508.406ZM518.439 513.818V508.727H538.666V513.818H531.666V532H525.439V513.818H518.439ZM98.8182 547.727V571H92.5V547.727H98.8182ZM125.149 547.727V571H119.876L111.467 558.773H111.331V571H105.012V547.727H110.376L118.649 559.909H118.831V547.727H125.149ZM131.338 571V547.727H147.701V552.818H137.656V556.818H146.701V561.909H137.656V571H131.338ZM153.225 571V547.727H163.27C164.998 547.727 166.509 548.042 167.805 548.67C169.1 549.299 170.108 550.205 170.827 551.386C171.547 552.568 171.907 553.985 171.907 555.636C171.907 557.303 171.536 558.708 170.793 559.852C170.058 560.996 169.024 561.86 167.691 562.443C166.365 563.027 164.816 563.318 163.043 563.318H157.043V558.409H161.77C162.513 558.409 163.145 558.318 163.668 558.136C164.198 557.947 164.604 557.648 164.884 557.239C165.172 556.83 165.316 556.295 165.316 555.636C165.316 554.97 165.172 554.428 164.884 554.011C164.604 553.587 164.198 553.277 163.668 553.08C163.145 552.875 162.513 552.773 161.77 552.773H159.543V571H153.225ZM166.861 560.318L172.68 571H165.816L160.134 560.318H166.861ZM183.845 571H177.027L184.709 547.727H193.345L201.027 571H194.209L189.118 554.136H188.936L183.845 571ZM182.573 561.818H195.391V566.545H182.573V561.818ZM218.108 555C218.047 554.242 217.763 553.652 217.256 553.227C216.756 552.803 215.994 552.591 214.972 552.591C214.32 552.591 213.786 552.67 213.369 552.83C212.96 552.981 212.657 553.189 212.46 553.455C212.263 553.72 212.161 554.023 212.153 554.364C212.138 554.644 212.188 554.898 212.301 555.125C212.422 555.345 212.612 555.545 212.869 555.727C213.127 555.902 213.456 556.061 213.858 556.205C214.259 556.348 214.737 556.477 215.29 556.591L217.199 557C218.487 557.273 219.589 557.633 220.506 558.08C221.422 558.527 222.172 559.053 222.756 559.659C223.339 560.258 223.767 560.932 224.04 561.682C224.32 562.432 224.464 563.25 224.472 564.136C224.464 565.667 224.081 566.962 223.324 568.023C222.566 569.083 221.483 569.89 220.074 570.443C218.672 570.996 216.987 571.273 215.017 571.273C212.994 571.273 211.229 570.973 209.722 570.375C208.222 569.777 207.055 568.856 206.222 567.614C205.396 566.364 204.979 564.765 204.972 562.818H210.972C211.009 563.53 211.188 564.129 211.506 564.614C211.824 565.098 212.271 565.466 212.847 565.716C213.43 565.966 214.123 566.091 214.926 566.091C215.6 566.091 216.165 566.008 216.619 565.841C217.074 565.674 217.419 565.443 217.653 565.148C217.888 564.852 218.009 564.515 218.017 564.136C218.009 563.78 217.892 563.47 217.665 563.205C217.445 562.932 217.081 562.689 216.574 562.477C216.066 562.258 215.381 562.053 214.517 561.864L212.199 561.364C210.138 560.917 208.513 560.17 207.324 559.125C206.142 558.072 205.555 556.636 205.562 554.818C205.555 553.341 205.949 552.049 206.744 550.943C207.547 549.83 208.657 548.962 210.074 548.341C211.498 547.72 213.131 547.409 214.972 547.409C216.85 547.409 218.475 547.723 219.847 548.352C221.218 548.981 222.275 549.867 223.017 551.011C223.767 552.148 224.146 553.477 224.153 555H218.108ZM229.439 552.818V547.727H249.666V552.818H242.666V571H236.439V552.818H229.439ZM255.244 571V547.727H265.289C267.016 547.727 268.528 548.042 269.823 548.67C271.119 549.299 272.126 550.205 272.846 551.386C273.566 552.568 273.926 553.985 273.926 555.636C273.926 557.303 273.554 558.708 272.812 559.852C272.077 560.996 271.043 561.86 269.71 562.443C268.384 563.027 266.835 563.318 265.062 563.318H259.062V558.409H263.789C264.532 558.409 265.164 558.318 265.687 558.136C266.217 557.947 266.623 557.648 266.903 557.239C267.191 556.83 267.335 556.295 267.335 555.636C267.335 554.97 267.191 554.428 266.903 554.011C266.623 553.587 266.217 553.277 265.687 553.08C265.164 552.875 264.532 552.773 263.789 552.773H261.562V571H255.244ZM268.88 560.318L274.698 571H267.835L262.153 560.318H268.88ZM293.591 547.727H299.91V562.636C299.91 564.409 299.485 565.943 298.637 567.239C297.796 568.527 296.622 569.523 295.114 570.227C293.607 570.924 291.857 571.273 289.864 571.273C287.857 571.273 286.099 570.924 284.591 570.227C283.084 569.523 281.91 568.527 281.069 567.239C280.235 565.943 279.819 564.409 279.819 562.636V547.727H286.137V562.091C286.137 562.811 286.296 563.455 286.614 564.023C286.932 564.583 287.372 565.023 287.932 565.341C288.501 565.659 289.145 565.818 289.864 565.818C290.591 565.818 291.235 565.659 291.796 565.341C292.357 565.023 292.796 564.583 293.114 564.023C293.432 563.455 293.591 562.811 293.591 562.091V547.727ZM327.84 556.455H321.431C321.385 555.924 321.264 555.443 321.067 555.011C320.878 554.58 320.613 554.208 320.272 553.898C319.938 553.58 319.533 553.337 319.056 553.17C318.578 552.996 318.037 552.909 317.431 552.909C316.37 552.909 315.472 553.167 314.738 553.682C314.01 554.197 313.457 554.936 313.078 555.898C312.707 556.86 312.522 558.015 312.522 559.364C312.522 560.788 312.711 561.981 313.09 562.943C313.476 563.898 314.033 564.617 314.76 565.102C315.488 565.58 316.363 565.818 317.385 565.818C317.969 565.818 318.491 565.746 318.953 565.602C319.416 565.451 319.817 565.235 320.158 564.955C320.499 564.674 320.775 564.337 320.988 563.943C321.207 563.542 321.355 563.091 321.431 562.591L327.84 562.636C327.764 563.621 327.488 564.625 327.01 565.648C326.533 566.663 325.855 567.602 324.976 568.466C324.105 569.322 323.025 570.011 321.738 570.534C320.45 571.057 318.953 571.318 317.249 571.318C315.113 571.318 313.196 570.86 311.499 569.943C309.809 569.027 308.472 567.678 307.488 565.898C306.51 564.117 306.022 561.939 306.022 559.364C306.022 556.773 306.522 554.591 307.522 552.818C308.522 551.038 309.87 549.693 311.567 548.784C313.264 547.867 315.158 547.409 317.249 547.409C318.719 547.409 320.071 547.61 321.306 548.011C322.541 548.413 323.624 549 324.556 549.773C325.488 550.538 326.238 551.481 326.806 552.602C327.374 553.723 327.719 555.008 327.84 556.455ZM333.27 552.818V547.727H353.497V552.818H346.497V571H340.27V552.818H333.27ZM372.848 547.727H379.166V562.636C379.166 564.409 378.742 565.943 377.893 567.239C377.052 568.527 375.878 569.523 374.37 570.227C372.863 570.924 371.113 571.273 369.12 571.273C367.113 571.273 365.355 570.924 363.848 570.227C362.34 569.523 361.166 568.527 360.325 567.239C359.492 565.943 359.075 564.409 359.075 562.636V547.727H365.393V562.091C365.393 562.811 365.552 563.455 365.87 564.023C366.189 564.583 366.628 565.023 367.189 565.341C367.757 565.659 368.401 565.818 369.12 565.818C369.848 565.818 370.492 565.659 371.052 565.341C371.613 565.023 372.052 564.583 372.37 564.023C372.689 563.455 372.848 562.811 372.848 562.091V547.727ZM385.369 571V547.727H395.414C397.141 547.727 398.653 548.042 399.948 548.67C401.244 549.299 402.251 550.205 402.971 551.386C403.691 552.568 404.051 553.985 404.051 555.636C404.051 557.303 403.679 558.708 402.937 559.852C402.202 560.996 401.168 561.86 399.835 562.443C398.509 563.027 396.96 563.318 395.187 563.318H389.187V558.409H393.914C394.657 558.409 395.289 558.318 395.812 558.136C396.342 557.947 396.748 557.648 397.028 557.239C397.316 556.83 397.46 556.295 397.46 555.636C397.46 554.97 397.316 554.428 397.028 554.011C396.748 553.587 396.342 553.277 395.812 553.08C395.289 552.875 394.657 552.773 393.914 552.773H391.687V571H385.369ZM399.005 560.318L404.823 571H397.96L392.278 560.318H399.005ZM409.944 571V547.727H426.716V552.818H416.262V556.818H425.853V561.909H416.262V565.909H426.671V571H409.944ZM455.17 555C455.11 554.242 454.826 553.652 454.318 553.227C453.818 552.803 453.057 552.591 452.034 552.591C451.383 552.591 450.848 552.67 450.432 552.83C450.023 552.981 449.72 553.189 449.523 553.455C449.326 553.72 449.223 554.023 449.216 554.364C449.201 554.644 449.25 554.898 449.364 555.125C449.485 555.345 449.674 555.545 449.932 555.727C450.189 555.902 450.519 556.061 450.92 556.205C451.322 556.348 451.799 556.477 452.352 556.591L454.261 557C455.549 557.273 456.652 557.633 457.568 558.08C458.485 558.527 459.235 559.053 459.818 559.659C460.402 560.258 460.83 560.932 461.102 561.682C461.383 562.432 461.527 563.25 461.534 564.136C461.527 565.667 461.144 566.962 460.386 568.023C459.629 569.083 458.545 569.89 457.136 570.443C455.735 570.996 454.049 571.273 452.08 571.273C450.057 571.273 448.292 570.973 446.784 570.375C445.284 569.777 444.117 568.856 443.284 567.614C442.458 566.364 442.042 564.765 442.034 562.818H448.034C448.072 563.53 448.25 564.129 448.568 564.614C448.886 565.098 449.333 565.466 449.909 565.716C450.492 565.966 451.186 566.091 451.989 566.091C452.663 566.091 453.227 566.008 453.682 565.841C454.136 565.674 454.481 565.443 454.716 565.148C454.951 564.852 455.072 564.515 455.08 564.136C455.072 563.78 454.955 563.47 454.727 563.205C454.508 562.932 454.144 562.689 453.636 562.477C453.129 562.258 452.443 562.053 451.58 561.864L449.261 561.364C447.201 560.917 445.576 560.17 444.386 559.125C443.205 558.072 442.617 556.636 442.625 554.818C442.617 553.341 443.011 552.049 443.807 550.943C444.61 549.83 445.72 548.962 447.136 548.341C448.561 547.72 450.193 547.409 452.034 547.409C453.913 547.409 455.538 547.723 456.909 548.352C458.28 548.981 459.337 549.867 460.08 551.011C460.83 552.148 461.208 553.477 461.216 555H455.17ZM466.183 547.727H473.228L477.774 557.182H477.956L482.501 547.727H489.547L481.001 563.682V571H474.728V563.682L466.183 547.727ZM507.352 555C507.291 554.242 507.007 553.652 506.499 553.227C505.999 552.803 505.238 552.591 504.215 552.591C503.564 552.591 503.03 552.67 502.613 552.83C502.204 552.981 501.901 553.189 501.704 553.455C501.507 553.72 501.405 554.023 501.397 554.364C501.382 554.644 501.431 554.898 501.545 555.125C501.666 555.345 501.855 555.545 502.113 555.727C502.371 555.902 502.7 556.061 503.102 556.205C503.503 556.348 503.98 556.477 504.534 556.591L506.443 557C507.73 557.273 508.833 557.633 509.749 558.08C510.666 558.527 511.416 559.053 511.999 559.659C512.583 560.258 513.011 560.932 513.284 561.682C513.564 562.432 513.708 563.25 513.715 564.136C513.708 565.667 513.325 566.962 512.568 568.023C511.81 569.083 510.727 569.89 509.318 570.443C507.916 570.996 506.23 571.273 504.261 571.273C502.238 571.273 500.473 570.973 498.965 570.375C497.465 569.777 496.299 568.856 495.465 567.614C494.64 566.364 494.223 564.765 494.215 562.818H500.215C500.253 563.53 500.431 564.129 500.749 564.614C501.068 565.098 501.515 565.466 502.09 565.716C502.674 565.966 503.367 566.091 504.17 566.091C504.844 566.091 505.409 566.008 505.863 565.841C506.318 565.674 506.662 565.443 506.897 565.148C507.132 564.852 507.253 564.515 507.261 564.136C507.253 563.78 507.136 563.47 506.909 563.205C506.689 562.932 506.325 562.689 505.818 562.477C505.31 562.258 504.624 562.053 503.761 561.864L501.443 561.364C499.382 560.917 497.757 560.17 496.568 559.125C495.386 558.072 494.799 556.636 494.806 554.818C494.799 553.341 495.193 552.049 495.988 550.943C496.791 549.83 497.901 548.962 499.318 548.341C500.742 547.72 502.374 547.409 504.215 547.409C506.094 547.409 507.719 547.723 509.09 548.352C510.462 548.981 511.518 549.867 512.261 551.011C513.011 552.148 513.39 553.477 513.397 555H507.352ZM518.682 552.818V547.727H538.91V552.818H531.91V571H525.682V552.818H518.682ZM544.487 571V547.727H561.26V552.818H550.806V556.818H560.397V561.909H550.806V565.909H561.215V571H544.487ZM567.594 547.727H575.457L580.866 560.909H581.139L586.548 547.727H594.412V571H588.23V557.545H588.048L582.866 570.818H579.139L573.957 557.455H573.776V571H567.594V547.727Z" fill="#F0A8D0"/>
</svg>
