<svg width="239" height="49" viewBox="0 0 239 49" fill="none" xmlns="http://www.w3.org/2000/svg">
<g clip-path="url(#clip0_44_48)">
<path fill-rule="evenodd" clip-rule="evenodd" d="M45.1048 23.7867C45.1048 28.2668 44.4614 32.1193 43.1528 35.3224C41.8441 38.504 40.003 41.1011 37.5631 43.1356C35.1233 45.1484 32.1731 46.6418 28.6907 47.5724C26.0068 48.3083 22.9236 48.7627 19.4412 48.9143C32.151 44.4125 41.334 31.4916 41.334 16.2332C41.334 13.6794 41.0677 11.1687 40.5576 8.76633C41.6666 10.1731 42.576 11.7747 43.3081 13.5278C44.5058 16.4713 45.1048 19.8908 45.1048 23.7867ZM0.476318 1.25616C0.498499 1.23452 0.498499 1.21288 0.52068 1.19124L0.476318 1.25616Z" fill="url(#paint0_linear_44_48)"/>
<path fill-rule="evenodd" clip-rule="evenodd" d="M19.4383 48.9147C18.3958 48.9797 17.3311 49.0012 16.2442 49.0012H10.832C18.0631 46.0578 24.0297 40.344 27.6453 33.0719C35.3422 28.9814 36.0963 19.9995 31.3495 14.5888C31.0613 9.76231 29.8634 5.19562 27.9115 1.10507C28.4661 1.23492 28.9984 1.38643 29.5085 1.53793C32.8801 2.55515 35.7193 4.07017 38.0261 6.08298C38.9577 6.88378 39.8006 7.79279 40.5547 8.76673C41.0649 11.1691 41.331 13.6797 41.331 16.2336C41.331 31.4921 32.1481 44.413 19.4383 48.9147Z" fill="url(#paint1_linear_44_48)"/>
<path fill-rule="evenodd" clip-rule="evenodd" d="M24.3105 17.3361C27.1053 18.5265 28.0369 21.6431 27.1275 23.894C25.9297 26.924 22.6247 27.898 20.1848 26.9457C13.5305 24.3701 17.4344 14.436 24.3105 17.3361ZM27.9038 1.1038C24.8651 0.367932 21.2939 0 17.1904 0H15.0387C15.6377 2.6621 15.9703 5.43242 15.9703 8.28931C15.9703 9.47969 15.9039 10.6484 15.793 11.8171C16.1922 11.6007 16.5915 11.4059 16.9907 11.2328C20.2514 9.80432 24.2661 10.0424 27.5933 11.7089C29.0794 12.4448 30.3438 13.4403 31.342 14.5874C31.0536 9.76105 29.8558 5.19434 27.9038 1.1038ZM9.51569 29.0667C6.94269 32.7244 3.70424 35.7977 0 38.1135V45.8618C0 46.9655 0.310536 47.7663 0.953788 48.2641C1.57486 48.762 2.3512 49 3.28281 49H10.8244C18.0554 46.0566 24.0222 40.3428 27.6377 33.0707C27.0831 33.352 26.5286 33.6118 25.9076 33.8498C24.2217 34.4991 22.6025 35.0618 20.9612 35.6678C9.69314 39.7584 9.47134 41.2734 9.58224 35.4731C9.6266 34.0663 9.56006 31.6206 9.51569 29.0667Z" fill="url(#paint2_linear_44_48)"/>
<path fill-rule="evenodd" clip-rule="evenodd" d="M15.0389 0H3.28281C2.3512 0 1.57486 0.238074 0.953788 0.735866C0.310536 1.23366 0 2.03446 0 3.13825V38.1135C3.70424 35.7977 6.94269 32.7244 9.51571 29.0667C9.44915 25.4523 9.4048 21.6215 9.64879 20.1498C10.3364 16.3622 12.7763 13.5053 15.793 11.8171C15.9039 10.6484 15.9703 9.47969 15.9703 8.28931C15.9703 5.43242 15.6377 2.6621 15.0389 0Z" fill="url(#paint3_linear_44_48)"/>
<path fill-rule="evenodd" clip-rule="evenodd" d="M24.305 17.3342C27.0998 18.5247 28.0315 21.6413 27.122 23.8921C25.9242 26.9222 22.6193 27.8962 20.1794 26.9439C13.525 24.3683 17.4289 14.4342 24.305 17.3342ZM27.5879 11.7071C24.2606 10.0405 20.2459 9.80246 16.9852 11.2309C13.4363 12.7675 10.3975 15.8842 9.64333 20.1479C9.19971 22.6369 9.64333 32.0949 9.57678 35.4712C9.46588 41.2716 9.68769 39.7565 20.9557 35.666C22.5971 35.06 24.2163 34.4973 25.902 33.848C37.037 29.5627 36.5934 16.2088 27.5879 11.7071Z" fill="white"/>
<path d="M56.571 37.5347H57.3919V43.2484H56.571V37.5347ZM62.1385 38.8765C62.6931 38.8765 63.1367 39.0496 63.4694 39.3743C63.8022 39.6773 63.9796 40.1535 63.9796 40.7595V43.2484H63.1811V40.846C63.1811 40.4347 63.0701 40.1101 62.8706 39.9153C62.6488 39.6989 62.3604 39.5907 61.9834 39.5907C61.5397 39.5907 61.2069 39.7206 60.9408 39.9587C60.6968 40.2184 60.5637 40.5647 60.5637 41.0192V43.2484H59.7652V38.9198H60.5415V39.5907C60.6968 39.3527 60.9186 39.1795 61.1847 39.0713C61.4731 38.9415 61.7837 38.8765 62.1385 38.8765ZM68.1275 43.3134C67.6838 43.3134 67.2846 43.2051 66.9297 43.0103C66.5747 42.8372 66.3086 42.5775 66.109 42.2312C65.9093 41.9066 65.8206 41.5169 65.8206 41.0841C65.8206 40.6729 65.9093 40.2833 66.109 39.9587C66.3086 39.6124 66.5747 39.3527 66.9297 39.1795C67.2846 38.9847 67.6838 38.8765 68.1275 38.8765C68.571 38.8765 68.9482 38.9847 69.303 39.1795C69.658 39.3527 69.9242 39.6124 70.1238 39.9587C70.3234 40.2833 70.4343 40.6729 70.4343 41.0841C70.4343 41.5169 70.3234 41.9066 70.1238 42.2312C69.9242 42.5775 69.658 42.8372 69.303 43.0103C68.9482 43.2051 68.571 43.3134 68.1275 43.3134ZM68.1275 42.6208C68.4158 42.6208 68.6598 42.5558 68.8816 42.426C69.1035 42.2961 69.2809 42.1229 69.4139 41.8849C69.547 41.6684 69.6136 41.3871 69.6136 41.0841C69.6136 40.8027 69.547 40.5213 69.4139 40.3049C69.2809 40.0669 69.1035 39.8938 68.8816 39.7638C68.6598 39.634 68.4158 39.569 68.1275 39.569C67.8391 39.569 67.5729 39.634 67.3512 39.7638C67.1293 39.8938 66.9519 40.0669 66.8188 40.3049C66.6856 40.5213 66.6191 40.8027 66.6191 41.0841C66.6191 41.3871 66.6856 41.6684 66.8188 41.8849C66.9519 42.1229 67.1293 42.2961 67.3512 42.426C67.5729 42.5558 67.8391 42.6208 68.1275 42.6208ZM76.0683 38.9198L74.1163 43.2484H73.2957L71.3659 38.9198H72.2088L73.7171 42.4043L75.2698 38.9198H76.0683ZM79.0184 38.8765C79.6394 38.8765 80.1053 39.0279 80.438 39.331C80.7485 39.6124 80.926 40.0669 80.926 40.6512V43.2484H80.1497V42.6857C80.0166 42.8805 79.8391 43.032 79.5951 43.1402C79.3289 43.2484 79.0406 43.3134 78.7078 43.3134C78.1977 43.3134 77.7984 43.1835 77.51 42.9454C77.2217 42.7289 77.0665 42.4043 77.0665 42.0364C77.0665 41.6468 77.1996 41.3438 77.4878 41.1057C77.7762 40.8893 78.2199 40.7595 78.8409 40.7595H80.1275V40.608C80.1275 40.2833 80.0166 40.0236 79.8169 39.8287C79.6173 39.6556 79.3289 39.569 78.9297 39.569C78.6635 39.569 78.4194 39.6124 78.1534 39.6989C77.9093 39.7855 77.6875 39.8938 77.5322 40.0236L77.1774 39.4392C77.4214 39.2661 77.6875 39.1362 77.9981 39.0279C78.3308 38.9415 78.6635 38.8765 79.0184 38.8765ZM78.8409 42.7074C79.1515 42.7074 79.4176 42.6424 79.6394 42.5126C79.8613 42.3611 80.0166 42.1878 80.1275 41.9281V41.3221H78.8853C78.1977 41.3221 77.865 41.5603 77.865 41.9931C77.865 42.2095 77.9537 42.3827 78.109 42.5126C78.2865 42.6424 78.5304 42.7074 78.8409 42.7074ZM84.4084 43.3134C84.0535 43.3134 83.6986 43.2484 83.3659 43.1618C83.0331 43.0752 82.767 42.9454 82.5674 42.7938L82.9223 42.1878C83.0997 42.3177 83.3437 42.426 83.6321 42.5126C83.8982 42.5775 84.1866 42.6208 84.475 42.6208C85.1625 42.6208 85.5175 42.426 85.5175 42.0364C85.5175 41.9066 85.4731 41.7983 85.3844 41.7334C85.2957 41.6468 85.1625 41.6035 85.0294 41.5603C84.8742 41.5169 84.6746 41.4953 84.4306 41.452C84.0535 41.3871 83.7652 41.3221 83.5434 41.2572C83.3215 41.1923 83.1219 41.0624 82.9666 40.8893C82.8114 40.7378 82.7227 40.4998 82.7227 40.1967C82.7227 39.7855 82.878 39.4825 83.2328 39.2444C83.5655 39.0064 84.0091 38.8765 84.5637 38.8765C84.8742 38.8765 85.1626 38.9198 85.4509 38.9847C85.7614 39.0713 86.0054 39.1578 86.1829 39.2878L85.8501 39.8938C85.4731 39.6773 85.0516 39.5475 84.5637 39.5475C84.2309 39.5475 83.9647 39.6124 83.7874 39.7206C83.6099 39.8287 83.5212 39.9803 83.5212 40.1535C83.5212 40.3049 83.5655 40.4132 83.6765 40.4781C83.7652 40.5647 83.8982 40.6296 84.0313 40.6729C84.1866 40.7161 84.3862 40.7595 84.6524 40.8027C85.0295 40.8677 85.3178 40.9326 85.5397 40.9975C85.7392 41.0624 85.9389 41.1707 86.0942 41.3438C86.2495 41.4953 86.3382 41.7334 86.3382 42.0147C86.3382 42.426 86.1607 42.7289 85.8058 42.9671C85.4731 43.1835 85.0073 43.3134 84.4084 43.3134ZM88.0683 38.9198H88.8668V43.2484H88.0683V38.9198ZM88.4675 38.0973C88.3123 38.0973 88.1792 38.0541 88.0683 37.9458C87.9796 37.8593 87.913 37.7294 87.913 37.5779C87.913 37.4481 87.9796 37.3182 88.0683 37.2316C88.1792 37.1234 88.3123 37.0801 88.4675 37.0801C88.6228 37.0801 88.7559 37.1234 88.8446 37.2099C88.9555 37.3182 88.9999 37.4264 88.9999 37.5779C88.9999 37.7294 88.9555 37.8376 88.8446 37.9458C88.7559 38.0541 88.6228 38.0973 88.4675 38.0973ZM93.5027 37.5347H95.9647C96.5858 37.5347 97.1404 37.6645 97.6061 37.9025C98.0942 38.1407 98.4712 38.4653 98.7374 38.8981C99.0036 39.331 99.1367 39.8287 99.1367 40.3915C99.1367 40.9543 99.0036 41.452 98.7374 41.8849C98.4712 42.3177 98.0942 42.664 97.6061 42.9021C97.1404 43.1402 96.5858 43.2484 95.9647 43.2484H93.5027V37.5347ZM95.9204 42.5558C96.3862 42.5558 96.8076 42.4477 97.1626 42.2744C97.5174 42.1014 97.8058 41.8417 98.0054 41.5169C98.1829 41.1923 98.2938 40.8244 98.2938 40.3915C98.2938 39.9803 98.1829 39.5907 98.0054 39.2661C97.8058 38.9415 97.5174 38.7033 97.1626 38.5302C96.8076 38.3355 96.3862 38.2489 95.9204 38.2489H94.3234V42.5558H95.9204ZM105.037 41.1274C105.037 41.1707 105.015 41.2572 105.015 41.3438H101.421C101.466 41.7334 101.643 42.0364 101.932 42.2744C102.22 42.5126 102.575 42.6208 103.018 42.6208C103.551 42.6208 103.972 42.4477 104.305 42.1014L104.749 42.5991C104.549 42.8372 104.305 43.0103 103.994 43.1186C103.706 43.2484 103.373 43.3134 102.996 43.3134C102.53 43.3134 102.109 43.2051 101.754 43.032C101.377 42.8372 101.111 42.5775 100.911 42.2312C100.712 41.9066 100.601 41.5169 100.601 41.0841C100.601 40.6729 100.712 40.3049 100.889 39.9587C101.089 39.6124 101.355 39.3527 101.688 39.1795C102.042 38.9847 102.419 38.8765 102.841 38.8765C103.262 38.8765 103.639 38.9847 103.972 39.1795C104.305 39.3527 104.571 39.6124 104.749 39.9587C104.926 40.3049 105.037 40.6729 105.037 41.1274ZM102.841 39.5475C102.442 39.5475 102.131 39.6556 101.865 39.8938C101.621 40.1101 101.466 40.4132 101.421 40.781H104.26C104.216 40.4347 104.061 40.1318 103.795 39.8938C103.551 39.6556 103.218 39.5475 102.841 39.5475ZM108.142 43.3134C107.787 43.3134 107.432 43.2484 107.1 43.1618C106.767 43.0752 106.501 42.9454 106.301 42.7938L106.656 42.1878C106.833 42.3177 107.078 42.426 107.366 42.5126C107.632 42.5775 107.92 42.6208 108.209 42.6208C108.896 42.6208 109.251 42.426 109.251 42.0364C109.251 41.9066 109.207 41.7983 109.118 41.7334C109.029 41.6468 108.896 41.6035 108.763 41.5603C108.608 41.5169 108.408 41.4953 108.142 41.452C107.787 41.3871 107.499 41.3221 107.277 41.2572C107.055 41.1923 106.856 41.0624 106.7 40.8893C106.545 40.7378 106.456 40.4998 106.456 40.1967C106.456 39.7855 106.612 39.4825 106.944 39.2444C107.299 39.0064 107.743 38.8765 108.298 38.8765C108.608 38.8765 108.896 38.9198 109.185 38.9847C109.495 39.0713 109.739 39.1578 109.917 39.2878L109.584 39.8938C109.207 39.6773 108.785 39.5475 108.298 39.5475C107.965 39.5475 107.699 39.6124 107.521 39.7206C107.344 39.8287 107.255 39.9803 107.255 40.1535C107.255 40.3049 107.299 40.4132 107.41 40.4781C107.499 40.5647 107.632 40.6296 107.765 40.6729C107.92 40.7161 108.12 40.7595 108.386 40.8027C108.763 40.8677 109.052 40.9326 109.251 40.9975C109.473 41.0624 109.673 41.1707 109.828 41.3438C109.983 41.4953 110.072 41.7334 110.072 42.0147C110.072 42.426 109.895 42.7289 109.54 42.9671C109.207 43.1835 108.741 43.3134 108.142 43.3134ZM113.399 38.8765C114.02 38.8765 114.486 39.0279 114.819 39.331C115.151 39.6124 115.307 40.0669 115.307 40.6512V43.2484H114.553V42.6857C114.419 42.8805 114.22 43.032 113.976 43.1402C113.732 43.2484 113.421 43.3134 113.089 43.3134C112.601 43.3134 112.201 43.1835 111.891 42.9454C111.602 42.7289 111.447 42.4043 111.447 42.0364C111.447 41.6468 111.602 41.3438 111.869 41.1057C112.157 40.8893 112.623 40.7595 113.244 40.7595H114.508V40.608C114.508 40.2833 114.397 40.0236 114.198 39.8287C113.998 39.6556 113.71 39.569 113.31 39.569C113.066 39.569 112.8 39.6124 112.556 39.6989C112.29 39.7855 112.09 39.8938 111.913 40.0236L111.58 39.4392C111.802 39.2661 112.068 39.1362 112.401 39.0279C112.712 38.9415 113.044 38.8765 113.399 38.8765ZM113.222 42.7074C113.532 42.7074 113.798 42.6424 114.02 42.5126C114.242 42.3611 114.397 42.1878 114.508 41.9281V41.3221H113.266C112.578 41.3221 112.246 41.5603 112.246 41.9931C112.246 42.2095 112.334 42.3827 112.512 42.5126C112.689 42.6424 112.911 42.7074 113.222 42.7074ZM117.724 42.1878C117.88 42.1878 118.013 42.2312 118.124 42.3394C118.212 42.4477 118.279 42.5775 118.279 42.7506C118.279 42.8155 118.257 42.9021 118.235 42.9887C118.235 43.0537 118.19 43.1835 118.124 43.3349L117.747 44.4605H117.214L117.525 43.2484C117.414 43.2051 117.325 43.1402 117.259 43.0537C117.192 42.9671 117.17 42.8588 117.17 42.7506C117.17 42.5775 117.214 42.4477 117.325 42.3394C117.436 42.2312 117.569 42.1878 117.724 42.1878ZM127.95 43.2484V39.0929L125.843 42.5558H125.443L123.336 39.1146V43.2484H122.516V37.5347H123.203L125.665 41.5603L128.061 37.5347H128.749L128.771 43.2484H127.95ZM135.137 41.1274C135.137 41.1707 135.137 41.2572 135.115 41.3438H131.521C131.565 41.7334 131.743 42.0364 132.031 42.2744C132.342 42.5126 132.697 42.6208 133.14 42.6208C133.672 42.6208 134.094 42.4477 134.405 42.1014L134.849 42.5991C134.649 42.8372 134.405 43.0103 134.116 43.1186C133.806 43.2484 133.472 43.3134 133.118 43.3134C132.63 43.3134 132.231 43.2051 131.853 43.032C131.499 42.8372 131.211 42.5775 131.011 42.2312C130.812 41.9066 130.722 41.5169 130.722 41.0841C130.722 40.6729 130.812 40.3049 131.011 39.9587C131.211 39.6124 131.477 39.3527 131.809 39.1795C132.143 38.9847 132.519 38.8765 132.94 38.8765C133.362 38.8765 133.762 38.9847 134.072 39.1795C134.405 39.3527 134.671 39.6124 134.871 39.9587C135.047 40.3049 135.137 40.6729 135.137 41.1274ZM132.94 39.5475C132.563 39.5475 132.231 39.6556 131.987 39.8938C131.721 40.1101 131.565 40.4132 131.521 40.781H134.382C134.338 40.4347 134.183 40.1318 133.916 39.8938C133.65 39.6556 133.34 39.5475 132.94 39.5475ZM142.545 38.8765C143.1 38.8765 143.544 39.0496 143.854 39.3527C144.187 39.6773 144.341 40.1535 144.341 40.7595V43.2484H143.544V40.846C143.544 40.4347 143.454 40.1101 143.255 39.9153C143.056 39.6989 142.766 39.5907 142.39 39.5907C141.991 39.5907 141.681 39.7206 141.437 39.9587C141.192 40.2184 141.059 40.5647 141.059 41.0192V43.2484H140.26V40.846C140.26 40.4347 140.172 40.1101 139.972 39.9153C139.772 39.6989 139.484 39.5907 139.129 39.5907C138.708 39.5907 138.397 39.7206 138.153 39.9587C137.909 40.2184 137.776 40.5647 137.776 41.0192V43.2484H136.978V38.9198H137.754V39.569C137.909 39.3527 138.131 39.1795 138.397 39.0713C138.641 38.9415 138.952 38.8765 139.284 38.8765C139.64 38.8765 139.928 38.963 140.216 39.0929C140.482 39.2227 140.682 39.4176 140.837 39.6773C140.993 39.4392 141.237 39.2444 141.525 39.0929C141.813 38.963 142.168 38.8765 142.545 38.8765ZM148.911 38.8765C149.332 38.8765 149.732 38.9847 150.064 39.1578C150.419 39.3527 150.685 39.6124 150.863 39.937C151.063 40.2833 151.151 40.6512 151.151 41.0841C151.151 41.5386 151.063 41.9066 150.863 42.2528C150.685 42.5775 150.419 42.8372 150.064 43.032C149.732 43.2051 149.332 43.3134 148.911 43.3134C148.578 43.3134 148.29 43.2484 148.001 43.1186C147.735 42.9887 147.513 42.8155 147.336 42.5775V43.2484H146.56V37.1884H147.359V39.5907C147.535 39.3527 147.757 39.1795 148.023 39.0713C148.312 38.9415 148.601 38.8765 148.911 38.8765ZM148.844 42.6208C149.132 42.6208 149.376 42.5558 149.621 42.426C149.842 42.2961 150.02 42.1229 150.153 41.8849C150.286 41.6684 150.353 41.3871 150.353 41.0841C150.353 40.8027 150.286 40.5213 150.153 40.3049C150.02 40.0669 149.842 39.8938 149.621 39.7638C149.376 39.634 149.132 39.569 148.844 39.569C148.556 39.569 148.312 39.634 148.091 39.7638C147.847 39.8938 147.669 40.0669 147.557 40.3049C147.425 40.5213 147.359 40.8027 147.359 41.0841C147.359 41.3871 147.425 41.6684 147.557 41.8849C147.669 42.1229 147.847 42.2961 148.091 42.426C148.312 42.5558 148.556 42.6208 148.844 42.6208ZM154.567 38.8765C155.188 38.8765 155.654 39.0279 155.987 39.331C156.32 39.6124 156.475 40.0669 156.475 40.6512V43.2484H155.72V42.6857C155.588 42.8805 155.388 43.032 155.144 43.1402C154.878 43.2484 154.589 43.3134 154.257 43.3134C153.747 43.3134 153.369 43.1835 153.059 42.9454C152.77 42.7289 152.616 42.4043 152.616 42.0364C152.616 41.6468 152.748 41.3438 153.037 41.1057C153.325 40.8893 153.769 40.7595 154.389 40.7595H155.676V40.608C155.676 40.2833 155.566 40.0236 155.366 39.8287C155.166 39.6556 154.878 39.569 154.479 39.569C154.213 39.569 153.969 39.6124 153.702 39.6989C153.458 39.7855 153.236 39.8938 153.081 40.0236L152.748 39.4392C152.97 39.2661 153.236 39.1362 153.569 39.0279C153.879 38.9415 154.213 38.8765 154.567 38.8765ZM154.389 42.7074C154.701 42.7074 154.966 42.6424 155.188 42.5126C155.41 42.3611 155.566 42.1878 155.676 41.9281V41.3221H154.435C153.747 41.3221 153.414 41.5603 153.414 41.9931C153.414 42.2095 153.503 42.3827 153.658 42.5126C153.835 42.6424 154.079 42.7074 154.389 42.7074ZM161.066 38.8765C161.62 38.8765 162.064 39.0496 162.398 39.3743C162.73 39.6773 162.907 40.1535 162.907 40.7595V43.2484H162.108V40.846C162.108 40.4347 161.998 40.1101 161.798 39.9153C161.576 39.6989 161.288 39.5907 160.911 39.5907C160.467 39.5907 160.113 39.7206 159.869 39.9587C159.625 40.2184 159.492 40.5647 159.492 41.0192V43.2484H158.692V38.9198H159.469V39.5907C159.625 39.3527 159.846 39.1795 160.113 39.0713C160.401 38.9415 160.711 38.8765 161.066 38.8765ZM169.384 38.9198V42.664C169.384 43.4215 169.207 43.9843 168.808 44.3522C168.43 44.7202 167.854 44.8932 167.077 44.8932C166.679 44.8932 166.279 44.8283 165.88 44.7202C165.502 44.6119 165.214 44.4605 164.97 44.244L165.348 43.638C165.569 43.8111 165.813 43.9626 166.123 44.0492C166.434 44.1574 166.745 44.2008 167.055 44.2008C167.588 44.2008 167.964 44.0925 168.208 43.8544C168.452 43.6163 168.586 43.2484 168.586 42.7506V42.4043C168.386 42.6208 168.164 42.7938 167.876 42.9021C167.61 43.032 167.299 43.0752 166.989 43.0752C166.567 43.0752 166.168 42.9887 165.835 42.8155C165.502 42.6424 165.214 42.3827 165.036 42.0797C164.837 41.755 164.726 41.3871 164.726 40.9758C164.726 40.5647 164.837 40.1967 165.036 39.8938C165.214 39.569 165.502 39.331 165.835 39.1578C166.168 38.9847 166.567 38.8765 166.989 38.8765C167.321 38.8765 167.632 38.9415 167.92 39.0713C168.208 39.1795 168.452 39.3743 168.63 39.5907V38.9198H169.384ZM167.077 42.3827C167.366 42.3827 167.632 42.3394 167.854 42.2095C168.098 42.1014 168.276 41.9281 168.408 41.7117C168.542 41.4953 168.608 41.2572 168.608 40.9758C168.608 40.5647 168.452 40.2184 168.186 39.9587C167.898 39.6989 167.521 39.569 167.077 39.569C166.633 39.569 166.257 39.6989 165.968 39.9587C165.68 40.2184 165.547 40.5647 165.547 40.9758C165.547 41.2572 165.614 41.4953 165.746 41.7117C165.88 41.9281 166.057 42.1014 166.279 42.2095C166.523 42.3394 166.789 42.3827 167.077 42.3827ZM175.795 38.9198V43.2484H175.018V42.5991C174.864 42.8372 174.642 43.0103 174.375 43.1186C174.109 43.2484 173.821 43.3134 173.51 43.3134C172.933 43.3134 172.467 43.1402 172.112 42.8372C171.78 42.5126 171.602 42.0364 171.602 41.4304V38.9198H172.401V41.3221C172.401 41.755 172.512 42.058 172.711 42.2744C172.933 42.4909 173.221 42.5991 173.599 42.5991C174.042 42.5991 174.374 42.4692 174.618 42.2312C174.864 41.9715 174.974 41.6252 174.974 41.1707V38.9198H175.795ZM180.408 38.8765C180.984 38.8765 181.428 39.0496 181.761 39.3743C182.094 39.6773 182.249 40.1535 182.249 40.7595V43.2484H181.451V40.846C181.451 40.4347 181.34 40.1101 181.14 39.9153C180.94 39.6989 180.63 39.5907 180.253 39.5907C179.809 39.5907 179.477 39.7206 179.233 39.9587C178.967 40.2184 178.855 40.5647 178.855 41.0192V43.2484H178.034V38.9198H178.811V39.5907C178.967 39.3527 179.189 39.1795 179.477 39.0713C179.743 38.9415 180.053 38.8765 180.408 38.8765ZM186.84 37.5347H187.684V43.2484H186.84V37.5347ZM192.409 38.8765C192.985 38.8765 193.428 39.0496 193.762 39.3743C194.094 39.6773 194.272 40.1535 194.272 40.7595V43.2484H193.45V40.846C193.45 40.4347 193.362 40.1101 193.14 39.9153C192.941 39.6989 192.652 39.5907 192.253 39.5907C191.831 39.5907 191.477 39.7206 191.233 39.9587C190.988 40.2184 190.856 40.5647 190.856 41.0192V43.2484H190.057V38.9198H190.812V39.5907C190.988 39.3527 191.21 39.1795 191.477 39.0713C191.743 38.9415 192.075 38.8765 192.409 38.8765ZM200.682 37.1884V43.2484H199.928V42.5775C199.75 42.8155 199.506 42.9887 199.24 43.1186C198.974 43.2484 198.663 43.3134 198.331 43.3134C197.909 43.3134 197.532 43.2051 197.178 43.032C196.844 42.8372 196.578 42.5775 196.378 42.2528C196.179 41.9066 196.09 41.5386 196.09 41.0841C196.09 40.6512 196.179 40.2833 196.378 39.937C196.578 39.6124 196.844 39.3527 197.178 39.1578C197.532 38.9847 197.909 38.8765 198.331 38.8765C198.663 38.8765 198.951 38.9415 199.218 39.0713C199.484 39.1795 199.706 39.3527 199.884 39.5907V37.1884H200.682ZM198.397 42.6208C198.685 42.6208 198.929 42.5558 199.173 42.426C199.395 42.2961 199.572 42.1229 199.706 41.8849C199.838 41.6684 199.906 41.3871 199.906 41.0841C199.906 40.8027 199.838 40.5213 199.706 40.3049C199.572 40.0669 199.395 39.8938 199.173 39.7638C198.929 39.634 198.685 39.569 198.397 39.569C198.109 39.569 197.865 39.634 197.643 39.7638C197.421 39.8938 197.244 40.0669 197.11 40.3049C196.978 40.5213 196.912 40.8027 196.912 41.0841C196.912 41.3871 196.978 41.6684 197.11 41.8849C197.244 42.1229 197.421 42.2961 197.643 42.426C197.865 42.5558 198.109 42.6208 198.397 42.6208ZM204.851 43.3134C204.408 43.3134 204.009 43.2051 203.654 43.0103C203.3 42.8372 203.032 42.5775 202.834 42.2312C202.634 41.9066 202.523 41.5169 202.523 41.0841C202.523 40.6729 202.634 40.2833 202.834 39.9587C203.032 39.6124 203.3 39.3527 203.654 39.1795C204.009 38.9847 204.408 38.8765 204.851 38.8765C205.273 38.8765 205.672 38.9847 206.028 39.1795C206.382 39.3527 206.648 39.6124 206.848 39.9587C207.048 40.2833 207.136 40.6729 207.136 41.0841C207.136 41.5169 207.048 41.9066 206.848 42.2312C206.648 42.5775 206.382 42.8372 206.028 43.0103C205.672 43.2051 205.273 43.3134 204.851 43.3134ZM204.851 42.6208C205.118 42.6208 205.384 42.5558 205.606 42.426C205.828 42.2961 206.006 42.1229 206.138 41.8849C206.272 41.6684 206.338 41.3871 206.338 41.0841C206.338 40.8027 206.272 40.5213 206.138 40.3049C206.006 40.0669 205.828 39.8938 205.606 39.7638C205.384 39.634 205.118 39.569 204.851 39.569C204.563 39.569 204.297 39.634 204.075 39.7638C203.854 39.8938 203.676 40.0669 203.544 40.3049C203.41 40.5213 203.344 40.8027 203.344 41.0841C203.344 41.3871 203.41 41.6684 203.544 41.8849C203.676 42.1229 203.854 42.2961 204.075 42.426C204.297 42.5558 204.563 42.6208 204.851 42.6208ZM211.351 38.8765C211.928 38.8765 212.372 39.0496 212.704 39.3743C213.036 39.6773 213.192 40.1535 213.192 40.7595V43.2484H212.394V40.846C212.394 40.4347 212.282 40.1101 212.083 39.9153C211.883 39.6989 211.573 39.5907 211.195 39.5907C210.752 39.5907 210.419 39.7206 210.175 39.9587C209.91 40.2184 209.798 40.5647 209.798 41.0192V43.2484H208.978V38.9198H209.754V39.5907C209.91 39.3527 210.131 39.1795 210.419 39.0713C210.685 38.9415 210.995 38.8765 211.351 38.8765ZM219.447 41.1274C219.447 41.1707 219.447 41.2572 219.425 41.3438H215.832C215.876 41.7334 216.054 42.0364 216.342 42.2744C216.63 42.5126 217.007 42.6208 217.451 42.6208C217.961 42.6208 218.404 42.4477 218.715 42.1014L219.158 42.5991C218.958 42.8372 218.715 43.0103 218.426 43.1186C218.116 43.2484 217.783 43.3134 217.407 43.3134C216.941 43.3134 216.541 43.2051 216.164 43.032C215.81 42.8372 215.52 42.5775 215.321 42.2312C215.122 41.9066 215.033 41.5169 215.033 41.0841C215.033 40.6729 215.122 40.3049 215.321 39.9587C215.52 39.6124 215.764 39.3527 216.12 39.1795C216.452 38.9847 216.829 38.8765 217.251 38.8765C217.673 38.8765 218.049 38.9847 218.382 39.1795C218.715 39.3527 218.982 39.6124 219.158 39.9587C219.358 40.3049 219.447 40.6729 219.447 41.1274ZM217.251 39.5475C216.874 39.5475 216.541 39.6556 216.298 39.8938C216.032 40.1101 215.876 40.4132 215.832 40.781H218.67C218.626 40.4347 218.493 40.1318 218.227 39.8938C217.961 39.6556 217.651 39.5475 217.251 39.5475ZM222.574 43.3134C222.198 43.3134 221.842 43.2484 221.51 43.1618C221.177 43.0752 220.911 42.9454 220.733 42.7938L221.067 42.1878C221.266 42.3177 221.488 42.426 221.776 42.5126C222.064 42.5775 222.33 42.6208 222.619 42.6208C223.329 42.6208 223.683 42.426 223.683 42.0364C223.683 41.9066 223.639 41.7983 223.529 41.7334C223.439 41.6468 223.329 41.6035 223.173 41.5603C223.04 41.5169 222.841 41.4953 222.574 41.452C222.22 41.3871 221.932 41.3221 221.687 41.2572C221.466 41.1923 221.288 41.0624 221.111 40.8893C220.955 40.7378 220.867 40.4998 220.867 40.1967C220.867 39.7855 221.044 39.4825 221.377 39.2444C221.71 39.0064 222.154 38.8765 222.73 38.8765C223.018 38.8765 223.307 38.9198 223.617 38.9847C223.905 39.0713 224.149 39.1578 224.349 39.2878L223.995 39.8938C223.639 39.6773 223.195 39.5475 222.708 39.5475C222.376 39.5475 222.108 39.6124 221.932 39.7206C221.754 39.8287 221.665 39.9803 221.665 40.1535C221.665 40.3049 221.71 40.4132 221.82 40.4781C221.909 40.5647 222.042 40.6296 222.198 40.6729C222.33 40.7161 222.552 40.7595 222.818 40.8027C223.173 40.8677 223.461 40.9326 223.683 40.9975C223.905 41.0624 224.083 41.1707 224.238 41.3438C224.393 41.4953 224.482 41.7334 224.482 42.0147C224.482 42.426 224.305 42.7289 223.973 42.9671C223.617 43.1835 223.151 43.3134 222.574 43.3134ZM226.212 38.9198H227.011V43.2484H226.212V38.9198ZM226.611 38.0973C226.456 38.0973 226.323 38.0541 226.234 37.9458C226.124 37.8593 226.079 37.7294 226.079 37.5779C226.079 37.4481 226.124 37.3182 226.234 37.2316C226.323 37.1234 226.456 37.0801 226.611 37.0801C226.767 37.0801 226.899 37.1234 227.011 37.2099C227.099 37.3182 227.167 37.4264 227.167 37.5779C227.167 37.7294 227.099 37.8376 227.011 37.9458C226.899 38.0541 226.767 38.0973 226.611 38.0973ZM230.892 38.8765C231.514 38.8765 231.98 39.0279 232.312 39.331C232.623 39.6124 232.8 40.0669 232.8 40.6512V43.2484H232.024V42.6857C231.89 42.8805 231.714 43.032 231.446 43.1402C231.203 43.2484 230.915 43.3134 230.582 43.3134C230.071 43.3134 229.673 43.1835 229.384 42.9454C229.074 42.7289 228.94 42.4043 228.94 42.0364C228.94 41.6468 229.074 41.3438 229.362 41.1057C229.651 40.8893 230.093 40.7595 230.715 40.7595H231.98V40.608C231.98 40.2833 231.89 40.0236 231.69 39.8287C231.492 39.6556 231.181 39.569 230.804 39.569C230.537 39.569 230.271 39.6124 230.027 39.6989C229.783 39.7855 229.561 39.8938 229.384 40.0236L229.052 39.4392C229.295 39.2661 229.561 39.1362 229.872 39.0279C230.205 38.9415 230.537 38.8765 230.892 38.8765ZM230.715 42.7074C231.026 42.7074 231.27 42.6424 231.514 42.5126C231.736 42.3611 231.89 42.1878 231.98 41.9281V41.3221H230.759C230.071 41.3221 229.739 41.5603 229.739 41.9931C229.739 42.2095 229.805 42.3827 229.983 42.5126C230.161 42.6424 230.405 42.7074 230.715 42.7074Z" fill="#727376"/>
<path d="M56.0564 7.8335H67.3244C70.0305 7.8335 72.4039 8.33129 74.4667 9.34852C76.5518 10.3657 78.1488 11.7725 79.3023 13.6122C80.4556 15.4519 81.0324 17.5729 81.0324 20.0185C81.0324 22.4426 80.4556 24.5852 79.3023 26.4249C78.1488 28.2429 76.5518 29.6714 74.4667 30.6887C72.4039 31.6842 70.0305 32.2036 67.3244 32.2036H56.0564V7.8335ZM67.0361 27.572C69.5203 27.572 71.5166 26.8794 72.9807 25.5375C74.4667 24.1741 75.1987 22.3344 75.1987 20.0185C75.1987 17.7028 74.4667 15.8631 72.9807 14.4995C71.5166 13.1361 69.5203 12.4651 67.0361 12.4651H61.8013V27.572H67.0361ZM103.014 22.897C103.014 22.9621 102.992 23.4598 102.903 24.3689H88.4631C88.7292 25.516 89.3503 26.4466 90.3263 27.1175C91.2801 27.7885 92.5 28.1131 93.9418 28.1131C94.9178 28.1131 95.805 27.9832 96.5814 27.6802C97.3577 27.3989 98.0674 26.9443 98.7328 26.3168L101.661 29.455C99.8641 31.4678 97.2468 32.4633 93.7865 32.4633C91.6349 32.4633 89.7273 32.0521 88.0859 31.2297C86.4224 30.4073 85.158 29.2602 84.2486 27.8101C83.3613 26.3383 82.8956 24.6935 82.8956 22.8321C82.8956 20.9925 83.3392 19.3476 84.2264 17.8759C85.1136 16.4042 86.3336 15.2571 87.8863 14.4346C89.4391 13.6122 91.1692 13.201 93.0768 13.201C94.9622 13.201 96.6479 13.5906 98.1562 14.3697C99.6645 15.1705 100.862 16.296 101.727 17.7677C102.592 19.2394 103.014 20.9492 103.014 22.897ZM93.1211 17.2916C91.8568 17.2916 90.8142 17.6379 89.9714 18.352C89.1063 19.0447 88.5962 19.997 88.3965 21.1873H97.8012C97.6239 20.0185 97.0915 19.0662 96.2486 18.352C95.3835 17.6594 94.341 17.2916 93.1211 17.2916ZM112.485 32.4633C110.91 32.4633 109.358 32.2902 107.849 31.9007C106.319 31.5111 105.121 31.035 104.212 30.4505L106.075 26.5548C106.918 27.0958 107.938 27.5288 109.158 27.8534C110.356 28.1997 111.554 28.3728 112.707 28.3728C115.036 28.3728 116.212 27.7885 116.212 26.6631C116.212 26.122 115.901 25.754 115.258 25.516C114.615 25.2778 113.639 25.0831 112.308 24.9315C110.755 24.6935 109.469 24.4121 108.448 24.1307C107.428 23.8278 106.541 23.2867 105.809 22.5292C105.054 21.7501 104.677 20.6679 104.677 19.2394C104.677 18.0707 105.032 17.0102 105.72 16.1011C106.43 15.1922 107.45 14.478 108.781 13.9585C110.112 13.4607 111.687 13.201 113.528 13.201C114.859 13.201 116.212 13.3309 117.543 13.6338C118.873 13.9152 119.982 14.3264 120.87 14.8242L119.006 18.6984C117.343 17.7677 115.502 17.2916 113.528 17.2916C112.33 17.2916 111.443 17.4647 110.866 17.7893C110.267 18.114 109.979 18.5251 109.979 19.0447C109.979 19.629 110.289 20.0185 110.933 20.2567C111.576 20.4947 112.574 20.7111 113.971 20.9276C115.546 21.1656 116.811 21.447 117.809 21.7284C118.807 22.0313 119.672 22.5509 120.404 23.33C121.136 24.0875 121.491 25.148 121.491 26.5115C121.491 27.6802 121.136 28.7191 120.426 29.628C119.716 30.5154 118.696 31.2297 117.321 31.7275C115.968 32.2253 114.348 32.4633 112.485 32.4633ZM131.96 13.201C134.91 13.201 137.195 13.8935 138.77 15.2571C140.367 16.6422 141.144 18.72 141.144 21.5119V32.2036H135.975V29.8662C134.932 31.5976 133.003 32.4633 130.163 32.4633C128.7 32.4633 127.413 32.2253 126.349 31.7491C125.262 31.2513 124.441 30.5804 123.887 29.7147C123.309 28.8706 123.021 27.8966 123.021 26.7929C123.021 25.0614 123.687 23.6979 125.04 22.7023C126.371 21.7067 128.434 21.1873 131.228 21.1873H135.62C135.62 20.0185 135.243 19.1096 134.511 18.4602C133.779 17.8326 132.692 17.508 131.228 17.508C130.207 17.508 129.21 17.6594 128.212 17.9841C127.235 18.2871 126.415 18.72 125.728 19.2394L123.731 15.4519C124.774 14.7377 126.016 14.1749 127.479 13.7854C128.922 13.3958 130.429 13.201 131.96 13.201ZM131.538 28.8273C132.493 28.8273 133.335 28.6109 134.067 28.178C134.8 27.7451 135.31 27.1175 135.62 26.2734V24.3689H131.828C129.543 24.3689 128.412 25.1047 128.412 26.5548C128.412 27.2474 128.7 27.8101 129.254 28.1997C129.809 28.6109 130.563 28.8273 131.538 28.8273Z" fill="url(#paint4_linear_44_48)"/>
<path fill-rule="evenodd" clip-rule="evenodd" d="M152.869 7.88135H143.486V32.2298H146.348V24.5033H152.869C159.036 24.5033 162.606 21.4083 162.606 16.0408C162.606 10.8681 159.036 7.88135 152.869 7.88135ZM152.758 21.9277H146.348V10.4569H152.758C157.261 10.4569 159.855 12.4048 159.855 16.1273C159.855 19.9583 157.261 21.9277 152.758 21.9277ZM169.683 25.5637L169.749 31.3858L172.499 31.4074L172.477 25.4556C172.255 25.7585 170.858 25.6936 169.683 25.5637ZM189.667 13.7467C186.251 13.7682 183.722 15.1102 182.391 17.9021V13.8548H179.619V32.1649H182.391V22.3389C182.391 18.7895 185.009 16.3871 188.713 16.3655C192.019 16.3438 194.015 18.3133 194.015 21.5814V32.1649H196.81V20.8889C196.81 16.4304 194.17 13.725 189.667 13.7467ZM209.674 28.8102C208.654 29.4162 207.657 29.7409 206.68 29.7626C205.083 29.7842 204.196 28.8535 204.196 26.6242V16.5386H210.14V14.4176H204.196V10.2621H201.445V14.4176H198.739V16.5386H201.445V27.0788C201.445 30.6932 203.486 32.2948 206.214 32.2732C207.723 32.2515 209.142 31.7754 210.473 30.9096L209.674 28.8102ZM227.686 31.8403L227.641 19.7201C227.619 15.8244 225.024 13.422 220.389 13.422C217.171 13.422 215.154 14.331 212.714 15.8893L213.889 17.8155C215.864 16.4521 217.793 15.6945 219.856 15.6945C223.183 15.6945 224.89 17.3178 224.89 20.0015V21.1486H218.724C214.289 21.1486 211.693 23.2046 211.693 26.4079C211.693 29.5244 214.177 31.9269 218.081 31.9269C221.076 31.9269 223.471 30.9529 224.958 28.9833V31.8403H227.686ZM218.614 29.6759C215.974 29.6759 214.289 28.3124 214.289 26.2996C214.289 24.2436 215.93 23.3129 219.08 23.3129H224.936V25.5422C224.936 28.2259 221.786 29.6759 218.614 29.6759ZM232.255 17.5775V13.5085H229.483V31.862H232.255V22.0576C232.255 18.3566 235.05 15.9759 238.998 16.0408V13.4004C235.826 13.422 233.497 14.8937 232.255 17.5775Z" fill="#333333"/>
<path fill-rule="evenodd" clip-rule="evenodd" d="M171.118 29.9121C171.872 29.9121 172.493 30.5397 172.493 31.3189C172.493 32.098 171.872 32.7257 171.118 32.7257C170.363 32.7257 169.741 32.098 169.741 31.3189C169.741 30.5397 170.363 29.9121 171.118 29.9121Z" fill="#333333"/>
<path fill-rule="evenodd" clip-rule="evenodd" d="M169.112 11.8624C168.558 12.1437 168.224 12.3818 167.847 12.7281C165.918 14.5461 165.873 17.4463 167.648 19.524C167.847 19.7621 168.046 19.8704 168.202 20.0219C168.535 20.3898 168.114 21.2555 169.045 21.0824C169.2 21.0607 169.267 20.9525 169.333 20.7793C169.533 20.0868 169.134 19.4591 168.69 19.1345C166.605 17.5329 166.937 13.5721 170.065 12.5333C170.775 12.2736 171.662 12.252 172.417 12.4467C173.725 12.7714 174.79 13.7454 175.189 15.0223C175.699 16.6022 175.123 18.0956 174.258 18.983C173.77 19.4591 173.371 19.3942 173.393 20.801C173.393 22.987 170.952 21.7099 169.4 22.1861C168.756 22.381 168.246 23.0086 168.402 23.8743C168.646 25.2595 170.199 25.043 171.264 25.043C171.462 25.043 171.596 25.043 171.706 25.0647C172.062 25.0647 172.417 24.9132 172.35 24.5236C172.173 23.5064 170.309 24.4587 169.599 23.9826C169.178 23.7012 169.289 23.1169 169.977 23.0735C170.531 23.0519 171.196 23.0735 171.774 23.0735C174.546 23.0952 174.28 21.7099 174.39 20.4547C174.434 19.8487 175.189 19.7621 175.877 18.3986C176.986 16.256 176.277 13.5721 174.324 12.252C172.771 11.2347 170.775 11.0183 169.112 11.8624Z" fill="#333333"/>
<path fill-rule="evenodd" clip-rule="evenodd" d="M168.734 16.69C169.821 16.928 168.822 14.7637 170.885 14.3309C171.44 14.2011 171.862 14.3092 171.838 13.7898C171.838 13.5734 171.772 13.4651 171.55 13.3569C171.307 13.2703 171.085 13.2271 170.463 13.4218C169.2 13.8114 168.29 15.0234 168.356 16.1705C168.378 16.3869 168.378 16.6034 168.734 16.69Z" fill="#333333"/>
</g>
<defs>
<linearGradient id="paint0_linear_44_48" x1="34.9793" y1="0.961823" x2="11.5443" y2="48.7754" gradientUnits="userSpaceOnUse">
<stop stop-color="#7563D3"/>
<stop offset="1" stop-color="#210C2B"/>
</linearGradient>
<linearGradient id="paint1_linear_44_48" x1="36.3833" y1="6.44876" x2="16.5364" y2="43.6486" gradientUnits="userSpaceOnUse">
<stop stop-color="#FE7346"/>
<stop offset="1" stop-color="#FECB34"/>
</linearGradient>
<linearGradient id="paint2_linear_44_48" x1="6.55398" y1="40.0236" x2="24.1236" y2="8.60423" gradientUnits="userSpaceOnUse">
<stop stop-color="#FECB34"/>
<stop offset="1" stop-color="#FE424E"/>
</linearGradient>
<linearGradient id="paint3_linear_44_48" x1="12.1477" y1="1.63709" x2="4.20123" y2="36.562" gradientUnits="userSpaceOnUse">
<stop stop-color="#DD2666"/>
<stop offset="1" stop-color="#FECB34"/>
</linearGradient>
<linearGradient id="paint4_linear_44_48" x1="60.358" y1="15.3837" x2="136.78" y2="25.396" gradientUnits="userSpaceOnUse">
<stop stop-color="#FE474D"/>
<stop offset="1" stop-color="#FBBA38"/>
</linearGradient>
<clipPath id="clip0_44_48">
<rect width="239" height="49" fill="white"/>
</clipPath>
</defs>
</svg>
