<svg width="584" height="144" viewBox="0 0 584 144" fill="none" xmlns="http://www.w3.org/2000/svg">
<g clip-path="url(#clip0_45_105)">
<path d="M135.296 71.544C135.296 106.753 106.754 135.295 71.5441 135.295C36.335 135.295 7.79211 106.753 7.79211 71.544C7.79211 36.3348 36.335 7.79199 71.5441 7.79199C106.753 7.79199 135.296 36.3343 135.296 71.544Z" stroke="#57AE9C" stroke-width="13.9602" stroke-miterlimit="10"/>
<path d="M63.7516 54.3296L63.9168 54.4246L85.4461 41.9942L62.5185 28.9165L41.4386 41.5579V67.4019L63.7516 54.5195V54.3296Z" fill="#57AE9C"/>
<path d="M63.7516 60.3413L41.4386 73.2238V96.8493L63.7516 83.9642V60.3413Z" fill="#57AE9C"/>
<path d="M90.5831 44.7378L68.881 57.268L94.4316 71.8933L63.7516 89.6975V89.4658L41.4386 102.423V102.661L62.3129 115.198L113.691 86.192V57.9192L90.5831 44.7378Z" fill="#57AE9C"/>
<path d="M94.5057 71.6519C110.861 79.7637 108.148 89.107 98.3296 94.6503L62.3424 114.967L41.4685 102.228L94.5057 71.6519Z" fill="url(#paint0_linear_45_105)" fill-opacity="0.419608"/>
<path d="M208.648 16.296C215.956 16.296 222.384 17.6685 227.931 20.4144C233.478 23.1601 237.762 27.0713 240.785 32.1478C243.808 37.2243 245.319 43.115 245.319 49.8199C245.319 56.5249 243.808 62.3839 240.785 67.3961C237.763 72.4089 233.478 76.2884 227.931 79.0336C222.384 81.7793 215.956 83.1519 208.648 83.1519H184.334V16.2948H208.648V16.296ZM208.15 71.7551C215.457 71.7551 221.105 69.8392 225.091 66.0077C229.076 62.1761 231.069 56.7801 231.069 49.8199C231.069 42.8593 229.076 37.4163 225.091 33.4888C221.105 29.5618 215.459 27.5981 208.15 27.5981H198.285V71.7545L208.15 71.7551ZM269.732 16.296V83.153H255.782V16.296H269.732ZM307.498 83.8233C302.649 83.8233 298.281 83.0249 294.395 81.4287C290.509 79.8326 287.436 77.5339 285.177 74.5324C282.919 71.5315 281.757 67.9873 281.69 63.9006H296.637C296.836 66.6463 297.849 68.8172 299.676 70.4141C301.502 72.0108 304.011 72.8086 307.2 72.8086C310.455 72.8086 313.012 72.0582 314.873 70.558C316.733 69.0572 317.663 67.094 317.663 64.6667C317.663 62.6872 317.032 61.0588 315.77 59.7822C314.507 58.5049 312.93 57.4994 311.037 56.7653C309.143 56.0308 306.536 55.2166 303.214 54.3228C298.696 53.0457 295.027 51.7848 292.204 50.5398C289.38 49.2943 286.955 47.4107 284.929 44.8884C282.903 42.3658 281.889 38.9977 281.889 34.7829C281.889 30.8237 282.92 27.3756 284.978 24.4384C287.038 21.5012 289.928 19.2501 293.648 17.6861C297.368 16.1215 301.62 15.3389 306.403 15.3389C313.577 15.3389 319.406 17.0153 323.891 20.3675C328.375 23.7202 330.849 28.3975 331.314 34.4H315.968C315.835 32.1015 314.823 30.2015 312.93 28.7007C311.037 27.2 308.528 26.4501 305.406 26.4501C302.682 26.4501 300.507 27.1203 298.879 28.4613C297.252 29.8023 296.438 31.7503 296.438 34.304C296.438 36.0922 297.053 37.5766 298.282 38.7578C299.511 39.939 301.038 40.8966 302.865 41.6311C304.692 42.3652 307.267 43.2116 310.588 44.1692C315.105 45.4464 318.793 46.7235 321.649 48.0007C324.506 49.2779 326.964 51.1936 329.023 53.748C331.082 56.3024 332.112 59.6546 332.112 63.8051C332.112 67.3809 331.149 70.7014 329.222 73.7667C327.295 76.8321 324.472 79.2741 320.753 81.0944C317.032 82.9142 312.614 83.8244 307.499 83.8244L307.498 83.8233ZM386.817 70.4135H359.116L354.532 83.1525H339.885L364.896 16.2H381.138L406.149 83.1525H391.401L386.817 70.4135ZM383.03 59.6856L372.966 31.7165L362.902 59.6856H383.03ZM491.347 16.2954V83.1525H477.396V39.6669L458.762 83.1525H448.199L429.466 39.6669V83.1525H415.515V16.2954H431.359L453.481 66.0071L475.602 16.2954H491.346H491.347ZM544.558 48.8618C548.477 49.5636 551.7 51.4478 554.224 54.5126C556.747 57.5779 558.01 61.0899 558.01 65.049C558.01 68.6248 557.097 71.7697 555.271 74.4834C553.443 77.1969 550.802 79.3204 547.348 80.8528C543.894 82.3858 539.808 83.1519 535.092 83.1519H505.097V16.2948H533.796C538.512 16.2948 542.581 17.0289 546.002 18.4975C549.424 19.9666 552.014 22.01 553.775 24.6276C555.535 27.2458 556.415 30.2151 556.415 33.5357C556.415 37.4305 555.335 40.6872 553.176 43.3053C551.018 45.9236 548.144 47.7755 544.557 48.8607L544.558 48.8618ZM519.048 43.8807H531.803C535.125 43.8807 537.683 43.1619 539.476 41.7256C541.27 40.2892 542.167 38.2294 542.167 35.5474C542.167 32.8655 541.269 30.79 539.476 29.3213C537.683 27.8527 535.125 27.1182 531.803 27.1182H519.048V43.8807ZM533.098 72.2327C536.487 72.2327 539.127 71.4659 541.02 69.9336C542.913 68.4012 543.86 66.2303 543.86 63.4201C543.86 60.5467 542.863 58.2955 540.871 56.6672C538.878 55.0388 536.188 54.2247 532.8 54.2247H519.048V72.2322L533.098 72.2327ZM583.122 16.2948V83.1519H569.171V16.2948H583.122Z" fill="#5AAF9C"/>
<path d="M191.571 105.363C193.947 105.363 196.035 105.827 197.838 106.755C199.641 107.683 201.033 109.005 202.015 110.722C202.998 112.438 203.489 114.43 203.489 116.697C203.489 118.963 202.998 120.943 202.015 122.639C201.033 124.333 199.641 125.644 197.838 126.572C196.035 127.501 193.947 127.966 191.571 127.966H183.67V105.362L191.571 105.363ZM191.409 124.112C193.785 124.112 195.62 123.464 196.915 122.169C198.211 120.874 198.858 119.05 198.858 116.697C198.858 114.344 198.21 112.503 196.915 111.175C195.62 109.847 193.785 109.183 191.409 109.183H188.205V124.111L191.409 124.112ZM211.422 105.363V127.966H206.889V105.363H211.422ZM231.629 112.162C231.111 111.213 230.399 110.49 229.491 109.994C228.585 109.497 227.527 109.249 226.319 109.249C224.979 109.249 223.793 109.551 222.757 110.156C221.72 110.76 220.91 111.624 220.328 112.746C219.745 113.869 219.453 115.164 219.453 116.632C219.453 118.143 219.751 119.46 220.343 120.582C220.937 121.705 221.763 122.568 222.82 123.172C223.879 123.777 225.109 124.08 226.512 124.08C228.239 124.08 229.653 123.62 230.754 122.703C231.856 121.786 232.578 120.507 232.924 118.866H225.152V115.401H237.393V119.351C237.091 120.927 236.443 122.385 235.45 123.724C234.458 125.062 233.178 126.136 231.613 126.945C230.048 127.756 228.295 128.16 226.351 128.16C224.17 128.16 222.201 127.669 220.442 126.686C218.682 125.704 217.3 124.339 216.296 122.591C215.292 120.841 214.791 118.856 214.791 116.632C214.791 114.408 215.292 112.417 216.296 110.657C217.3 108.898 218.682 107.526 220.442 106.544C222.201 105.562 224.16 105.071 226.319 105.071C228.866 105.071 231.079 105.691 232.957 106.933C234.835 108.174 236.131 109.917 236.843 112.162H231.629ZM245.294 105.363V127.966H240.76V105.363H245.294ZM265.144 105.363V109.022H259.122V127.966H254.587V109.022H248.564V105.363H265.144ZM282.307 123.659H273.305L271.815 127.966H267.055L275.183 105.33H280.462L288.589 127.966H283.796L282.307 123.659ZM281.077 120.031L277.806 110.576L274.535 120.031H281.077ZM296.167 124.371H303.614V127.966H291.633V105.363H296.167V124.371ZM311.031 105.363V127.966H306.497V105.363H311.031ZM323.305 128.192C321.728 128.192 320.308 127.922 319.046 127.382C317.783 126.843 316.784 126.066 316.051 125.051C315.316 124.036 314.939 122.837 314.917 121.455H319.775C319.84 122.384 320.169 123.119 320.763 123.658C321.357 124.198 322.17 124.468 323.207 124.468C324.265 124.468 325.096 124.214 325.701 123.707C326.305 123.199 326.608 122.535 326.608 121.716C326.608 121.046 326.403 120.495 325.993 120.063C325.582 119.633 325.069 119.292 324.454 119.043C323.838 118.795 322.992 118.52 321.911 118.218C320.443 117.786 319.251 117.36 318.334 116.939C317.416 116.517 316.629 115.881 315.969 115.028C315.311 114.175 314.983 113.036 314.983 111.612C314.983 110.273 315.318 109.107 315.986 108.114C316.656 107.121 317.595 106.36 318.804 105.832C320.013 105.303 321.393 105.038 322.948 105.038C325.28 105.038 327.175 105.605 328.631 106.738C330.089 107.872 330.893 109.453 331.044 111.482H326.057C326.014 110.705 325.684 110.063 325.069 109.556C324.454 109.049 323.639 108.795 322.625 108.795C321.74 108.795 321.032 109.021 320.504 109.474C319.975 109.928 319.71 110.586 319.71 111.45C319.71 112.054 319.91 112.556 320.31 112.956C320.709 113.355 321.206 113.679 321.8 113.927C322.394 114.176 323.23 114.462 324.309 114.786C325.777 115.218 326.975 115.65 327.904 116.081C328.832 116.513 329.632 117.16 330.3 118.024C330.969 118.887 331.304 120.021 331.304 121.424C331.304 122.633 330.991 123.755 330.365 124.791C329.739 125.828 328.822 126.653 327.613 127.269C326.404 127.884 324.969 128.191 323.307 128.191L323.305 128.192ZM349.081 123.659H340.078L338.589 127.966H333.829L341.956 105.33H347.234L355.362 127.966H350.57L349.081 123.659ZM347.849 120.031L344.58 110.576L341.309 120.031H347.85H347.849ZM366.211 128.192C364.635 128.192 363.215 127.922 361.952 127.382C360.69 126.843 359.691 126.066 358.957 125.051C358.223 124.036 357.846 122.837 357.823 121.455H362.681C362.746 122.384 363.075 123.119 363.669 123.658C364.263 124.198 365.077 124.468 366.114 124.468C367.172 124.468 368.003 124.214 368.608 123.707C369.211 123.199 369.514 122.535 369.514 121.716C369.514 121.046 369.31 120.495 368.899 120.063C368.488 119.633 367.976 119.292 367.361 119.043C366.746 118.795 365.898 118.52 364.819 118.218C363.35 117.786 362.158 117.36 361.24 116.939C360.323 116.517 359.536 115.881 358.877 115.028C358.217 114.175 357.889 113.036 357.889 111.612C357.889 110.273 358.224 109.107 358.893 108.114C359.562 107.121 360.501 106.36 361.71 105.832C362.919 105.303 364.3 105.038 365.855 105.038C368.187 105.038 370.081 105.605 371.538 106.738C372.996 107.872 373.799 109.453 373.95 111.482H368.964C368.92 110.705 368.591 110.063 367.976 109.556C367.361 109.049 366.546 108.795 365.531 108.795C364.646 108.795 363.939 109.021 363.41 109.474C362.881 109.928 362.617 110.586 362.617 111.45C362.617 112.054 362.816 112.556 363.216 112.956C363.616 113.355 364.112 113.679 364.706 113.927C365.3 114.176 366.136 114.462 367.216 114.786C368.683 115.218 369.882 115.65 370.811 116.081C371.739 116.513 372.538 117.16 373.207 118.024C373.876 118.887 374.21 120.021 374.21 121.424C374.21 122.633 373.898 123.755 373.271 124.791C372.645 125.828 371.729 126.653 370.52 127.269C369.311 127.884 367.875 128.191 366.213 128.191L366.211 128.192ZM382.662 105.363V127.966H378.127V105.363H382.662ZM402.642 128.192C401.066 128.192 399.646 127.922 398.383 127.382C397.121 126.843 396.122 126.066 395.388 125.051C394.654 124.036 394.275 122.837 394.254 121.455H399.112C399.176 122.384 399.505 123.119 400.099 123.658C400.693 124.198 401.508 124.468 402.545 124.468C403.602 124.468 404.433 124.214 405.038 123.707C405.642 123.199 405.945 122.535 405.945 121.716C405.945 121.046 405.739 120.495 405.329 120.063C404.919 119.633 404.407 119.292 403.792 119.043C403.175 118.795 402.329 118.52 401.249 118.218C399.781 117.786 398.589 117.36 397.671 116.939C396.753 116.517 395.965 115.881 395.307 115.028C394.648 114.175 394.32 113.036 394.32 111.612C394.32 110.273 394.655 109.107 395.324 108.114C395.993 107.121 396.932 106.36 398.141 105.832C399.35 105.303 400.731 105.038 402.286 105.038C404.617 105.038 406.512 105.605 407.969 106.738C409.425 107.872 410.23 109.453 410.381 111.482H405.395C405.351 110.705 405.022 110.063 404.407 109.556C403.792 109.049 402.976 108.795 401.962 108.795C401.077 108.795 400.369 109.021 399.841 109.474C399.312 109.928 399.047 110.586 399.047 111.45C399.047 112.054 399.247 112.556 399.647 112.956C400.046 113.355 400.543 113.679 401.137 113.927C401.731 114.176 402.567 114.462 403.646 114.786C405.114 115.218 406.312 115.65 407.241 116.081C408.17 116.513 408.968 117.16 409.638 118.024C410.306 118.887 410.641 120.021 410.641 121.424C410.641 122.633 410.329 123.755 409.702 124.791C409.076 125.828 408.158 126.653 406.95 127.269C405.741 127.884 404.306 128.191 402.643 128.191L402.642 128.192ZM428.418 123.659H419.415L417.926 127.966H413.166L421.294 105.33H426.571L434.699 127.966H429.907L428.418 123.659ZM427.187 120.031L423.917 110.576L420.646 120.031H427.188H427.187ZM462.386 105.363V127.966H457.853V113.264L451.797 127.966H448.365L442.278 113.264V127.966H437.743V105.363H442.893L450.081 122.169L457.27 105.363H462.386ZM479.68 116.372C480.953 116.61 481.999 117.247 482.821 118.283C483.64 119.319 484.051 120.507 484.051 121.845C484.051 123.054 483.754 124.118 483.16 125.035C482.566 125.952 481.709 126.671 480.586 127.189C479.463 127.707 478.136 127.966 476.603 127.966H466.856V105.363H476.182C477.715 105.363 479.037 105.611 480.15 106.107C481.261 106.604 482.103 107.294 482.675 108.179C483.247 109.064 483.533 110.068 483.533 111.191C483.533 112.507 483.182 113.609 482.481 114.493C481.779 115.378 480.845 116.005 479.68 116.372ZM471.389 114.689H475.534C476.613 114.689 477.445 114.445 478.026 113.96C478.61 113.474 478.902 112.777 478.902 111.871C478.902 110.964 478.61 110.263 478.026 109.766C477.445 109.269 476.613 109.022 475.534 109.022H471.389V114.689ZM475.955 124.274C477.055 124.274 477.914 124.015 478.529 123.497C479.144 122.978 479.452 122.245 479.452 121.295C479.452 120.322 479.128 119.562 478.481 119.012C477.833 118.46 476.958 118.186 475.857 118.186H471.389V124.274H475.955ZM492.211 105.363V127.966H487.678V105.363H492.211ZM508.337 127.966L503.35 119.157H501.213V127.966H496.679V105.363H505.163C506.911 105.363 508.401 105.67 509.633 106.285C510.863 106.901 511.786 107.732 512.401 108.779C513.016 109.826 513.324 110.997 513.324 112.292C513.324 113.782 512.892 115.126 512.028 116.324C511.165 117.522 509.88 118.348 508.175 118.801L513.583 127.966H508.337ZM501.214 115.758H505.002C506.233 115.758 507.15 115.461 507.754 114.867C508.359 114.273 508.662 113.447 508.662 112.39C508.662 111.354 508.359 110.549 507.754 109.977C507.149 109.405 506.233 109.119 505.002 109.119H501.214V115.758ZM521.971 109.022V114.69H529.581V118.284H521.971V124.275H530.552V127.967H517.437V105.331H530.552V109.022H521.971ZM547.844 105.363V121.23C547.844 123.432 547.207 125.144 545.933 126.363C544.659 127.583 542.954 128.192 540.817 128.192C538.658 128.192 536.915 127.566 535.587 126.315C534.26 125.062 533.596 123.313 533.596 121.068H538.13C538.151 122.04 538.384 122.795 538.827 123.335C539.269 123.876 539.911 124.145 540.753 124.145C541.573 124.145 542.199 123.886 542.631 123.368C543.063 122.85 543.28 122.137 543.28 121.231V105.364L547.844 105.363ZM563.614 128.192C561.498 128.192 559.555 127.695 557.786 126.703C556.015 125.711 554.612 124.333 553.575 122.574C552.539 120.815 552.021 118.823 552.021 116.6C552.021 114.397 552.539 112.417 553.575 110.657C554.612 108.898 556.015 107.522 557.786 106.529C559.555 105.535 561.498 105.039 563.614 105.039C565.751 105.039 567.699 105.535 569.459 106.529C571.219 107.522 572.611 108.898 573.637 110.657C574.662 112.417 575.175 114.397 575.175 116.6C575.175 118.823 574.662 120.815 573.637 122.574C572.611 124.333 571.213 125.711 569.443 126.703C567.673 127.695 565.73 128.192 563.614 128.192ZM563.614 124.145C564.974 124.145 566.172 123.838 567.209 123.222C568.245 122.606 569.054 121.727 569.638 120.582C570.22 119.438 570.512 118.111 570.512 116.6C570.512 115.088 570.22 113.766 569.638 112.633C569.054 111.5 568.245 110.631 567.209 110.026C566.172 109.422 564.974 109.119 563.614 109.119C562.254 109.119 561.051 109.422 560.004 110.026C558.957 110.631 558.142 111.5 557.559 112.633C556.976 113.766 556.685 115.088 556.685 116.6C556.685 118.111 556.976 119.438 557.559 120.582C558.142 121.727 558.957 122.606 560.004 123.222C561.051 123.838 562.254 124.145 563.614 124.145Z" fill="#5C5A58"/>
</g>
<defs>
<linearGradient id="paint0_linear_45_105" x1="41.4685" y1="93.3093" x2="106.238" y2="93.3093" gradientUnits="userSpaceOnUse">
<stop stop-color="#57AE9C"/>
<stop offset="0.839216" stop-color="#3B9A87"/>
<stop offset="1" stop-color="#1F8671"/>
</linearGradient>
<clipPath id="clip0_45_105">
<rect width="583.814" height="144" fill="white"/>
</clipPath>
</defs>
</svg>
