<svg width="177" height="184" viewBox="0 0 177 184" fill="none" xmlns="http://www.w3.org/2000/svg">
<path d="M73.75 44.2499H103.25C118 44.2499 118 36.875 118 29.5C118 14.75 110.625 14.75 103.25 14.75H73.75C66.375 14.75 59 14.75 59 29.5C59 44.2499 66.375 44.2499 73.75 44.2499Z" stroke="#A58D7F" stroke-width="1.5" stroke-miterlimit="10" stroke-linecap="round" stroke-linejoin="round"/>
<path d="M88.5 162.25H58.3295C28.1591 162.25 22.125 147.483 22.125 117.951V73.6515C22.125 39.9841 32.2019 30.829 52.2955 29.5" stroke="#A58D7F" stroke-width="1.5" stroke-miterlimit="10" stroke-linecap="round" stroke-linejoin="round"/>
<path d="M118 29.5C142.559 30.4672 154.875 37.0765 154.875 61.6329V88.4999" stroke="#A58D7F" stroke-width="1.5" stroke-miterlimit="10" stroke-linecap="round" stroke-linejoin="round"/>
<path d="M59 88.5H110.625" stroke="#A58D7F" stroke-width="1.5" stroke-miterlimit="10" stroke-linecap="round" stroke-linejoin="round"/>
<path d="M137.395 108.274L107.121 140.319C105.978 141.536 104.871 143.932 104.65 145.592L103.286 157.539C102.806 161.854 105.904 164.804 110.181 164.066L122.055 162.038C123.714 161.743 126.038 160.526 127.181 159.272L157.455 127.228C162.691 121.697 165.051 115.391 156.902 107.684C148.789 100.051 142.631 102.743 137.395 108.274Z" stroke="#A58D7F" stroke-width="1.5" stroke-miterlimit="10" stroke-linecap="round" stroke-linejoin="round"/>
<path d="M132.343 113.622C133.929 123.799 142.189 131.58 152.44 132.612" stroke="#A58D7F" stroke-width="1.5" stroke-miterlimit="10" stroke-linecap="round" stroke-linejoin="round"/>
<path d="M58.999 117.125H88.499" stroke="#A58D7F" stroke-width="1.5" stroke-miterlimit="10" stroke-linecap="round" stroke-linejoin="round"/>
</svg>
