<svg width="156" height="40" viewBox="0 0 156 40" fill="none" xmlns="http://www.w3.org/2000/svg">
<g clip-path="url(#clip0_4803_41677)">
<path d="M60.3175 17.5627C59.6207 16.8383 58.5183 16.3213 57.0116 16.0133L53.6771 15.3214C52.4122 15.0642 51.779 14.4937 51.779 13.6087C51.779 13.0304 52.0221 12.5879 52.5071 12.2798C52.9933 11.9717 53.6641 11.8177 54.5195 11.8177C56.411 11.8177 57.542 12.6009 57.9125 14.1661H61.247C61.1066 12.627 60.454 11.4274 59.2918 10.5671C58.1296 9.70813 56.5956 9.27734 54.6924 9.27734C52.8139 9.27734 51.3293 9.68856 50.236 10.5097C49.144 11.3307 48.598 12.4665 48.598 13.9168C48.598 15.0577 48.9555 15.9845 49.6705 16.6973C50.3868 17.4087 51.4658 17.9191 52.9101 18.2272L56.1107 18.8812C56.8387 19.0352 57.3665 19.2598 57.6915 19.5548C58.0178 19.8498 58.1803 20.248 58.1803 20.7479C58.1803 21.3902 57.9242 21.8745 57.4133 22.2008C56.9024 22.5285 56.1419 22.6917 55.1331 22.6917C53.9956 22.6917 53.1051 22.4776 52.4603 22.0469C51.8142 21.6174 51.4346 20.979 51.3189 20.1318H47.9844C48.1001 21.7623 48.7761 23.035 50.0163 23.9527C51.2552 24.8704 52.9166 25.3286 54.9992 25.3286C57.0311 25.3286 58.5989 24.9044 59.7039 24.0585C60.8089 23.2112 61.3614 22.0247 61.3614 20.4973C61.3614 19.2663 61.013 18.2886 60.3175 17.5628L60.3175 17.5627Z" fill="#231F1F"/>
<path d="M66.2583 9.42251C65.919 9.08312 65.5069 8.91211 65.022 8.91211C64.5358 8.91211 64.1237 9.08309 63.7857 9.42251C63.4477 9.76323 63.2773 10.177 63.2773 10.664C63.2773 11.1522 63.4477 11.566 63.7857 11.9054C64.1237 12.2448 64.5358 12.4158 65.022 12.4158C65.5069 12.4158 65.919 12.2448 66.2583 11.9054C66.5963 11.566 66.7653 11.1522 66.7653 10.664C66.7653 10.1771 66.5963 9.76326 66.2583 9.42251ZM63.4308 13.5502V25.0977H66.6132V13.5502H63.4308Z" fill="#231F1F"/>
<path d="M80.697 12.3572V9.50879H69.5625V25.0979H72.8008V18.6701H80.0457V15.8217H72.8008V12.3572H80.697Z" fill="#231F1F"/>
<path d="M93.3108 16.1299C92.8116 15.2318 92.1031 14.5386 91.1827 14.0517C90.2636 13.5634 89.1768 13.3193 87.9249 13.3193C86.66 13.3193 85.5615 13.5634 84.6281 14.0517C83.696 14.5386 82.9771 15.2317 82.4728 16.1299C81.967 17.028 81.7148 18.0867 81.7148 19.3046C81.7148 20.5369 81.9709 21.6021 82.4818 22.5002C82.9927 23.3983 83.7116 24.0941 84.6372 24.5876C85.5641 25.0823 86.6535 25.3291 87.9054 25.3291C89.1573 25.3291 90.2467 25.085 91.1736 24.598C92.0992 24.1098 92.8116 23.414 93.3108 22.5094C93.8087 21.6047 94.0583 20.5435 94.0583 19.3242C94.0583 18.0932 93.8087 17.028 93.3108 16.1299ZM90.1102 21.6818C89.598 22.2653 88.8635 22.5577 87.9054 22.5577C86.9343 22.5577 86.1907 22.2653 85.6733 21.6818C85.1559 21.0983 84.8972 20.3059 84.8972 19.3046C84.8972 18.3047 85.1559 17.5188 85.6733 16.947C86.1907 16.3766 86.9343 16.0907 87.9054 16.0907C88.8635 16.0907 89.598 16.3766 90.1102 16.947C90.6211 17.5188 90.8759 18.3047 90.8759 19.3046C90.8759 20.3058 90.6211 21.0982 90.1102 21.6818Z" fill="#231F1F"/>
<path d="M103.102 13.4155C102.271 13.4155 101.524 13.6152 100.86 14.0121C100.195 14.4102 99.7092 15.0133 99.4037 15.8214H98.5977V13.55H95.3789V16.7064H96.9506V25.0976H100.074V19.2664C100.074 18.3421 100.307 17.5981 100.774 17.0341C101.239 16.4689 101.971 16.1869 102.968 16.1869H104.08V13.4156H103.102L103.102 13.4155Z" fill="#231F1F"/>
<path d="M110.043 22.5952V16.0526H112.667V13.5501H110.004V10.0869H106.899V13.5501H104.887V16.0526H106.86V22.5574C106.86 23.4163 107.088 24.0547 107.541 24.4724C107.994 24.8888 108.631 25.0977 109.448 25.0977H112.936V22.5952H110.042L110.043 22.5952Z" fill="#231F1F"/>
<path d="M126.253 21.9414V13.5503H123.072V19.8632C123.072 20.6974 122.832 21.3383 122.353 21.7874C121.874 22.2365 121.194 22.461 120.312 22.461C119.456 22.461 118.813 22.2534 118.386 21.8357C117.958 21.4193 117.744 20.794 117.744 19.9598V13.5503H114.562V20.5747C114.562 22.0381 114.99 23.192 115.847 24.0392C116.702 24.8864 117.93 25.3094 119.526 25.3094C120.6 25.3094 121.466 25.1292 122.123 24.7703C122.781 24.4113 123.34 23.8917 123.8 23.2116H124.605V25.0979H127.825V21.9414H126.253Z" fill="#231F1F"/>
<path d="M140.426 14.6573C139.551 13.7788 138.315 13.3389 136.717 13.3389C135.708 13.3389 134.865 13.5216 134.187 13.8872C133.51 14.2527 132.949 14.7696 132.501 15.4367H131.697V13.5504H128.477V16.7068H130.048V25.098H133.229V18.785C133.229 17.9391 133.456 17.2943 133.909 16.8517C134.363 16.4092 135.025 16.1873 135.893 16.1873C136.763 16.1873 137.423 16.4092 137.877 16.8517C138.331 17.2943 138.557 17.9391 138.557 18.785V25.098H141.739V18.1885C141.739 16.7134 141.301 15.5359 140.426 14.6574L140.426 14.6573Z" fill="#231F1F"/>
<path d="M154.502 21.9415V17.8425C154.502 16.3674 154.052 15.2448 153.151 14.4746C152.25 13.7044 150.944 13.3193 149.232 13.3193C147.686 13.3193 146.446 13.647 145.514 14.301C144.58 14.9563 143.986 15.9184 143.732 17.1886H146.893C147.162 16.2905 147.941 15.8414 149.232 15.8414C150.714 15.8414 151.455 16.4641 151.455 17.7081V18.1506H148.158C146.676 18.1506 145.54 18.4587 144.747 19.0736C143.955 19.6897 143.559 20.5695 143.559 21.7105C143.559 22.7887 143.942 23.6581 144.709 24.3187C145.475 24.9792 146.536 25.3095 147.89 25.3095C148.887 25.3095 149.717 25.1267 150.382 24.7612C151.045 24.3957 151.576 23.8787 151.972 23.2117H152.777V25.098H155.997V21.9415H154.502H154.502ZM151.455 20.4403C151.455 20.9024 151.321 21.3162 151.053 21.6818C150.784 22.0473 150.42 22.3397 149.96 22.5577C149.5 22.7757 148.969 22.8853 148.37 22.8853C147.82 22.8853 147.386 22.7692 147.066 22.5381C146.746 22.307 146.588 21.9807 146.588 21.5564C146.588 20.6975 147.162 20.268 148.311 20.268H151.455V20.4403V20.4403Z" fill="#231F1F"/>
<path d="M50.3026 32.1051C50.0674 32.1051 49.858 32.0529 49.6721 31.9498C49.4875 31.8453 49.3445 31.7017 49.2405 31.5164C49.1378 31.331 49.0858 31.1195 49.0858 30.8833C49.0858 30.647 49.1378 30.4355 49.2405 30.2501C49.3445 30.0648 49.4875 29.9199 49.6721 29.8167C49.858 29.7123 50.0674 29.6614 50.3026 29.6614C50.6835 29.6614 51.002 29.8102 51.2594 30.1079L51.8236 29.5844C51.6429 29.3664 51.4193 29.1993 51.1528 29.0831C50.8863 28.9669 50.5886 28.9082 50.2597 28.9082C49.8684 28.9082 49.5161 28.993 49.2028 29.1614C48.8895 29.3312 48.6425 29.5661 48.4644 29.8664C48.285 30.1653 48.1953 30.5047 48.1953 30.8833C48.1953 31.2618 48.285 31.5999 48.4644 31.9002C48.6425 32.2004 48.8895 32.4354 49.2028 32.6038C49.5161 32.7735 49.8658 32.8584 50.2545 32.8584C50.5834 32.8584 50.8824 32.7996 51.1502 32.6835C51.418 32.5673 51.6429 32.3976 51.8236 32.1757L51.2594 31.6522C51.002 31.9537 50.6835 32.1052 50.3026 32.1052V32.1051Z" fill="#F9A824"/>
<path d="M54.3788 32.0831V31.1993H56.1442V30.5127H54.3788V29.6838H56.3769V28.9736H53.5039V32.7932H56.4484V32.0831H54.3788Z" fill="#F9A824"/>
<path d="M61.3323 29.6238C61.1971 29.4162 61.006 29.2556 60.7589 29.1434C60.5107 29.0298 60.2182 28.9736 59.8815 28.9736H58.2344V32.7932H59.1145V31.7398H59.8815C60.2182 31.7398 60.5107 31.6837 60.759 31.5727C61.006 31.463 61.1971 31.3025 61.3323 31.0936C61.4662 30.8847 61.5325 30.6393 61.5325 30.3599C61.5325 30.0754 61.4662 29.83 61.3323 29.6237L61.3323 29.6238ZM60.4353 30.8482C60.2975 30.9618 60.0973 31.0192 59.8321 31.0192H59.1145V29.6943H59.8321C60.0973 29.6943 60.2975 29.7517 60.4353 29.8665C60.5731 29.9801 60.642 30.1446 60.642 30.36C60.642 30.5701 60.573 30.7333 60.4353 30.8482Z" fill="#F9A824"/>
<path d="M65.1183 28.9736H64.2499L62.5547 32.7932H63.4556L63.7923 31.9748H65.559L65.8957 32.7932H66.8187L65.1183 28.9736ZM64.0757 31.3038L64.6789 29.8417L65.2821 31.3038H64.0757Z" fill="#F9A824"/>
<path d="M67.6836 28.9736V29.6942H68.9004V32.7932H69.7805V29.6942H70.9973V28.9736H67.6836Z" fill="#F9A824"/>
<path d="M76.1805 30.7734C76.0478 30.6429 75.8879 30.5776 75.6994 30.5776C75.511 30.5776 75.351 30.6429 75.2184 30.7734C75.0858 30.9053 75.0195 31.0685 75.0195 31.2643C75.0195 31.4614 75.0858 31.6259 75.2184 31.759C75.351 31.8909 75.511 31.9574 75.6994 31.9574C75.8879 31.9574 76.0478 31.8909 76.1805 31.759C76.3118 31.6259 76.3781 31.4614 76.3781 31.2643C76.3781 31.0685 76.3118 30.9053 76.1805 30.7734Z" fill="#F9A824"/>
<path d="M80.4062 28.9736V29.6942H81.623V32.7932H82.5031V29.6942H83.7199V28.9736H80.4062Z" fill="#F9A824"/>
<path d="M86.1509 32.0831V31.1993H87.9176V30.5127H86.1509V29.6838H88.1503V28.9736H85.2773V32.7932H88.2218V32.0831H86.1509Z" fill="#F9A824"/>
<path d="M93.1096 29.6238C92.9744 29.4162 92.7834 29.2556 92.535 29.1434C92.288 29.0298 91.9955 28.9736 91.6588 28.9736H90.0117V32.7932H90.8918V31.7398H91.6588C91.9955 31.7398 92.2881 31.6837 92.5351 31.5727C92.7834 31.463 92.9744 31.3025 93.1096 31.0936C93.2436 30.8847 93.3099 30.6393 93.3099 30.3599C93.3099 30.0754 93.2436 29.83 93.1096 29.6237L93.1096 29.6238ZM92.2126 30.8482C92.0748 30.9618 91.8733 31.0192 91.6094 31.0192H90.8918V29.6943H91.6094C91.8733 29.6943 92.0748 29.7517 92.2126 29.8665C92.3504 29.9801 92.4193 30.1446 92.4193 30.36C92.4193 30.5701 92.3504 30.7333 92.2126 30.8482Z" fill="#F9A824"/>
<path d="M96.8917 28.9736H96.022L94.3281 32.7932H95.229L95.5657 31.9748H97.3324L97.6691 32.7932H98.5922L96.8917 28.9736ZM95.8491 31.3038L96.4523 29.8417L97.0542 31.3038H95.8491Z" fill="#F9A824"/>
<path d="M99.457 28.9736V29.6942H100.674V32.7932H101.554V29.6942H102.771V28.9736H99.457Z" fill="#F9A824"/>
<path d="M107.956 30.7734C107.824 30.6429 107.664 30.5776 107.475 30.5776C107.287 30.5776 107.127 30.6429 106.994 30.7734C106.862 30.9053 106.797 31.0685 106.797 31.2643C106.797 31.4614 106.862 31.6259 106.994 31.759C107.127 31.8909 107.287 31.9574 107.475 31.9574C107.664 31.9574 107.824 31.8909 107.956 31.759C108.089 31.6259 108.154 31.4614 108.154 31.2643C108.154 31.0685 108.089 30.9053 107.956 30.7734Z" fill="#F9A824"/>
<path d="M114.673 28.9736H113.803L112.109 32.7932H113.01L113.347 31.9748H115.114L115.45 32.7932H116.373L114.673 28.9736ZM113.63 31.3038L114.234 29.8417L114.835 31.3038H113.63H113.63Z" fill="#F9A824"/>
<path d="M119.82 30.6759L121.395 28.9736H120.418L118.734 30.7581V28.9736H117.859V32.7932H118.734V31.8272L119.244 31.292L120.462 32.7932H121.488L119.82 30.6759Z" fill="#F9A824"/>
<path d="M125.454 28.9737V31.0793C125.454 31.4331 125.381 31.6915 125.237 31.8573C125.093 32.0231 124.882 32.1053 124.607 32.1053C124.042 32.1053 123.759 31.7633 123.759 31.0792V28.9736H122.879V31.1119C122.879 31.6719 123.031 32.104 123.333 32.4055C123.636 32.7071 124.058 32.8585 124.601 32.8585C125.145 32.8585 125.567 32.7071 125.87 32.4055C126.172 32.104 126.324 31.6719 126.324 31.1119V28.9736H125.454L125.454 28.9737Z" fill="#F9A824"/>
<path d="M130.793 31.5649C131.044 31.4565 131.236 31.2986 131.371 31.0936C131.508 30.8874 131.575 30.6433 131.575 30.36C131.575 30.0754 131.509 29.83 131.374 29.6238C131.24 29.4162 131.049 29.2556 130.801 29.1434C130.554 29.0298 130.261 28.9736 129.924 28.9736H128.277V32.7932H129.157V31.7294H129.967L130.701 32.7932H131.646L130.793 31.5649ZM130.478 30.8508C130.34 30.967 130.139 31.0244 129.875 31.0244H129.157V29.6942H129.875C130.139 29.6942 130.34 29.7517 130.478 29.8665C130.616 29.9801 130.685 30.1446 130.685 30.3599C130.685 30.5701 130.616 30.7346 130.478 30.8508V30.8508Z" fill="#F9A824"/>
<path d="M135.424 28.9736H134.555L132.859 32.7932H133.762L134.098 31.9748H135.864L136.2 32.7932H137.125L135.424 28.9736H135.424ZM134.38 31.3038L134.984 29.8417L135.587 31.3038H134.38Z" fill="#F9A824"/>
<path d="M137.984 28.9736V29.6942H139.201V32.7932H140.081V29.6942H141.298V28.9736H137.984Z" fill="#F9A824"/>
<path d="M38.4377 13.0091H34.6571C29.3067 13.0091 24.0726 14.9043 19.9162 18.3463L19.7397 18.4922C15.7098 15.0731 10.5028 13.0091 4.82438 13.0091H1.09766C3.9192 5.41213 11.217 0 19.7646 0C28.3184 0 35.6141 5.41213 38.4378 13.0091H38.4377Z" fill="#2D7C31"/>
<path d="M25.9647 12.9202C24.0882 14.1545 21.9087 14.3103 20.5031 13.4515C20.2803 11.8142 21.2931 9.86997 23.1696 8.63565C25.046 7.40133 27.2256 7.24554 28.6314 8.10469C28.854 9.74168 27.8411 11.6859 25.9647 12.9202H25.9647Z" fill="white"/>
<path d="M14.2439 12.9202C16.1204 14.1545 18.3 14.3103 19.7056 13.4515C19.9284 11.8142 18.9155 9.86997 17.0391 8.63565C15.1626 7.40133 12.983 7.24554 11.5772 8.10469C11.3546 9.74168 12.3675 11.6859 14.244 12.9202H14.2439Z" fill="white"/>
<path d="M17.5547 5.43427C17.5547 7.15834 18.6193 8.62492 20.105 9.16841C21.591 8.62495 22.6556 7.15834 22.6556 5.43427C22.6556 3.71021 21.591 2.24362 20.105 1.7002C18.6193 2.24362 17.5547 3.71021 17.5547 5.43427Z" fill="white"/>
<path d="M19.7681 40.0002C16.0339 40.0002 12.9961 36.9497 12.9961 33.2C12.9961 33.1072 13 33.0148 13.0037 32.9227L13.035 32.1409C13.4559 28.3628 17.1983 24.0555 19.7682 21.6152C22.3511 24.0678 26.1209 28.4091 26.5076 32.2022L26.5324 32.9185C26.5361 33.012 26.54 33.1057 26.54 33.2C26.54 36.9497 23.5022 40.0002 19.7682 40.0002H19.7681Z" fill="#1852D1"/>
<path d="M28.0586 37.1419V38.1899C29.5238 37.5156 30.8953 36.6664 32.1445 35.668C33.5265 34.5652 34.7574 33.2873 35.8036 31.863C36.2669 31.2306 36.6937 30.5695 37.0815 29.8848H35.2831C31.2987 29.8848 28.0586 33.1409 28.0586 37.1419L28.0586 37.1419Z" fill="#F9A824"/>
<path d="M4.19811 29.8848H2.44922C2.837 30.5694 3.26639 31.2306 3.73225 31.863C4.77586 33.2873 6.00946 34.5652 7.39138 35.668C8.62237 36.6559 9.97567 37.4947 11.4253 38.1638V37.1419C11.4253 33.1409 8.18252 29.8848 4.19811 29.8848V29.8848Z" fill="#F9A824"/>
<path d="M6.1503 15.1348C5.49643 14.5317 4.62673 14.1636 3.6699 14.1636C2.73522 14.1636 1.8811 14.516 1.23372 15.093C0.475815 15.7679 0 16.7509 0 17.8448C0 18.7312 0.312009 19.5444 0.83073 20.1789C1.50409 21.0052 2.52722 21.53 3.6699 21.53C4.77622 21.53 5.76679 21.0391 6.43892 20.2598C9.57972 20.5783 12.4553 21.8093 14.7927 23.6864C15.9952 22.15 17.2679 20.8459 18.2261 19.936C14.8967 17.1764 10.7198 15.4207 6.15033 15.1348H6.1503ZM3.6699 19.128C2.96398 19.128 2.39462 18.5536 2.39462 17.8448C2.39462 17.1399 2.96401 16.5655 3.6699 16.5655C4.37191 16.5655 4.9452 17.1399 4.9452 17.8448C4.9452 18.5536 4.37188 19.128 3.6699 19.128Z" fill="#F9A824"/>
<path d="M5.09956 22.5233C4.64584 22.2387 4.11022 22.0742 3.53564 22.0742C2.98315 22.0742 2.46834 22.2257 2.02893 22.4867C1.15924 23.0063 0.578125 23.9553 0.578125 25.0427C0.578125 25.1968 0.588558 25.3482 0.611951 25.4944V25.497C0.658766 25.7946 0.748456 26.0805 0.875822 26.3416C1.12021 26.8481 1.50501 27.2762 1.98083 27.5726C2.43196 27.8519 2.96493 28.0138 3.53561 28.0138C4.07123 28.0138 4.57302 27.8702 5.00593 27.6196C7.49673 27.865 9.70801 29.0777 11.2615 30.8779C11.5202 29.1377 12.3054 27.4003 13.3025 25.8025C11.0353 23.9396 8.2013 22.7426 5.09953 22.5233H5.09956ZM3.53564 26.0779C2.96493 26.0779 2.50475 25.6119 2.50475 25.0427C2.50475 24.4749 2.96493 24.0101 3.53564 24.0101C4.10244 24.0101 4.56265 24.4749 4.56265 25.0427C4.56265 25.6119 4.10244 26.0779 3.53564 26.0779Z" fill="#F9A824"/>
<path d="M38.3008 15.093C37.6535 14.516 36.802 14.1636 35.8686 14.1636C34.9131 14.1636 34.0433 14.5317 33.3908 15.1322C28.9448 15.4076 24.7003 17.1059 21.2891 19.9125C22.242 20.8146 23.5108 22.1134 24.7107 23.6473C27.1053 21.7283 29.9939 20.5496 33.0944 20.2545C33.7678 21.0365 34.7597 21.53 35.8686 21.53C37.01 21.53 38.0331 21.0052 38.7052 20.1789C39.2226 19.5444 39.5346 18.7312 39.5346 17.8448C39.5346 16.7509 39.0588 15.7679 38.3009 15.093H38.3008ZM35.8686 19.128C35.1626 19.128 34.5933 18.5536 34.5933 17.8448C34.5933 17.1399 35.1627 16.5655 35.8686 16.5655C36.5732 16.5655 37.1439 17.1399 37.1439 17.8448C37.1439 18.5537 36.5731 19.128 35.8686 19.128Z" fill="#F9A824"/>
<path d="M37.5119 22.4867C37.0712 22.2257 36.5564 22.0742 36.0052 22.0742C35.4319 22.0742 34.8989 22.2361 34.4491 22.5181C34.4465 22.5181 34.4465 22.5181 34.4465 22.5181C31.3382 22.7243 28.4938 23.9161 26.2188 25.7763C27.2158 27.365 28.005 29.0934 28.2728 30.8282C29.8288 29.0464 32.0415 27.8467 34.5245 27.617C34.9587 27.8702 35.4631 28.0138 36.0052 28.0138C36.5746 28.0138 37.1089 27.8519 37.5587 27.5725C38.0345 27.2736 38.4232 26.8455 38.6676 26.3363C38.6676 26.3337 38.6702 26.3337 38.6702 26.3311C38.795 26.0726 38.8808 25.792 38.9276 25.497V25.4944C38.951 25.3482 38.9614 25.1968 38.9614 25.0427C38.9614 23.9553 38.3777 23.0063 37.5119 22.4867L37.5119 22.4867ZM36.0052 26.0779C35.4371 26.0779 34.9768 25.6119 34.9768 25.0427C34.9768 24.4749 35.4371 24.0101 36.0052 24.0101C36.5719 24.0101 37.0322 24.4749 37.0322 25.0427C37.0322 25.6119 36.5719 26.0779 36.0052 26.0779Z" fill="#F9A824"/>
</g>
<defs>
<clipPath id="clip0_4803_41677">
<rect width="156" height="40" fill="white"/>
</clipPath>
</defs>
</svg>
