<svg width="262" height="63" viewBox="0 0 262 63" fill="none" xmlns="http://www.w3.org/2000/svg">
<path d="M81.7767 23.3998C80.8033 23.3998 79.9233 23.2331 79.1367 22.8998C78.3633 22.5664 77.75 22.0864 77.2967 21.4598C76.8433 20.8331 76.61 20.0931 76.5967 19.2398H79.5967C79.6367 19.8131 79.8367 20.2664 80.1967 20.5998C80.57 20.9331 81.0767 21.0998 81.7167 21.0998C82.37 21.0998 82.8833 20.9464 83.2567 20.6398C83.63 20.3198 83.8167 19.9064 83.8167 19.3998C83.8167 18.9864 83.69 18.6464 83.4367 18.3798C83.1833 18.1131 82.8633 17.9064 82.4767 17.7598C82.1033 17.5998 81.5833 17.4264 80.9167 17.2398C80.01 16.9731 79.27 16.7131 78.6967 16.4598C78.1367 16.1931 77.65 15.7998 77.2367 15.2798C76.8367 14.7464 76.6367 14.0398 76.6367 13.1598C76.6367 12.3331 76.8433 11.6131 77.2567 10.9998C77.67 10.3864 78.25 9.91976 78.9967 9.59977C79.7433 9.26643 80.5967 9.09977 81.5567 9.09977C82.9967 9.09977 84.1633 9.4531 85.0567 10.1598C85.9633 10.8531 86.4633 11.8264 86.5567 13.0798H83.4767C83.45 12.5998 83.2433 12.2064 82.8567 11.8998C82.4833 11.5798 81.9833 11.4198 81.3567 11.4198C80.81 11.4198 80.37 11.5598 80.0367 11.8398C79.7167 12.1198 79.5567 12.5264 79.5567 13.0598C79.5567 13.4331 79.6767 13.7464 79.9167 13.9998C80.17 14.2398 80.4767 14.4398 80.8367 14.5998C81.21 14.7464 81.73 14.9198 82.3967 15.1198C83.3033 15.3864 84.0433 15.6531 84.6167 15.9198C85.19 16.1864 85.6833 16.5864 86.0967 17.1198C86.51 17.6531 86.7167 18.3531 86.7167 19.2198C86.7167 19.9664 86.5233 20.6598 86.1367 21.2998C85.75 21.9398 85.1833 22.4531 84.4367 22.8398C83.69 23.2131 82.8033 23.3998 81.7767 23.3998ZM91.9442 9.29977V23.2598H89.1442V9.29977H91.9442ZM99.5306 23.3998C98.5572 23.3998 97.6772 23.2331 96.8906 22.8998C96.1172 22.5664 95.5039 22.0864 95.0506 21.4598C94.5972 20.8331 94.3639 20.0931 94.3506 19.2398H97.3506C97.3906 19.8131 97.5906 20.2664 97.9506 20.5998C98.3239 20.9331 98.8306 21.0998 99.4706 21.0998C100.124 21.0998 100.637 20.9464 101.011 20.6398C101.384 20.3198 101.571 19.9064 101.571 19.3998C101.571 18.9864 101.444 18.6464 101.191 18.3798C100.937 18.1131 100.617 17.9064 100.231 17.7598C99.8572 17.5998 99.3372 17.4264 98.6706 17.2398C97.7639 16.9731 97.0239 16.7131 96.4506 16.4598C95.8906 16.1931 95.4039 15.7998 94.9906 15.2798C94.5906 14.7464 94.3906 14.0398 94.3906 13.1598C94.3906 12.3331 94.5972 11.6131 95.0106 10.9998C95.4239 10.3864 96.0039 9.91976 96.7506 9.59977C97.4972 9.26643 98.3506 9.09977 99.3106 9.09977C100.751 9.09977 101.917 9.4531 102.811 10.1598C103.717 10.8531 104.217 11.8264 104.311 13.0798H101.231C101.204 12.5998 100.997 12.2064 100.611 11.8998C100.237 11.5798 99.7372 11.4198 99.1106 11.4198C98.5639 11.4198 98.1239 11.5598 97.7906 11.8398C97.4706 12.1198 97.3106 12.5264 97.3106 13.0598C97.3106 13.4331 97.4306 13.7464 97.6706 13.9998C97.9239 14.2398 98.2306 14.4398 98.5906 14.5998C98.9639 14.7464 99.4839 14.9198 100.151 15.1198C101.057 15.3864 101.797 15.6531 102.371 15.9198C102.944 16.1864 103.437 16.5864 103.851 17.1198C104.264 17.6531 104.471 18.3531 104.471 19.2198C104.471 19.9664 104.277 20.6598 103.891 21.2998C103.504 21.9398 102.937 22.4531 102.191 22.8398C101.444 23.2131 100.557 23.3998 99.5306 23.3998ZM116.398 9.29977V11.5598H112.678V23.2598H109.878V11.5598H106.158V9.29977H116.398ZM121.241 11.5598V15.0598H125.941V17.2798H121.241V20.9798H126.541V23.2598H118.441V9.27976H126.541V11.5598H121.241ZM144.306 9.29977V23.2598H141.506V14.1798L137.766 23.2598H135.646L131.886 14.1798V23.2598H129.086V9.29977H132.266L136.706 19.6798L141.146 9.29977H144.306ZM154.639 9.29977V23.2598H151.839V9.29977H154.639ZM169.346 23.2598H166.546L160.206 13.6798V23.2598H157.406V9.27976H160.206L166.546 18.8798V9.27976H169.346V23.2598ZM180.733 9.29977V11.5598H174.913V15.1398H179.373V17.3598H174.913V23.2598H172.113V9.29977H180.733ZM189.198 23.3998C187.892 23.3998 186.692 23.0931 185.598 22.4798C184.505 21.8664 183.638 21.0198 182.998 19.9398C182.358 18.8464 182.038 17.6131 182.038 16.2398C182.038 14.8798 182.358 13.6598 182.998 12.5798C183.638 11.4864 184.505 10.6331 185.598 10.0198C186.692 9.40643 187.892 9.09977 189.198 9.09977C190.518 9.09977 191.718 9.40643 192.798 10.0198C193.892 10.6331 194.752 11.4864 195.378 12.5798C196.018 13.6598 196.338 14.8798 196.338 16.2398C196.338 17.6131 196.018 18.8464 195.378 19.9398C194.752 21.0198 193.892 21.8664 192.798 22.4798C191.705 23.0931 190.505 23.3998 189.198 23.3998ZM189.198 20.8998C190.038 20.8998 190.778 20.7131 191.418 20.3398C192.058 19.9531 192.558 19.4064 192.918 18.6998C193.278 17.9931 193.458 17.1731 193.458 16.2398C193.458 15.3064 193.278 14.4931 192.918 13.7998C192.558 13.0931 192.058 12.5531 191.418 12.1798C190.778 11.8064 190.038 11.6198 189.198 11.6198C188.358 11.6198 187.612 11.8064 186.958 12.1798C186.318 12.5531 185.818 13.0931 185.458 13.7998C185.098 14.4931 184.918 15.3064 184.918 16.2398C184.918 17.1731 185.098 17.9931 185.458 18.6998C185.818 19.4064 186.318 19.9531 186.958 20.3398C187.612 20.7131 188.358 20.8998 189.198 20.8998ZM205.622 23.2598L202.542 17.8198H201.222V23.2598H198.422V9.29977H203.662C204.742 9.29977 205.662 9.4931 206.422 9.87977C207.182 10.2531 207.748 10.7664 208.122 11.4198C208.508 12.0598 208.702 12.7798 208.702 13.5798C208.702 14.4998 208.435 15.3331 207.902 16.0798C207.368 16.8131 206.575 17.3198 205.522 17.5998L208.862 23.2598H205.622ZM201.222 15.7198H203.562C204.322 15.7198 204.888 15.5398 205.262 15.1798C205.635 14.8064 205.822 14.2931 205.822 13.6398C205.822 12.9998 205.635 12.5064 205.262 12.1598C204.888 11.7998 204.322 11.6198 203.562 11.6198H201.222V15.7198ZM226.454 9.29977V23.2598H223.654V14.1798L219.914 23.2598H217.794L214.034 14.1798V23.2598H211.234V9.29977H214.414L218.854 19.6798L223.294 9.29977H226.454ZM237.782 20.5998H232.222L231.302 23.2598H228.362L233.382 9.27976H236.642L241.662 23.2598H238.702L237.782 20.5998ZM237.022 18.3598L235.002 12.5198L232.982 18.3598H237.022ZM248.359 23.3998C247.385 23.3998 246.505 23.2331 245.719 22.8998C244.945 22.5664 244.332 22.0864 243.879 21.4598C243.425 20.8331 243.192 20.0931 243.179 19.2398H246.179C246.219 19.8131 246.419 20.2664 246.779 20.5998C247.152 20.9331 247.659 21.0998 248.299 21.0998C248.952 21.0998 249.465 20.9464 249.839 20.6398C250.212 20.3198 250.399 19.9064 250.399 19.3998C250.399 18.9864 250.272 18.6464 250.019 18.3798C249.765 18.1131 249.445 17.9064 249.059 17.7598C248.685 17.5998 248.165 17.4264 247.499 17.2398C246.592 16.9731 245.852 16.7131 245.279 16.4598C244.719 16.1931 244.232 15.7998 243.819 15.2798C243.419 14.7464 243.219 14.0398 243.219 13.1598C243.219 12.3331 243.425 11.6131 243.839 10.9998C244.252 10.3864 244.832 9.91976 245.579 9.59977C246.325 9.26643 247.179 9.09977 248.139 9.09977C249.579 9.09977 250.745 9.4531 251.639 10.1598C252.545 10.8531 253.045 11.8264 253.139 13.0798H250.059C250.032 12.5998 249.825 12.2064 249.439 11.8998C249.065 11.5798 248.565 11.4198 247.939 11.4198C247.392 11.4198 246.952 11.5598 246.619 11.8398C246.299 12.1198 246.139 12.5264 246.139 13.0598C246.139 13.4331 246.259 13.7464 246.499 13.9998C246.752 14.2398 247.059 14.4398 247.419 14.5998C247.792 14.7464 248.312 14.9198 248.979 15.1198C249.885 15.3864 250.625 15.6531 251.199 15.9198C251.772 16.1864 252.265 16.5864 252.679 17.1198C253.092 17.6531 253.299 18.3531 253.299 19.2198C253.299 19.9664 253.105 20.6598 252.719 21.2998C252.332 21.9398 251.765 22.4531 251.019 22.8398C250.272 23.2131 249.385 23.3998 248.359 23.3998ZM258.526 9.29977V23.2598H255.726V9.29977H258.526ZM87.1367 43.6198C87.1367 44.3664 86.9567 45.0664 86.5967 45.7198C86.25 46.3731 85.6967 46.8998 84.9367 47.2998C84.19 47.6998 83.2433 47.8998 82.0967 47.8998H79.7567V53.2598H76.9567V39.2998H82.0967C83.1767 39.2998 84.0967 39.4864 84.8567 39.8598C85.6167 40.2331 86.1833 40.7464 86.5567 41.3998C86.9433 42.0531 87.1367 42.7931 87.1367 43.6198ZM81.9767 45.6398C82.75 45.6398 83.3233 45.4664 83.6967 45.1198C84.07 44.7598 84.2567 44.2598 84.2567 43.6198C84.2567 42.2598 83.4967 41.5798 81.9767 41.5798H79.7567V45.6398H81.9767ZM91.8846 39.2998V47.9398C91.8846 48.8864 92.1313 49.6131 92.6246 50.1198C93.118 50.6131 93.8113 50.8598 94.7046 50.8598C95.6113 50.8598 96.3113 50.6131 96.8046 50.1198C97.298 49.6131 97.5446 48.8864 97.5446 47.9398V39.2998H100.365V47.9198C100.365 49.1064 100.105 50.1131 99.5846 50.9398C99.078 51.7531 98.3913 52.3664 97.5246 52.7798C96.6713 53.1931 95.718 53.3998 94.6646 53.3998C93.6246 53.3998 92.678 53.1931 91.8246 52.7798C90.9846 52.3664 90.318 51.7531 89.8246 50.9398C89.3313 50.1131 89.0846 49.1064 89.0846 47.9198V39.2998H91.8846ZM107.89 53.3998C106.917 53.3998 106.037 53.2331 105.25 52.8998C104.477 52.5664 103.863 52.0864 103.41 51.4598C102.957 50.8331 102.723 50.0931 102.71 49.2398H105.71C105.75 49.8131 105.95 50.2664 106.31 50.5998C106.683 50.9331 107.19 51.0998 107.83 51.0998C108.483 51.0998 108.997 50.9464 109.37 50.6398C109.743 50.3198 109.93 49.9064 109.93 49.3998C109.93 48.9864 109.803 48.6464 109.55 48.3798C109.297 48.1131 108.977 47.9064 108.59 47.7598C108.217 47.5998 107.697 47.4264 107.03 47.2398C106.123 46.9731 105.383 46.7131 104.81 46.4598C104.25 46.1931 103.763 45.7998 103.35 45.2798C102.95 44.7464 102.75 44.0398 102.75 43.1598C102.75 42.3331 102.957 41.6131 103.37 40.9998C103.783 40.3864 104.363 39.9198 105.11 39.5998C105.857 39.2664 106.71 39.0998 107.67 39.0998C109.11 39.0998 110.277 39.4531 111.17 40.1598C112.077 40.8531 112.577 41.8264 112.67 43.0798H109.59C109.563 42.5998 109.357 42.2064 108.97 41.8998C108.597 41.5798 108.097 41.4198 107.47 41.4198C106.923 41.4198 106.483 41.5598 106.15 41.8398C105.83 42.1198 105.67 42.5264 105.67 43.0598C105.67 43.4331 105.79 43.7464 106.03 43.9998C106.283 44.2398 106.59 44.4398 106.95 44.5998C107.323 44.7464 107.843 44.9198 108.51 45.1198C109.417 45.3864 110.157 45.6531 110.73 45.9198C111.303 46.1864 111.797 46.5864 112.21 47.1198C112.623 47.6531 112.83 48.3531 112.83 49.2198C112.83 49.9664 112.637 50.6598 112.25 51.2998C111.863 51.9398 111.297 52.4531 110.55 52.8398C109.803 53.2131 108.917 53.3998 107.89 53.3998ZM123.137 53.2598L118.057 47.0398V53.2598H115.257V39.2998H118.057V45.5598L123.137 39.2998H126.517L120.757 46.2198L126.677 53.2598H123.137ZM131.319 41.5598V45.0598H136.019V47.2798H131.319V50.9798H136.619V53.2598H128.519V39.2798H136.619V41.5598H131.319ZM143.984 53.3998C143.01 53.3998 142.13 53.2331 141.344 52.8998C140.57 52.5664 139.957 52.0864 139.504 51.4598C139.05 50.8331 138.817 50.0931 138.804 49.2398H141.804C141.844 49.8131 142.044 50.2664 142.404 50.5998C142.777 50.9331 143.284 51.0998 143.924 51.0998C144.577 51.0998 145.09 50.9464 145.464 50.6398C145.837 50.3198 146.024 49.9064 146.024 49.3998C146.024 48.9864 145.897 48.6464 145.644 48.3798C145.39 48.1131 145.07 47.9064 144.684 47.7598C144.31 47.5998 143.79 47.4264 143.124 47.2398C142.217 46.9731 141.477 46.7131 140.904 46.4598C140.344 46.1931 139.857 45.7998 139.444 45.2798C139.044 44.7464 138.844 44.0398 138.844 43.1598C138.844 42.3331 139.05 41.6131 139.464 40.9998C139.877 40.3864 140.457 39.9198 141.204 39.5998C141.95 39.2664 142.804 39.0998 143.764 39.0998C145.204 39.0998 146.37 39.4531 147.264 40.1598C148.17 40.8531 148.67 41.8264 148.764 43.0798H145.684C145.657 42.5998 145.45 42.2064 145.064 41.8998C144.69 41.5798 144.19 41.4198 143.564 41.4198C143.017 41.4198 142.577 41.5598 142.244 41.8398C141.924 42.1198 141.764 42.5264 141.764 43.0598C141.764 43.4331 141.884 43.7464 142.124 43.9998C142.377 44.2398 142.684 44.4398 143.044 44.5998C143.417 44.7464 143.937 44.9198 144.604 45.1198C145.51 45.3864 146.25 45.6531 146.824 45.9198C147.397 46.1864 147.89 46.5864 148.304 47.1198C148.717 47.6531 148.924 48.3531 148.924 49.2198C148.924 49.9664 148.73 50.6598 148.344 51.2998C147.957 51.9398 147.39 52.4531 146.644 52.8398C145.897 53.2131 145.01 53.3998 143.984 53.3998ZM166.571 39.2998V53.2598H163.771V44.1798L160.031 53.2598H157.911L154.151 44.1798V53.2598H151.351V39.2998H154.531L158.971 49.6798L163.411 39.2998H166.571ZM177.899 50.5998H172.339L171.419 53.2598H168.479L173.499 39.2798H176.759L181.779 53.2598H178.819L177.899 50.5998ZM177.139 48.3598L175.119 42.5198L173.099 48.3598H177.139ZM188.476 53.3998C187.503 53.3998 186.623 53.2331 185.836 52.8998C185.063 52.5664 184.449 52.0864 183.996 51.4598C183.543 50.8331 183.309 50.0931 183.296 49.2398H186.296C186.336 49.8131 186.536 50.2664 186.896 50.5998C187.269 50.9331 187.776 51.0998 188.416 51.0998C189.069 51.0998 189.583 50.9464 189.956 50.6398C190.329 50.3198 190.516 49.9064 190.516 49.3998C190.516 48.9864 190.389 48.6464 190.136 48.3798C189.883 48.1131 189.563 47.9064 189.176 47.7598C188.803 47.5998 188.283 47.4264 187.616 47.2398C186.709 46.9731 185.969 46.7131 185.396 46.4598C184.836 46.1931 184.349 45.7998 183.936 45.2798C183.536 44.7464 183.336 44.0398 183.336 43.1598C183.336 42.3331 183.543 41.6131 183.956 40.9998C184.369 40.3864 184.949 39.9198 185.696 39.5998C186.443 39.2664 187.296 39.0998 188.256 39.0998C189.696 39.0998 190.863 39.4531 191.756 40.1598C192.663 40.8531 193.163 41.8264 193.256 43.0798H190.176C190.149 42.5998 189.943 42.2064 189.556 41.8998C189.183 41.5798 188.683 41.4198 188.056 41.4198C187.509 41.4198 187.069 41.5598 186.736 41.8398C186.416 42.1198 186.256 42.5264 186.256 43.0598C186.256 43.4331 186.376 43.7464 186.616 43.9998C186.869 44.2398 187.176 44.4398 187.536 44.5998C187.909 44.7464 188.429 44.9198 189.096 45.1198C190.003 45.3864 190.743 45.6531 191.316 45.9198C191.889 46.1864 192.383 46.5864 192.796 47.1198C193.209 47.6531 193.416 48.3531 193.416 49.2198C193.416 49.9664 193.223 50.6598 192.836 51.2998C192.449 51.9398 191.883 52.4531 191.136 52.8398C190.389 53.2131 189.503 53.3998 188.476 53.3998Z" fill="#16192C"/>
<rect width="62.9808" height="62.9808" rx="14" fill="#00BFA6"/>
<rect x="17.6265" y="20.0015" width="13.8558" height="5.03846" rx="2" fill="white" fill-opacity="0.7"/>
<rect x="13.8457" y="30.0776" width="12.5962" height="5.03846" rx="2" fill="white" fill-opacity="0.7"/>
<rect x="17.6265" y="40.1543" width="13.8558" height="5.03846" rx="2" fill="white" fill-opacity="0.7"/>
<path d="M41.5592 42.8264C40.557 42.8264 39.5958 42.4283 38.8871 41.7196C38.1785 41.0109 37.7803 40.0498 37.7803 39.0475V35.2687H34.0015C32.9993 35.2687 32.0381 34.8706 31.3295 34.1619C30.6208 33.4532 30.2227 32.4921 30.2227 31.4899C30.2227 30.4876 30.6208 29.5265 31.3295 28.8178C32.0381 28.1091 32.9993 27.711 34.0015 27.711H37.7803V23.9322C37.7803 22.93 38.1785 21.9688 38.8871 21.2601C39.5958 20.5514 40.557 20.1533 41.5592 20.1533C42.5614 20.1533 43.5226 20.5514 44.2312 21.2601C44.9399 21.9688 45.338 22.93 45.338 23.9322V27.711H49.1169C50.1191 27.711 51.0803 28.1091 51.7889 28.8178C52.4976 29.5265 52.8957 30.4876 52.8957 31.4899C52.8957 32.4921 52.4976 33.4532 51.7889 34.1619C51.0803 34.8706 50.1191 35.2687 49.1169 35.2687H45.338V39.0475C45.338 40.0498 44.9399 41.0109 44.2312 41.7196C43.5226 42.4283 42.5614 42.8264 41.5592 42.8264Z" fill="white"/>
</svg>
