<svg width="260" height="47" viewBox="0 0 260 47" fill="none" xmlns="http://www.w3.org/2000/svg">
<g clip-path="url(#clip0_45_121)">
<path fill-rule="evenodd" clip-rule="evenodd" d="M19.1419 30.6727C25.9439 30.4215 30.8949 20.8845 25.933 15.8735C23.3419 13.257 16.0995 11.9931 12.1738 10.8309C4.81226 8.65213 9.06259 5.5223 14.0267 5.80428C17.3558 5.99343 17.9607 7.14267 19.4303 9.16194L26.4855 8.05067C25.9923 1.99714 19.4483 -0.625964 12.3949 0.125397C7.38335 0.523115 0.999847 7.62188 6.09227 12.0586C9.7901 15.2802 17.4779 14.506 21.8487 17.7765C27.8979 22.3026 23.3737 28.1727 19.1419 30.6727H19.1419Z" fill="#534741"/>
<path fill-rule="evenodd" clip-rule="evenodd" d="M7.58932 21.1536L0.000488281 22.176C0.699177 29.7459 11.5189 33.1843 17.7508 30.2504C21.7911 28.3476 25.0021 24.2138 23.3564 20.5868C21.3039 16.0637 12.4779 16.4819 7.68399 14.2259C0.793211 10.983 2.96786 4.78411 7.57013 1.0166C0.563181 2.52884 -4.8514 14.2282 10.483 18.3819C13.1737 19.111 23.635 20.3291 18.7894 24.3601C17.4432 25.4799 14.1165 25.9179 12.0307 25.4554C9.08033 24.801 8.62083 23.5113 7.58932 21.1535V21.1536Z" fill="url(#paint0_linear_45_121)"/>
<path d="M44.6844 28.602H33.5278V27.8905H34.4609C35.6519 27.8905 36.4162 27.6138 36.7537 27.0506C37.0813 26.4971 37.25 25.4793 37.25 24.0167V7.276C37.25 5.64541 37.0415 4.59788 36.6147 4.1136C36.1879 3.6393 35.4634 3.40211 34.4609 3.40211H33.5278V2.69063H44.6844V3.40211H43.7514C42.9871 3.40211 42.3221 3.59974 41.7761 4.00491C41.2203 4.41008 40.9424 5.507 40.9424 7.27593V24.0166C40.9424 25.5384 41.0515 26.4673 41.2799 26.8034C41.4982 27.1295 41.8456 27.3963 42.3221 27.594C42.7885 27.7916 43.265 27.8905 43.7514 27.8905H44.6844V28.602V28.602ZM57.3616 16.4665V24.0167C57.3616 25.7263 57.5998 26.8035 58.0862 27.2382C58.5724 27.6731 59.2375 27.8905 60.1011 27.8905H61.1135V28.602H49.9569V27.8905H50.9297C52.0116 27.8905 52.7461 27.6236 53.1233 27.0801C53.4906 26.5366 53.6791 25.5187 53.6791 24.0166V7.27593C53.6791 5.54648 53.4409 4.4693 52.9546 4.04439C52.4782 3.60957 51.8031 3.40211 50.9297 3.40211H49.9569V2.69063H59.4956C63.0986 2.69063 65.719 3.38229 67.337 4.78569C68.9648 6.17901 69.7787 7.86898 69.7787 9.85527C69.7787 12.0788 69.0541 13.8181 67.6049 15.0928C66.1656 16.3677 64.2004 17.01 61.7288 17.01C60.4781 17.01 59.029 16.8321 57.3615 16.4665H57.3616ZM57.3616 4.59788V15.3893C58.7115 15.6364 59.7636 15.7649 60.508 15.7649C62.0663 15.7649 63.2674 15.1918 64.121 14.0454C64.9846 12.899 65.4114 11.6341 65.4114 10.2308C65.4114 8.29388 64.8953 6.81154 63.8531 5.78375C62.8109 4.75604 61.4809 4.24218 59.8728 4.24218C59.2277 4.24218 58.384 4.36078 57.3617 4.59796L57.3616 4.59788ZM97.94 22.0995L95.6968 28.602H75.6368V27.8905H76.56C77.4731 27.8905 78.1679 27.6632 78.6543 27.1988C79.1307 26.7343 79.3689 25.6868 79.3689 24.0463V7.2068C79.3689 5.44778 79.1406 4.38044 78.6742 3.98517C78.2077 3.58991 77.5028 3.40219 76.56 3.40219H75.6368V2.69071H95.6968L95.9846 8.36309H95.2303C94.8927 6.60408 94.4065 5.45769 93.7713 4.91419C93.136 4.38059 91.9449 4.10385 90.1881 4.10385H83.0514V14.342H88.7588C90.0987 14.342 91.0913 14.1245 91.7465 13.6898C92.4015 13.2549 92.7788 12.2173 92.8581 10.5768H93.5629V19.5993H92.8581C92.6993 17.8502 92.2626 16.773 91.5479 16.358C90.8333 15.9528 89.9102 15.7453 88.7588 15.7453H83.0514V24.2836C83.0514 25.5091 83.1705 26.2997 83.4287 26.6554C83.6769 27.0112 84.2724 27.1791 85.1954 27.1791H89.6025C91.4288 27.1791 92.8581 26.8925 93.8904 26.3193C94.9226 25.7363 96.0145 24.333 97.1856 22.0996H97.94V22.0995ZM129.059 28.602H122.111L113.297 16.4863C112.652 16.516 112.126 16.5258 111.719 16.5258C111.501 16.5258 111.124 16.516 110.588 16.4863V24.0167C110.588 25.7263 110.826 26.8035 111.302 27.2382C111.779 27.6731 112.444 27.8905 113.297 27.8905H114.32V28.602H103.163V27.8905H104.156C105.228 27.8905 105.962 27.6137 106.339 27.0603C106.726 26.507 106.915 25.4891 106.915 24.0166V7.27593C106.915 5.55639 106.677 4.48912 106.19 4.0543C105.704 3.61948 105.029 3.40211 104.156 3.40211H103.163V2.69063H112.642C114.975 2.69063 116.841 2.83887 118.25 3.13536C119.66 3.44167 120.89 4.16307 121.923 5.30945C122.965 6.45583 123.481 7.80968 123.481 9.36123C123.481 12.8398 121.337 15.0436 117.069 15.9923L122.449 23.4238C123.789 25.2619 124.92 26.4379 125.853 26.9518C126.786 27.4656 127.858 27.772 129.059 27.8906V28.6021L129.059 28.602ZM110.587 4.49903V15.2806H111.659C113.952 15.2806 115.779 14.7865 117.129 13.7983C118.488 12.8101 119.163 11.4167 119.163 9.60825C119.163 7.75038 118.598 6.36689 117.466 5.47751C116.334 4.58805 115.044 4.13342 113.595 4.13342C112.364 4.13342 111.362 4.26192 110.587 4.49911V4.49903ZM147.444 3.40211H146.511C145.33 3.40211 144.565 3.68869 144.228 4.25193C143.89 4.82508 143.722 5.83314 143.722 7.276V19.9451C143.722 22.8604 143.106 25.1333 141.875 26.7541C140.654 28.3846 139.047 29.1949 137.061 29.1949C136.009 29.1949 135.106 28.9281 134.332 28.3945C133.558 27.8609 133.18 27.1493 133.18 26.2698C133.18 24.9258 133.826 24.2538 135.136 24.2538C135.96 24.2538 136.744 25.1037 137.478 26.8034C137.766 27.4951 138.153 27.8312 138.61 27.8312C139.563 27.8312 140.039 26.8824 140.039 24.9652V7.27593C140.039 5.66507 139.831 4.61755 139.424 4.13326C139.007 3.63922 138.282 3.40203 137.23 3.40203H136.287V2.69055H147.444V3.40203L147.444 3.40211ZM179.278 28.602H169.014V27.8905C170.781 27.8015 171.665 27.2778 171.665 26.3192C171.665 25.7559 171.406 24.8665 170.89 23.651L169.322 19.9352H159.248L157.471 24.0167C157.044 24.995 156.836 25.746 156.836 26.2699C156.836 27.2086 157.838 27.7521 159.843 27.8905V28.602H151.644V27.8905C152.627 27.7225 153.362 27.4556 153.848 27.09C154.324 26.7244 155.019 25.499 155.913 23.4238L165.074 2.09766H165.749L174.801 23.651C175.436 25.153 176.042 26.2203 176.618 26.843C177.203 27.4656 178.087 27.8114 179.278 27.8905V28.602L179.278 28.602ZM168.786 18.5121L164.369 8.04671L159.843 18.5121H168.786ZM184.044 28.602V27.8905H185.037C186.128 27.8905 186.863 27.6137 187.24 27.0505C187.617 26.4971 187.796 25.4792 187.796 24.0166V7.27593C187.796 5.54648 187.558 4.4693 187.061 4.04439C186.575 3.60957 185.9 3.40211 185.037 3.40211H184.044V2.69063H194.645C197.603 2.69063 200.153 2.9772 202.307 3.55036C204.451 4.12351 206.317 5.47743 207.896 7.60214C209.474 9.71694 210.268 12.3555 210.268 15.5178C210.268 17.9588 209.732 20.1823 208.66 22.2082C207.588 24.2242 205.99 25.7955 203.856 26.9121C201.732 28.0388 199.002 28.602 195.677 28.602H184.044V28.602ZM191.478 4.70649V26.7342C193.106 27.09 194.466 27.2678 195.568 27.2678C198.992 27.2678 201.573 26.1116 203.3 23.7991C205.027 21.4768 205.891 18.7788 205.891 15.7055C205.891 12.227 204.938 9.43028 203.042 7.3154C201.136 5.20061 198.595 4.13326 195.419 4.13326C194.268 4.13326 192.948 4.32106 191.478 4.70641V4.70649ZM227.551 28.602H216.394V27.8905H217.327C218.518 27.8905 219.282 27.6137 219.62 27.0505C219.948 26.4971 220.116 25.4792 220.116 24.0166V7.27593C220.116 5.64533 219.908 4.59781 219.481 4.11352C219.054 3.63922 218.33 3.40203 217.327 3.40203H216.394V2.69055H227.551V3.40203H226.618C225.853 3.40203 225.188 3.59966 224.642 4.00483C224.086 4.41001 223.809 5.50692 223.809 7.27585V24.0165C223.809 25.5383 223.918 26.4673 224.146 26.8033C224.364 27.1294 224.712 27.3962 225.188 27.5939C225.655 27.7915 226.131 27.8904 226.618 27.8904H227.551V28.6019V28.602ZM260 3.40211H259.077C257.965 3.40211 257.231 3.66895 256.863 4.21245C256.496 4.74605 256.317 5.74419 256.317 7.17715V29.017H255.623L238.461 8.16538V24.1155C238.461 25.8152 238.699 26.8628 239.166 27.2778C239.642 27.6831 240.327 27.8905 241.23 27.8905H242.144V28.602H233.081V27.8905H233.985C234.789 27.8905 235.454 27.6928 235.99 27.2877C236.516 26.8825 236.774 25.8252 236.774 24.1155V6.09014C235.9 5.08217 235.086 4.38052 234.312 3.98517C233.538 3.58991 232.655 3.40219 231.642 3.40219V2.69071H238.709L254.62 22.1292V7.17723C254.62 5.48734 254.382 4.43981 253.896 4.02473C253.419 3.60965 252.734 3.40219 251.841 3.40219H250.938V2.69071H260V3.40219L260 3.40211Z" fill="#534741"/>
<path d="M3.99271 47H3.75328V44.0238H3.99271C4.28858 45.6757 5.15313 46.5001 6.58617 46.5001C7.08159 46.5001 7.49395 46.3677 7.82311 46.1027C8.15235 45.8379 8.31852 45.4969 8.31852 45.0799C8.31852 44.6098 8.07583 44.1926 7.59364 43.8251C6.44986 43.1597 5.51222 42.5903 4.77396 42.1103C4.03921 41.6303 3.67334 40.9946 3.67334 40.2066C3.67334 39.5545 3.91611 39.0115 4.40818 38.5779C4.89698 38.1408 5.50211 37.9224 6.22373 37.9224C6.69255 37.9224 7.18127 38.0349 7.69675 38.2601C7.93944 38.3693 8.10904 38.4223 8.20546 38.4223C8.43167 38.4223 8.57785 38.2534 8.65103 37.9224H8.88711V40.925H8.65103C8.52467 40.0378 8.23205 39.4023 7.77653 39.0149C7.31767 38.6275 6.80561 38.4355 6.24037 38.4355C5.81805 38.4355 5.45227 38.5646 5.1497 38.8229C4.84714 39.0779 4.69418 39.3923 4.69418 39.7631C4.69418 40.0047 4.79721 40.2597 5.00344 40.5279C5.20966 40.7993 5.83143 41.2132 6.86883 41.766C7.5039 42.1069 7.98602 42.385 8.31526 42.6036C8.64108 42.8221 8.91378 43.1067 9.13322 43.4544C9.35266 43.802 9.46246 44.1794 9.46246 44.5865C9.46246 45.2785 9.19979 45.8512 8.67101 46.3113C8.14574 46.7715 7.49403 47 6.72257 47C6.30359 47 5.78493 46.8973 5.16642 46.6954C4.78734 46.5696 4.52467 46.5067 4.38174 46.5067C4.17226 46.5067 4.04255 46.6689 3.99271 47ZM14.2372 46.8013H10.4999V46.5629H10.8124C11.2115 46.5629 11.4674 46.4703 11.5806 46.2816C11.6903 46.0962 11.7468 45.7551 11.7468 45.2652V39.6572C11.7468 39.1109 11.677 38.7601 11.5341 38.5979C11.3911 38.4389 11.1484 38.3595 10.8125 38.3595H10.4999V38.1211H14.2373V38.3595H13.9248C13.6687 38.3595 13.4459 38.4257 13.2631 38.5614C13.0769 38.6971 12.9838 39.0645 12.9838 39.6572V45.2652C12.9838 45.775 13.0203 46.0862 13.0968 46.1987C13.1699 46.308 13.2863 46.3974 13.4459 46.4636C13.6022 46.5299 13.7618 46.5629 13.9248 46.5629H14.2373V46.8013H14.2372ZM15.7003 47H15.4609V44.0238H15.7003C15.9962 45.6757 16.8608 46.5001 18.2938 46.5001C18.7892 46.5001 19.2016 46.3677 19.5307 46.1027C19.86 45.8379 20.0262 45.4969 20.0262 45.0799C20.0262 44.6098 19.7835 44.1926 19.3013 43.8251C18.1575 43.1597 17.2199 42.5903 16.4816 42.1103C15.7468 41.6303 15.381 40.9946 15.381 40.2066C15.381 39.5545 15.6237 39.0115 16.1158 38.5779C16.6046 38.1408 17.2097 37.9224 17.9314 37.9224C18.4002 37.9224 18.8889 38.0349 19.4044 38.2601C19.6471 38.3693 19.8167 38.4223 19.9131 38.4223C20.1393 38.4223 20.2855 38.2534 20.3587 37.9224H20.5947V40.925H20.3587C20.2323 40.0378 19.9397 39.4023 19.4842 39.0149C19.0253 38.6275 18.5132 38.4355 17.948 38.4355C17.5257 38.4355 17.1599 38.5646 16.8573 38.8229C16.5548 39.0779 16.4018 39.3923 16.4018 39.7631C16.4018 40.0047 16.5048 40.2597 16.7111 40.5279C16.9173 40.7993 17.5391 41.2132 18.5765 41.766C19.2115 42.1069 19.6936 42.385 20.0229 42.6036C20.3487 42.8221 20.6214 43.1067 20.8409 43.4544C21.0603 43.802 21.1701 44.1794 21.1701 44.5865C21.1701 45.2785 20.9074 45.8512 20.3786 46.3113C19.8534 46.7715 19.2017 47 18.4302 47C18.0112 47 17.4926 46.8973 16.8741 46.6954C16.495 46.5696 16.2323 46.5067 16.0894 46.5067C15.8799 46.5067 15.7502 46.6689 15.7003 47ZM29.5958 40.1571H29.3531C29.2633 39.1605 28.7313 38.664 27.7604 38.664H26.5268V45.2984C26.5268 45.8678 26.6066 46.2186 26.7661 46.3577C26.9225 46.4935 27.1518 46.563 27.4545 46.563H27.7604V46.8014H24.0595V46.563H24.372C24.6381 46.563 24.8575 46.4968 25.0338 46.3611C25.2066 46.2253 25.2965 45.8711 25.2965 45.2984V38.6641H24.2491C23.7004 38.6641 23.2881 38.7635 23.0087 38.9687C22.7328 39.1706 22.5699 39.5646 22.5234 40.1572H22.2806L22.3837 38.1212H29.4993L29.5958 40.1572V40.1571ZM37.6625 44.623L36.911 46.8013H30.191V46.5629H30.5003C30.8061 46.5629 31.0389 46.4867 31.2018 46.3312C31.3615 46.1756 31.4413 45.8247 31.4413 45.2751V39.634C31.4413 39.0446 31.3647 38.6871 31.2085 38.5547C31.0522 38.4223 30.8161 38.3594 30.5003 38.3594H30.191V38.121H36.911L37.0075 40.0212H36.7548C36.6417 39.432 36.4787 39.048 36.266 38.8658C36.0532 38.687 35.6542 38.5944 35.0656 38.5944H32.6748V42.0241H34.5868C35.0357 42.0241 35.3682 41.9512 35.5877 41.8055C35.8072 41.6599 35.9335 41.3123 35.9601 40.7628H36.1962V43.7853H35.9601C35.9069 43.1993 35.7606 42.8385 35.5212 42.6994C35.2818 42.5637 34.9725 42.4942 34.5868 42.4942H32.6748V45.3544C32.6748 45.765 32.7147 46.0298 32.8013 46.149C32.8843 46.2682 33.0839 46.3245 33.3931 46.3245H34.8695C35.4813 46.3245 35.9601 46.2285 36.3059 46.0365C36.6517 45.8411 37.0175 45.371 37.4098 44.6229H37.6625V44.623ZM49.3934 46.8013H45.6926V46.5629H45.9984C46.271 46.5629 46.4938 46.4967 46.6669 46.361C46.8364 46.2252 46.9229 45.871 46.9229 45.2984V39.4983L43.5645 46.8013H43.3483L39.9767 39.4983V45.2984C39.9767 45.871 40.0565 46.2253 40.2161 46.361C40.3758 46.4968 40.6052 46.5629 40.9077 46.5629H41.217V46.8013H38.1811V46.5629H38.4871C38.7531 46.5629 38.9759 46.4967 39.1487 46.361C39.325 46.2252 39.4148 45.871 39.4148 45.2984V39.6241C39.4148 39.1739 39.3416 38.8528 39.1953 38.6541C39.049 38.4555 38.7099 38.3596 38.1811 38.3596V38.1212H40.6517L43.8105 44.9143L46.9228 38.1212H49.3933V38.3596H49.0907C48.8214 38.3596 48.5987 38.4258 48.4224 38.5648C48.2495 38.7006 48.1597 39.0548 48.1597 39.6242V45.2984C48.1597 45.8646 48.2428 46.2155 48.4025 46.3545C48.562 46.4936 48.7915 46.5631 49.0907 46.5631H49.3933V46.8015L49.3934 46.8013ZM57.0245 46.8013H53.2872V46.5629H53.5997C53.9987 46.5629 54.2547 46.4703 54.3679 46.2816C54.4776 46.0962 54.5341 45.7551 54.5341 45.2652V39.6572C54.5341 39.1109 54.4643 38.7601 54.3214 38.5979C54.1784 38.4389 53.9357 38.3595 53.5998 38.3595H53.2872V38.1211H57.0246V38.3595H56.712C56.456 38.3595 56.2332 38.4257 56.0504 38.5614C55.8641 38.6971 55.7711 39.0645 55.7711 39.6572V45.2652C55.7711 45.775 55.8076 46.0862 55.884 46.1987C55.9572 46.308 56.0736 46.3974 56.2332 46.4636C56.3895 46.5299 56.549 46.5629 56.712 46.5629H57.0246V46.8013H57.0245ZM66.6673 38.3595H66.358C65.9856 38.3595 65.7396 38.4488 65.6166 38.6309C65.4935 38.8097 65.4337 39.144 65.4337 39.6241V46.9403H65.2009L59.4519 39.955V45.2983C59.4519 45.8677 59.5316 46.2186 59.688 46.3576C59.8476 46.4934 60.077 46.5629 60.3796 46.5629H60.6854V46.8013H57.6496V46.5629H57.9522C58.2215 46.5629 58.4443 46.4967 58.6239 46.361C58.8001 46.2252 58.8865 45.871 58.8865 45.2984V39.26C58.5939 38.9223 58.3213 38.6873 58.062 38.5548C57.8025 38.4224 57.5067 38.3595 57.1675 38.3595V38.1211H59.535L64.8651 44.6329V39.6241C64.8651 39.058 64.7852 38.7071 64.6223 38.568C64.4627 38.429 64.2333 38.3595 63.9341 38.3595H63.6315V38.1211H66.6673V38.3595ZM73.6367 40.028H73.4072C73.2908 39.6042 73.1213 39.2599 72.9052 38.9951C72.6857 38.7269 72.2068 38.5945 71.4687 38.5945H69.5435V42.0043H71.1329C71.5419 42.0043 71.8212 41.9117 71.9708 41.723C72.1205 41.5376 72.2202 41.233 72.2701 40.8159H72.5095V43.7556H72.2701C72.2635 43.3086 72.1704 42.9942 71.9907 42.8122C71.8112 42.6301 71.5253 42.5373 71.133 42.5373H69.5436V45.2652C69.5436 45.742 69.5735 46.0399 69.6367 46.1557C69.6965 46.2716 69.8129 46.3709 69.9792 46.447C70.1454 46.5232 70.3184 46.5629 70.4879 46.5629H70.8072V46.8013H67.0664V46.5629H67.3722C67.7679 46.5629 68.0239 46.4703 68.137 46.2783C68.2534 46.0896 68.3133 45.7519 68.3133 45.2653V39.6573C68.3133 39.1077 68.2368 38.7536 68.0905 38.5946C67.9409 38.439 67.7015 38.3596 67.3722 38.3596H67.0664V38.1212H73.547L73.6368 40.028L73.6367 40.028ZM83.1764 42.4082C83.1764 43.696 82.7707 44.7852 81.9594 45.6724C81.1481 46.5563 80.124 47 78.8904 47C78.0523 47 77.3176 46.8046 76.6891 46.414C76.0574 46.0233 75.5586 45.487 75.1896 44.805C74.8239 44.1264 74.6376 43.3319 74.6376 42.4281C74.6376 41.1204 75.0599 40.0445 75.9079 39.1937C76.7524 38.3462 77.7799 37.9224 78.9936 37.9224C79.7916 37.9224 80.4998 38.1178 81.1149 38.515C81.7334 38.9089 82.2321 39.442 82.6079 40.1173C82.9869 40.7893 83.1765 41.5541 83.1765 42.4081L83.1764 42.4082ZM81.7067 42.5837C81.7067 39.7863 80.7591 38.3892 78.8704 38.3892C78.3516 38.3892 77.8894 38.525 77.4805 38.7964C77.0715 39.0713 76.7422 39.5082 76.4896 40.1141C76.2369 40.7199 76.1105 41.4813 76.1105 42.4017C76.1105 43.6629 76.3532 44.6694 76.8387 45.4208C77.3241 46.169 78.0025 46.5431 78.877 46.5431C79.7981 46.5431 80.4996 46.1922 80.9818 45.4837C81.4639 44.7785 81.7066 43.8119 81.7066 42.5837H81.7067ZM92.5797 46.8013H90.2522L87.2996 42.7426C87.0834 42.7525 86.9072 42.7559 86.7709 42.7559C86.6977 42.7559 86.5713 42.7525 86.3918 42.7426V45.2653C86.3918 45.838 86.4716 46.1988 86.6312 46.3445C86.7908 46.4902 87.0135 46.563 87.2996 46.563H87.642V46.8014H83.9047V46.563H84.2372C84.5963 46.563 84.8423 46.4703 84.9687 46.2849C85.0984 46.0995 85.1615 45.7585 85.1615 45.2653V39.6573C85.1615 39.0812 85.0817 38.7237 84.9188 38.578C84.7559 38.4323 84.5297 38.3596 84.2372 38.3596H83.9047V38.1212H87.0801C87.8615 38.1212 88.4866 38.1708 88.9587 38.2701C89.4309 38.3727 89.8432 38.6144 90.1891 38.9984C90.5382 39.3824 90.7111 39.836 90.7111 40.3558C90.7111 41.5211 89.9929 42.2594 88.5631 42.5771L90.3653 45.0666C90.8143 45.6824 91.1933 46.0763 91.5059 46.2485C91.8184 46.4206 92.1776 46.5233 92.5798 46.5629V46.8013H92.5797ZM86.3918 38.7269V42.3387H86.7509C87.519 42.3387 88.1308 42.1732 88.5831 41.8422C89.0385 41.5111 89.2647 41.0443 89.2647 40.4384C89.2647 39.8161 89.0751 39.3525 88.696 39.0546C88.317 38.7566 87.8847 38.6044 87.3993 38.6044C86.987 38.6044 86.6511 38.6474 86.3919 38.7268L86.3918 38.7269ZM103.895 46.8013H100.194V46.5629H100.5C100.773 46.5629 100.995 46.4967 101.168 46.361C101.338 46.2252 101.424 45.871 101.424 45.2984V39.4983L98.066 46.8013H97.8499L94.4782 39.4983V45.2984C94.4782 45.871 94.558 46.2253 94.7177 46.361C94.8773 46.4968 95.1067 46.5629 95.4093 46.5629H95.7185V46.8013H92.6827V46.5629H92.9886C93.2546 46.5629 93.4774 46.4967 93.6503 46.361C93.8265 46.2252 93.9164 45.871 93.9164 45.2984V39.6241C93.9164 39.1739 93.8432 38.8528 93.6968 38.6541C93.5505 38.4555 93.2114 38.3596 92.6827 38.3596V38.1212H95.1532L98.3121 44.9143L101.424 38.1212H103.895V38.3596H103.592C103.323 38.3596 103.1 38.4258 102.924 38.5648C102.751 38.7006 102.661 39.0548 102.661 39.6242V45.2984C102.661 45.8646 102.744 46.2155 102.904 46.3545C103.064 46.4936 103.293 46.5631 103.592 46.5631H103.895V46.8015L103.895 46.8013ZM113.531 46.8013H110.093V46.5629C110.685 46.5331 110.981 46.3576 110.981 46.0365C110.981 45.8478 110.894 45.5499 110.721 45.1427L110.196 43.898H106.821L106.226 45.2652C106.083 45.5929 106.013 45.8445 106.013 46.0201C106.013 46.3345 106.349 46.5166 107.02 46.5629V46.8013H104.274V46.5629C104.603 46.5066 104.849 46.4172 105.012 46.2947C105.172 46.1723 105.404 45.7618 105.704 45.0666L108.773 37.9224H108.999L112.031 45.1427C112.244 45.6459 112.447 46.0035 112.64 46.2121C112.836 46.4206 113.132 46.5365 113.531 46.5629V46.8013H113.531ZM110.016 43.4213L108.537 39.9154L107.021 43.4213H110.016H110.016ZM114.821 47H114.582V44.0238H114.821C115.117 45.6757 115.982 46.5001 117.415 46.5001C117.91 46.5001 118.322 46.3677 118.652 46.1027C118.981 45.8379 119.147 45.4969 119.147 45.0799C119.147 44.6098 118.904 44.1926 118.422 43.8251C117.278 43.1597 116.341 42.5903 115.602 42.1103C114.868 41.6303 114.502 40.9946 114.502 40.2066C114.502 39.5545 114.745 39.0115 115.237 38.5779C115.725 38.1408 116.331 37.9224 117.052 37.9224C117.521 37.9224 118.01 38.0349 118.525 38.2601C118.768 38.3693 118.938 38.4223 119.034 38.4223C119.26 38.4223 119.406 38.2534 119.48 37.9224H119.716V40.925H119.48C119.353 40.0378 119.061 39.4023 118.605 39.0149C118.146 38.6275 117.634 38.4355 117.069 38.4355C116.647 38.4355 116.281 38.5646 115.978 38.8229C115.676 39.0779 115.523 39.3923 115.523 39.7631C115.523 40.0047 115.626 40.2597 115.832 40.5279C116.038 40.7993 116.66 41.2132 117.697 41.766C118.332 42.1069 118.814 42.385 119.144 42.6036C119.47 42.8221 119.742 43.1067 119.962 43.4544C120.181 43.802 120.291 44.1794 120.291 44.5865C120.291 45.2785 120.028 45.8512 119.499 46.3113C118.974 46.7715 118.323 47 117.551 47C117.132 47 116.613 46.8973 115.995 46.6954C115.616 46.5696 115.353 46.5067 115.21 46.5067C115.001 46.5067 114.871 46.6689 114.821 47ZM125.066 46.8013H121.328V46.5629H121.641C122.04 46.5629 122.296 46.4703 122.409 46.2816C122.519 46.0962 122.575 45.7551 122.575 45.2652V39.6572C122.575 39.1109 122.505 38.7601 122.363 38.5979C122.22 38.4389 121.977 38.3595 121.641 38.3595H121.328V38.1211H125.066V38.3595H124.753C124.497 38.3595 124.274 38.4257 124.092 38.5614C123.905 38.6971 123.812 39.0645 123.812 39.6572V45.2652C123.812 45.775 123.849 46.0862 123.925 46.1987C123.998 46.308 124.115 46.3974 124.274 46.4636C124.431 46.5299 124.59 46.5629 124.753 46.5629H125.066V46.8013H125.066ZM131.377 42.736V45.2652C131.377 45.8379 131.457 46.1987 131.619 46.3445C131.782 46.4902 132.005 46.5629 132.294 46.5629H132.634V46.8013H128.896V46.5629H129.222C129.585 46.5629 129.831 46.4736 129.957 46.2915C130.08 46.1094 130.143 45.7684 130.143 45.2652V39.6572C130.143 39.0779 130.063 38.717 129.9 38.5747C129.741 38.429 129.515 38.3595 129.222 38.3595H128.896V38.1211H132.092C133.299 38.1211 134.176 38.3528 134.718 38.8229C135.264 39.2897 135.536 39.8558 135.536 40.5212C135.536 41.2661 135.294 41.8487 134.808 42.2758C134.326 42.7029 133.668 42.9181 132.84 42.9181C132.421 42.9181 131.935 42.8584 131.377 42.736ZM131.377 38.7601V42.3751C131.829 42.4579 132.181 42.501 132.431 42.501C132.953 42.501 133.355 42.309 133.641 41.9249C133.93 41.5409 134.073 41.1171 134.073 40.647C134.073 39.9982 133.901 39.5016 133.551 39.1573C133.202 38.813 132.757 38.6408 132.218 38.6408C132.002 38.6408 131.719 38.6805 131.377 38.7601ZM143.743 44.623L142.991 46.8013H136.271V46.5629H136.58C136.886 46.5629 137.119 46.4867 137.282 46.3312C137.442 46.1756 137.521 45.8247 137.521 45.2751V39.634C137.521 39.0446 137.445 38.6871 137.289 38.5547C137.132 38.4223 136.896 38.3594 136.58 38.3594H136.271V38.121H142.991L143.088 40.0212H142.835C142.722 39.432 142.559 39.048 142.346 38.8658C142.133 38.687 141.734 38.5944 141.146 38.5944H138.755V42.0241H140.667C141.116 42.0241 141.448 41.9512 141.668 41.8055C141.887 41.6599 142.014 41.3123 142.04 40.7628H142.276V43.7853H142.04C141.987 43.1993 141.841 42.8385 141.601 42.6994C141.362 42.5637 141.053 42.4942 140.667 42.4942H138.755V45.3544C138.755 45.765 138.795 46.0298 138.881 46.149C138.965 46.2682 139.164 46.3245 139.473 46.3245H140.95C141.561 46.3245 142.04 46.2285 142.386 46.0365C142.732 45.8411 143.098 45.371 143.49 44.6229H143.743V44.623ZM152.94 46.8013H150.612L147.66 42.7426C147.444 42.7525 147.267 42.7559 147.131 42.7559C147.058 42.7559 146.931 42.7525 146.752 42.7426V45.2653C146.752 45.838 146.832 46.1988 146.991 46.3445C147.151 46.4902 147.374 46.563 147.66 46.563H148.002V46.8014H144.265V46.563H144.597C144.956 46.563 145.202 46.4703 145.329 46.2849C145.459 46.0995 145.522 45.7585 145.522 45.2653V39.6573C145.522 39.0812 145.442 38.7237 145.279 38.578C145.116 38.4323 144.89 38.3596 144.597 38.3596H144.265V38.1212H147.44C148.222 38.1212 148.847 38.1708 149.319 38.2701C149.791 38.3727 150.203 38.6144 150.549 38.9984C150.898 39.3824 151.071 39.836 151.071 40.3558C151.071 41.5211 150.353 42.2594 148.923 42.5771L150.725 45.0666C151.174 45.6824 151.553 46.0763 151.866 46.2485C152.179 46.4206 152.538 46.5233 152.94 46.5629V46.8013H152.94ZM146.752 38.7269V42.3387H147.111C147.879 42.3387 148.491 42.1732 148.943 41.8422C149.399 41.5111 149.625 41.0443 149.625 40.4384C149.625 39.8161 149.435 39.3525 149.056 39.0546C148.677 38.7566 148.245 38.6044 147.759 38.6044C147.347 38.6044 147.011 38.6474 146.752 38.7268L146.752 38.7269ZM157.871 38.3595H157.558C157.163 38.3595 156.907 38.4555 156.794 38.6442C156.681 38.8361 156.624 39.1738 156.624 39.6571V43.9012C156.624 44.8779 156.418 45.6392 156.006 46.1822C155.597 46.7285 155.058 46.9999 154.393 46.9999C154.04 46.9999 153.738 46.9105 153.479 46.7317C153.219 46.5529 153.093 46.3146 153.093 46.02C153.093 45.5697 153.309 45.3446 153.748 45.3446C154.024 45.3446 154.287 45.6292 154.533 46.1987C154.629 46.4304 154.759 46.543 154.912 46.543C155.231 46.543 155.39 46.2251 155.39 45.5829V39.657C155.39 39.1174 155.321 38.7665 155.184 38.6043C155.045 38.4388 154.802 38.3593 154.449 38.3593H154.134V38.1209H157.871V38.3593V38.3595ZM167.307 46.8013H163.869V46.5629C164.461 46.5331 164.757 46.3576 164.757 46.0365C164.757 45.8478 164.671 45.5499 164.498 45.1427L163.972 43.898H160.597L160.002 45.2652C159.859 45.5929 159.789 45.8445 159.789 46.0201C159.789 46.3345 160.125 46.5166 160.797 46.5629V46.8013H158.05V46.5629C158.38 46.5066 158.626 46.4172 158.789 46.2947C158.948 46.1723 159.181 45.7618 159.48 45.0666L162.549 37.9224H162.775L165.808 45.1427C166.021 45.6459 166.223 46.0035 166.416 46.2121C166.613 46.4206 166.909 46.5365 167.308 46.5629V46.8013H167.307ZM163.793 43.4213L162.313 39.9154L160.797 43.4213H163.793H163.793ZM175.215 44.4442L174.466 46.8013H167.716V46.5629H168.042C168.411 46.5629 168.657 46.4703 168.784 46.2848C168.91 46.0994 168.973 45.7585 168.973 45.2586V39.6571C168.973 39.0778 168.89 38.7169 168.727 38.5746C168.564 38.4289 168.335 38.3594 168.042 38.3594H167.716V38.121H171.667V38.3594C171.304 38.3594 171.015 38.3925 170.799 38.4587C170.583 38.5283 170.43 38.6308 170.34 38.7666C170.25 38.9056 170.207 39.2499 170.207 39.8028V45.2586C170.207 45.6956 170.27 45.9703 170.396 46.0795C170.523 46.1921 170.909 46.2484 171.55 46.2484H172.189C172.704 46.2484 173.11 46.2186 173.406 46.1557C173.702 46.0962 173.978 45.9372 174.24 45.6824C174.5 45.4307 174.752 45.0037 175.005 44.4012L175.215 44.4442ZM184.854 46.8013H181.416V46.5629C182.008 46.5331 182.304 46.3576 182.304 46.0365C182.304 45.8478 182.217 45.5499 182.044 45.1427L181.519 43.898H178.144L177.549 45.2652C177.406 45.5929 177.336 45.8445 177.336 46.0201C177.336 46.3345 177.672 46.5166 178.343 46.5629V46.8013H175.597V46.5629C175.926 46.5066 176.172 46.4172 176.335 46.2947C176.495 46.1723 176.727 45.7618 177.027 45.0666L180.096 37.9224H180.322L183.354 45.1427C183.567 45.6459 183.77 46.0035 183.963 46.2121C184.159 46.4206 184.455 46.5365 184.854 46.5629V46.8013H184.854ZM181.339 43.4213L179.86 39.9154L178.344 43.4213H181.339H181.339ZM194.324 38.3595H194.015C193.642 38.3595 193.396 38.4488 193.273 38.6309C193.15 38.8097 193.09 39.144 193.09 39.6241V46.9403H192.857L187.108 39.955V45.2983C187.108 45.8677 187.188 46.2186 187.345 46.3576C187.504 46.4934 187.734 46.5629 188.036 46.5629H188.342V46.8013H185.306V46.5629H185.609C185.878 46.5629 186.101 46.4967 186.28 46.361C186.457 46.2252 186.543 45.871 186.543 45.2984V39.26C186.25 38.9223 185.978 38.6873 185.719 38.5548C185.459 38.4224 185.163 38.3595 184.824 38.3595V38.1211H187.192L192.522 44.6329V39.6241C192.522 39.058 192.442 38.7071 192.279 38.568C192.119 38.429 191.89 38.3595 191.591 38.3595H191.288V38.1211H194.324V38.3595ZM203.867 46.8013H200.429V46.5629C201.021 46.5331 201.316 46.3576 201.316 46.0365C201.316 45.8478 201.23 45.5499 201.057 45.1427L200.532 43.898H197.157L196.562 45.2652C196.419 45.5929 196.349 45.8445 196.349 46.0201C196.349 46.3345 196.685 46.5166 197.356 46.5629V46.8013H194.61V46.5629C194.939 46.5066 195.185 46.4172 195.348 46.2947C195.508 46.1723 195.74 45.7618 196.04 45.0666L199.109 37.9224H199.335L202.367 45.1427C202.58 45.6459 202.783 46.0035 202.976 46.2121C203.172 46.4206 203.468 46.5365 203.867 46.5629V46.8013H203.867ZM200.352 43.4213L198.873 39.9154L197.356 43.4213H200.352H200.352ZM213.337 38.3595H213.027C212.655 38.3595 212.409 38.4488 212.286 38.6309C212.163 38.8097 212.103 39.144 212.103 39.6241V46.9403H211.87L206.121 39.955V45.2983C206.121 45.8677 206.201 46.2186 206.357 46.3576C206.517 46.4934 206.746 46.5629 207.049 46.5629H207.355V46.8013H204.319V46.5629H204.622C204.891 46.5629 205.114 46.4967 205.293 46.361C205.47 46.2252 205.556 45.871 205.556 45.2984V39.26C205.263 38.9223 204.991 38.6873 204.731 38.5548C204.472 38.4224 204.176 38.3595 203.837 38.3595V38.1211H206.204L211.534 44.6329V39.6241C211.534 39.058 211.455 38.7071 211.292 38.568C211.132 38.429 210.903 38.3595 210.603 38.3595H210.301V38.1211H213.337V38.3595ZM217.034 46.8013V46.5629H217.367C217.732 46.5629 217.978 46.4703 218.105 46.2816C218.231 46.0962 218.291 45.7551 218.291 45.2652V39.6572C218.291 39.0779 218.211 38.717 218.045 38.5747C217.882 38.429 217.656 38.3595 217.367 38.3595H217.034V38.1211H220.585C221.576 38.1211 222.431 38.2171 223.152 38.4091C223.871 38.6011 224.496 39.0547 225.024 39.7664C225.553 40.4749 225.819 41.3587 225.819 42.4182C225.819 43.2359 225.639 43.9807 225.28 44.6593C224.921 45.3347 224.386 45.861 223.671 46.2352C222.96 46.6126 222.045 46.8013 220.931 46.8013H217.034H217.034ZM219.525 38.7964V46.1757C220.07 46.2948 220.525 46.3544 220.895 46.3544C222.042 46.3544 222.906 45.9671 223.485 45.1924C224.063 44.4145 224.353 43.5107 224.353 42.4812C224.353 41.3159 224.033 40.379 223.398 39.6706C222.76 38.9621 221.909 38.6045 220.845 38.6045C220.459 38.6045 220.017 38.6675 219.525 38.7965V38.7964ZM230.381 46.8013H226.644V46.5629H226.956C227.355 46.5629 227.611 46.4703 227.724 46.2816C227.834 46.0962 227.891 45.7551 227.891 45.2652V39.6572C227.891 39.1109 227.821 38.7601 227.678 38.5979C227.535 38.4389 227.292 38.3595 226.956 38.3595H226.644V38.1211H230.381V38.3595H230.069C229.812 38.3595 229.59 38.4257 229.407 38.5614C229.221 38.6971 229.128 39.0645 229.128 39.6572V45.2652C229.128 45.775 229.164 46.0862 229.241 46.1987C229.314 46.308 229.43 46.3974 229.59 46.4636C229.746 46.5299 229.906 46.5629 230.069 46.5629H230.381V46.8013H230.381ZM240.024 38.3595H239.715C239.342 38.3595 239.096 38.4488 238.973 38.6309C238.85 38.8097 238.79 39.144 238.79 39.6241V46.9403H238.557L232.808 39.955V45.2983C232.808 45.8677 232.888 46.2186 233.045 46.3576C233.204 46.4934 233.434 46.5629 233.736 46.5629H234.042V46.8013H231.006V46.5629H231.309C231.578 46.5629 231.801 46.4967 231.98 46.361C232.157 46.2252 232.243 45.871 232.243 45.2984V39.26C231.95 38.9223 231.678 38.6873 231.418 38.5548C231.159 38.4224 230.863 38.3595 230.524 38.3595V38.1211H232.892L238.222 44.6329V39.6241C238.222 39.058 238.142 38.7071 237.979 38.568C237.819 38.429 237.59 38.3595 237.291 38.3595H236.988V38.1211H240.024V38.3595ZM249.567 46.8013H246.129V46.5629C246.721 46.5331 247.016 46.3576 247.016 46.0365C247.016 45.8478 246.93 45.5499 246.757 45.1427L246.232 43.898H242.857L242.262 45.2652C242.119 45.5929 242.049 45.8445 242.049 46.0201C242.049 46.3345 242.385 46.5166 243.056 46.5629V46.8013H240.31V46.5629C240.639 46.5066 240.885 46.4172 241.048 46.2947C241.208 46.1723 241.44 45.7618 241.74 45.0666L244.809 37.9224H245.035L248.067 45.1427C248.28 45.6459 248.483 46.0035 248.676 46.2121C248.872 46.4206 249.168 46.5365 249.567 46.5629V46.8013H249.567ZM246.052 43.4213L244.573 39.9154L243.056 43.4213H246.052H246.052ZM250.857 47H250.618V44.0238H250.857C251.153 45.6757 252.017 46.5001 253.45 46.5001C253.946 46.5001 254.358 46.3677 254.687 46.1027C255.017 45.8379 255.183 45.4969 255.183 45.0799C255.183 44.6098 254.94 44.1926 254.458 43.8251C253.314 43.1597 252.377 42.5903 251.638 42.1103C250.903 41.6303 250.538 40.9946 250.538 40.2066C250.538 39.5545 250.78 39.0115 251.272 38.5779C251.761 38.1408 252.366 37.9224 253.088 37.9224C253.557 37.9224 254.046 38.0349 254.561 38.2601C254.804 38.3693 254.973 38.4223 255.07 38.4223C255.296 38.4223 255.442 38.2534 255.515 37.9224H255.751V40.925H255.515C255.389 40.0378 255.096 39.4023 254.641 39.0149C254.182 38.6275 253.67 38.4355 253.105 38.4355C252.682 38.4355 252.317 38.5646 252.014 38.8229C251.711 39.0779 251.558 39.3923 251.558 39.7631C251.558 40.0047 251.661 40.2597 251.868 40.5279C252.074 40.7993 252.696 41.2132 253.733 41.766C254.368 42.1069 254.85 42.385 255.18 42.6036C255.505 42.8221 255.778 43.1067 255.998 43.4544C256.217 43.802 256.327 44.1794 256.327 44.5865C256.327 45.2785 256.064 45.8512 255.535 46.3113C255.01 46.7715 254.358 47 253.587 47C253.168 47 252.649 46.8973 252.031 46.6954C251.652 46.5696 251.389 46.5067 251.246 46.5067C251.037 46.5067 250.907 46.6689 250.857 47Z" fill="#534741"/>
</g>
<defs>
<linearGradient id="paint0_linear_45_121" x1="15.2897" y1="1.05702" x2="0.106988" y2="31.3442" gradientUnits="userSpaceOnUse">
<stop stop-color="#219FA7"/>
<stop offset="1" stop-color="#336666"/>
</linearGradient>
<clipPath id="clip0_45_121">
<rect width="260" height="47" fill="white"/>
</clipPath>
</defs>
</svg>
