<svg width="225" height="99" viewBox="0 0 225 99" fill="none" xmlns="http://www.w3.org/2000/svg">
<path d="M54.8561 38.4895H47.3682V31.9912H69.506V38.4895H62.0183V77.48H54.8561V38.4895ZM72.9736 31.9912H92.507V38.4895H80.1359V50.5117H89.9677V57.0102H80.1359V70.9818H92.507V77.48H72.9736V31.9912ZM102.162 31.9912H111.864L119.286 77.48H112.124L110.822 68.4474V68.5773H102.683L101.381 77.48H94.7391L102.162 31.9912ZM109.975 62.4038L106.785 39.9192H106.654L103.529 62.4038H109.975ZM122.761 31.9912H132.983L137.541 64.5482H137.672L142.229 31.9912H152.452V77.48H145.68V43.0384H145.55L140.341 77.48H134.351L129.142 43.0384H129.012V77.48H122.761V31.9912ZM156.755 51.4865H171.079V57.9847H156.755V51.4865ZM185.764 78.13C182.291 78.13 179.643 77.1553 177.82 75.2057C175.997 73.2129 175.085 70.3752 175.085 66.6926V31.9912H182.248V67.2125C182.248 68.7721 182.552 69.8986 183.159 70.5918C183.81 71.285 184.722 71.6315 185.894 71.6315C187.066 71.6315 187.956 71.285 188.564 70.5918C189.215 69.8986 189.54 68.7721 189.54 67.2125V31.9912H196.442V66.6926C196.442 70.3752 195.53 73.2129 193.707 75.2057C191.884 77.1553 189.236 78.13 185.764 78.13ZM201.543 31.9912H212.091C215.65 31.9912 218.32 32.9443 220.1 34.8504C221.879 36.7567 222.769 39.5509 222.769 43.2335V47.7172C222.769 51.3998 221.879 54.194 220.1 56.1004C218.32 58.0065 215.65 58.9595 212.091 58.9595H208.705V77.48H201.543V31.9912ZM212.091 52.4613C213.263 52.4613 214.131 52.1363 214.696 51.4865C215.303 50.8367 215.607 49.7318 215.607 48.1722V42.7786C215.607 41.219 215.303 40.1143 214.696 39.4643C214.131 38.8145 213.263 38.4895 212.091 38.4895H208.705V52.4613H212.091Z" fill="#22A6B3"/>
<path d="M196.595 13.4844H189.607V33.0127H196.595V13.4844Z" fill="#22A6B3"/>
<path d="M193.102 0L198.548 14.6462H187.655L193.102 0Z" fill="#22A6B3"/>
<path d="M34.0282 50.39C33.8922 50.3707 33.7565 50.3707 33.6205 50.39C30.6118 50.2932 28.2241 47.8326 28.2241 44.8105C28.2241 41.7301 30.7282 39.2114 33.8339 39.2114C36.9202 39.2114 39.4439 41.7106 39.4439 44.8105C39.4245 47.8326 37.0369 50.2932 34.0282 50.39Z" fill="#22A6B3"/>
<path d="M40.3563 63.8157C38.1823 65.2688 35.1346 65.8111 32.3202 65.4431C33.0576 63.8546 33.4459 62.0914 33.4652 60.2316C33.4652 58.2944 33.0382 56.4539 32.2229 54.8458C35.0959 54.4585 38.1435 55.0008 40.3369 56.4539C43.4039 58.4687 43.4039 61.7816 40.3563 63.8157Z" fill="#22A6B3"/>
<path d="M12.5008 50.39C12.6367 50.3707 12.7726 50.3707 12.9085 50.39C15.9172 50.2932 18.3048 47.8326 18.3048 44.8105C18.3048 41.7106 15.8007 39.2114 12.6949 39.2114C9.60855 39.2114 7.10449 41.7106 7.10449 44.8105C7.10449 47.8326 9.49208 50.2932 12.5008 50.39Z" fill="#22A6B3"/>
<path d="M12.7141 60.2321C12.7141 62.1112 13.1217 63.8937 13.8594 65.5016C11.1224 65.7921 8.26894 65.2109 6.17254 63.8355C3.10557 61.8012 3.10557 58.4885 6.17254 56.4542C8.24953 55.0593 11.1806 54.4976 13.937 54.8074C13.1412 56.4349 12.7141 58.2753 12.7141 60.2321Z" fill="#22A6B3"/>
<path d="M23.5262 66.0824C23.3709 66.0629 23.1962 66.0629 23.0215 66.0824C19.4499 65.966 16.5964 63.0407 16.5964 59.4373C16.6159 55.7565 19.5858 52.7729 23.2933 52.7729C26.9814 52.7729 29.9707 55.7565 29.9707 59.4373C29.9514 63.0407 27.1173 65.966 23.5262 66.0824Z" fill="#22A6B3"/>
<path d="M17.2176 70.0929C14.2865 72.0497 14.2865 75.2655 17.2176 77.203C20.5563 79.4307 26.0302 79.4307 29.3689 77.203C32.3 75.2462 32.3 72.0301 29.3689 70.0929C26.0496 67.8649 20.5757 67.8649 17.2176 70.0929Z" fill="#22A6B3"/>
</svg>
